<?xml version="1.0" encoding="UTF-8" standalone="no"?>
<svg
   xmlns:dc="http://purl.org/dc/elements/1.1/"
   xmlns:cc="http://creativecommons.org/ns#"
   xmlns:rdf="http://www.w3.org/1999/02/22-rdf-syntax-ns#"
   xmlns:svg="http://www.w3.org/2000/svg"
   xmlns="http://www.w3.org/2000/svg"
   xmlns:sodipodi="http://sodipodi.sourceforge.net/DTD/sodipodi-0.dtd"
   xmlns:inkscape="http://www.inkscape.org/namespaces/inkscape"
   inkscape:version="1.0 (6e3e5246a0, 2020-05-07)"
   sodipodi:docname="asterisk.svg"
   zoomAndPan="magnify"
   xml:space="preserve"
   width="64"
   version="1.1"
   preserveAspectRatio="xMidYMid meet"
   id="Layer_1"
   height="64"
   contentStyleType="text/css"
   contentScriptType="text/ecmascript"><metadata
     id="metadata9"><rdf:RDF><cc:Work
         rdf:about=""><dc:format>image/svg+xml</dc:format><dc:type
           rdf:resource="http://purl.org/dc/dcmitype/StillImage" /></cc:Work></rdf:RDF></metadata><defs
     id="defs7" /><sodipodi:namedview
     inkscape:document-rotation="0"
     inkscape:current-layer="Layer_1"
     inkscape:window-maximized="1"
     inkscape:window-y="0"
     inkscape:window-x="0"
     inkscape:cy="37.286365"
     inkscape:cx="28.862232"
     inkscape:zoom="7.375"
     showgrid="false"
     id="namedview5"
     inkscape:window-height="1137"
     inkscape:window-width="1920"
     inkscape:pageshadow="2"
     inkscape:pageopacity="0"
     guidetolerance="10"
     gridtolerance="10"
     objecttolerance="10"
     borderopacity="1"
     bordercolor="#666666"
     pagecolor="#ffffff" /><path
     style="stroke-width:0.0405095;fill:#000000"
     inkscape:connector-curvature="0"
     id="path2"
     d="m 59.30657,38.015625 c 1.288324,0.67707 2.121511,1.686211 2.499602,3.027344 0.378091,1.341133 0.203035,2.610664 -0.525127,3.808593 l -2.688647,4.296875 c -0.728161,1.19793 -1.81345,1.972657 -3.255783,2.324219 -1.442333,0.351563 -2.807662,0.188789 -4.095986,-0.488281 L 40.065942,45.007812 V 57 c 0,1.35418 -0.532142,2.526055 -1.596384,3.515625 C 37.405316,61.505195 36.145013,62 34.688648,62 H 29.311354 C 27.85499,62 26.594686,61.505195 25.530444,60.515625 24.466202,59.526055 23.93406,58.35418 23.93406,57 V 45.007812 l -11.174689,5.976563 c -1.288324,0.67707 -2.653653,0.839844 -4.0959858,0.488281 C 7.2210522,51.121094 6.135763,50.346367 5.4076016,49.148437 L 2.7189546,44.851562 C 1.9907934,43.653633 1.8157373,42.384102 2.1938283,41.042969 2.5719192,39.701836 3.4051057,38.692695 4.6934298,38.015625 L 15.868119,32 4.6934298,25.984375 C 3.4051057,25.307305 2.5719192,24.298164 2.1938283,22.957031 1.8157373,21.615898 1.9907934,20.346367 2.7189546,19.148437 l 2.688647,-4.296874 c 0.7281614,-1.19793 1.8134506,-1.972657 3.2557836,-2.324219 1.4423328,-0.351563 2.8076618,-0.188789 4.0959858,0.488281 L 23.93406,18.992187 V 7 c 0,-1.3541797 0.532142,-2.5260547 1.596384,-3.515625 C 26.594686,2.4948047 27.85499,2 29.311354,2 h 5.377294 c 1.456365,0 2.716668,0.4948047 3.78091,1.484375 C 39.5338,4.4739453 40.065942,5.6458203 40.065942,7 v 11.992187 l 11.174687,-5.976562 c 1.288324,-0.67707 2.653653,-0.839844 4.095986,-0.488281 1.442333,0.351562 2.527622,1.126289 3.255783,2.324219 l 2.688647,4.296874 c 0.728162,1.19793 0.903218,2.467461 0.525127,3.808594 -0.378091,1.341133 -1.211278,2.350274 -2.499602,3.027344 L 48.131881,32 Z" /></svg>
