<?xml version="1.0" encoding="UTF-8" standalone="no"?>
<svg
   xmlns:dc="http://purl.org/dc/elements/1.1/"
   xmlns:cc="http://creativecommons.org/ns#"
   xmlns:rdf="http://www.w3.org/1999/02/22-rdf-syntax-ns#"
   xmlns:svg="http://www.w3.org/2000/svg"
   xmlns="http://www.w3.org/2000/svg"
   xmlns:sodipodi="http://sodipodi.sourceforge.net/DTD/sodipodi-0.dtd"
   xmlns:inkscape="http://www.inkscape.org/namespaces/inkscape"
   inkscape:version="0.92.5 (2060ec1f9f, 2020-04-08)"
   sodipodi:docname="camera.svg"
   id="svg4"
   version="1.1"
   width="64"
   height="64">
  <metadata
     id="metadata10">
    <rdf:RDF>
      <cc:Work
         rdf:about="">
        <dc:format>image/svg+xml</dc:format>
        <dc:type
           rdf:resource="http://purl.org/dc/dcmitype/StillImage" />
      </cc:Work>
    </rdf:RDF>
  </metadata>
  <defs
     id="defs8" />
  <sodipodi:namedview
     inkscape:current-layer="svg4"
     inkscape:window-maximized="1"
     inkscape:window-y="0"
     inkscape:window-x="0"
     inkscape:cy="57.040211"
     inkscape:cx="65.105469"
     inkscape:zoom="5.6071428"
     showgrid="false"
     id="namedview6"
     inkscape:window-height="1001"
     inkscape:window-width="1920"
     inkscape:pageshadow="2"
     inkscape:pageopacity="0"
     guidetolerance="10"
     gridtolerance="10"
     objecttolerance="10"
     borderopacity="1"
     bordercolor="#666666"
     pagecolor="#ffffff" />
  <rect
     style="opacity:1;fill:#e6e6e6;stroke:none;stroke-width:1.00213349"
     id="rect3710"
     width="64"
     height="64.00016"
     x="0"
     y="-0.00016021729" />
  <path
     style="fill:#000000;stroke-width:0.0306432"
     id="path2"
     d="m 32,27.192308 q 3.71875,0 6.359375,2.539062 Q 41,32.270433 41,35.846154 41,39.421875 38.359375,41.960937 35.71875,44.5 32,44.5 28.28125,44.5 25.640625,41.960937 23,39.421875 23,35.846154 23,32.270433 25.640625,29.73137 28.28125,27.192308 32,27.192308 Z m 22,-12.5 q 3.3125,0 5.65625,2.253605 Q 62,19.199519 62,22.384615 v 26.923077 q 0,3.185096 -2.34375,5.438702 Q 57.3125,57 54,57 H 10 Q 6.6875,57 4.34375,54.746394 2,52.492788 2,49.307692 V 22.384615 Q 2,19.199519 4.34375,16.945913 6.6875,14.692308 10,14.692308 h 7 l 1.59375,-4.086539 Q 19.1875,9.1334135 20.765625,8.0667067 22.34375,7 24,7 h 16 q 1.65625,0 3.234375,1.0667067 1.578125,1.0667068 2.171875,2.5390623 L 47,14.692308 Z M 32,49.307692 q 5.78125,0 9.890625,-3.951322 Q 46,41.405048 46,35.846154 46,30.28726 41.890625,26.335937 37.78125,22.384615 32,22.384615 q -5.78125,0 -9.890625,3.951322 Q 18,30.28726 18,35.846154 18,41.405048 22.109375,45.35637 26.21875,49.307692 32,49.307692 Z" />
</svg>
