<?xml version="1.0" encoding="UTF-8" standalone="no"?>
<svg
   xmlns:dc="http://purl.org/dc/elements/1.1/"
   xmlns:cc="http://creativecommons.org/ns#"
   xmlns:rdf="http://www.w3.org/1999/02/22-rdf-syntax-ns#"
   xmlns:svg="http://www.w3.org/2000/svg"
   xmlns="http://www.w3.org/2000/svg"
   xmlns:sodipodi="http://sodipodi.sourceforge.net/DTD/sodipodi-0.dtd"
   xmlns:inkscape="http://www.inkscape.org/namespaces/inkscape"
   contentScriptType="text/ecmascript"
   contentStyleType="text/css"
   enable-background="new 0 0 64 64"
   height="64"
   id="Layer_1"
   preserveAspectRatio="xMidYMid meet"
   version="1.1"
   viewBox="0 0 64 64"
   width="64"
   xml:space="preserve"
   zoomAndPan="magnify"
   sodipodi:docname="cell.svg"
   inkscape:version="0.92.5 (2060ec1f9f, 2020-04-08)"><metadata
     id="metadata9"><rdf:RDF><cc:Work
         rdf:about=""><dc:format>image/svg+xml</dc:format><dc:type
           rdf:resource="http://purl.org/dc/dcmitype/StillImage" /><dc:title /></cc:Work></rdf:RDF></metadata><defs
     id="defs7" /><sodipodi:namedview
     pagecolor="#ffffff"
     bordercolor="#666666"
     borderopacity="1"
     objecttolerance="10"
     gridtolerance="10"
     guidetolerance="10"
     inkscape:pageopacity="0"
     inkscape:pageshadow="2"
     inkscape:window-width="1920"
     inkscape:window-height="1001"
     id="namedview5"
     showgrid="false"
     inkscape:zoom="5.2149125"
     inkscape:cx="-31.520048"
     inkscape:cy="32.775504"
     inkscape:window-x="0"
     inkscape:window-y="0"
     inkscape:window-maximized="1"
     inkscape:current-layer="Layer_1" /><g
     id="g25"
     style="fill:#000000"
     transform="matrix(0.03125,0,0,0.03125,10,0)"><path
       id="path2"
       d="M 1271.2727,238.54545 H 136.72727 c -59.999997,0 -111.364088,21.3641 -154.090906,64.09091 -42.726819,42.72682 -64.090909,94.09091 -64.090909,154.09091 V 1591.2727 c 0,60 21.36409,111.3641 64.090909,154.0909 42.726818,42.7269 94.090909,64.0909 154.090906,64.0909 H 1271.2727 c 60,0 111.3641,-21.364 154.0909,-64.0909 42.7269,-42.7268 64.0909,-94.0909 64.0909,-154.0909 V 456.72727 c 0,-60 -21.364,-111.36409 -64.0909,-154.09091 -42.7268,-42.72681 -94.0909,-64.09091 -154.0909,-64.09091 z M 1664,456.72727 V 1591.2727 c 0,108.1814 -38.4095,200.6823 -115.2273,277.5 C 1471.955,1945.5905 1379.4541,1984 1271.2727,1984 H 136.72727 c -108.181361,0 -200.68227,-38.4095 -277.5,-115.2273 C -217.59045,1791.955 -256,1699.4541 -256,1591.2727 V 456.72727 c 0,-108.18136 38.40955,-200.68227 115.22727,-277.5 C -63.955,102.40955 28.545909,64 136.72727,64 H 1271.2727 c 108.1814,0 200.6823,38.40955 277.5,115.22727 C 1625.5905,256.045 1664,348.54591 1664,456.72727 Z"
       style="fill:#000000;stroke-width:1.36363637"
       inkscape:connector-curvature="0" /><path
       style="fill:#000000;stroke-width:0.64583331"
       id="path2-3"
       d="m 1184,585.33333 v 909.33327 c 0,11.1942 -4.0895,20.8819 -12.2711,29.0627 -8.1803,8.1807 -17.8682,12.2707 -29.0623,12.2707 H 233.33334 c -11.19408,0 -20.88194,-4.09 -29.06222,-12.2707 C 196.08947,1515.5485 192,1505.8608 192,1494.6666 V 585.33333 c 0,-11.19423 4.08947,-20.88174 12.27112,-29.06251 C 212.4514,548.09006 222.13926,544 233.33334,544 h 909.33326 c 11.1941,0 20.882,4.09006 29.0623,12.27082 8.1816,8.18077 12.2711,17.86828 12.2711,29.06251 z"
       inkscape:connector-curvature="0" /></g></svg>