<?xml version="1.0" encoding="UTF-8" standalone="no"?>
<svg
   xmlns:dc="http://purl.org/dc/elements/1.1/"
   xmlns:cc="http://creativecommons.org/ns#"
   xmlns:rdf="http://www.w3.org/1999/02/22-rdf-syntax-ns#"
   xmlns:svg="http://www.w3.org/2000/svg"
   xmlns="http://www.w3.org/2000/svg"
   xmlns:sodipodi="http://sodipodi.sourceforge.net/DTD/sodipodi-0.dtd"
   xmlns:inkscape="http://www.inkscape.org/namespaces/inkscape"
   inkscape:version="1.0 (b51213c273, 2020-08-10)"
   sodipodi:docname="cell_curse.svg"
   zoomAndPan="magnify"
   xml:space="preserve"
   width="64"
   viewBox="0 0 64 64"
   version="1.1"
   preserveAspectRatio="xMidYMid meet"
   id="Layer_1"
   height="64"
   enable-background="new 0 0 64 64"
   contentStyleType="text/css"
   contentScriptType="text/ecmascript"><metadata
     id="metadata9"><rdf:RDF><cc:Work
         rdf:about=""><dc:format>image/svg+xml</dc:format><dc:type
           rdf:resource="http://purl.org/dc/dcmitype/StillImage" /><dc:title /></cc:Work></rdf:RDF></metadata><defs
     id="defs7" /><sodipodi:namedview
     inkscape:document-rotation="0"
     inkscape:current-layer="Layer_1"
     inkscape:window-maximized="1"
     inkscape:window-y="0"
     inkscape:window-x="0"
     inkscape:cy="32.775504"
     inkscape:cx="11.146056"
     inkscape:zoom="5.2149125"
     showgrid="false"
     id="namedview5"
     inkscape:window-height="1137"
     inkscape:window-width="1920"
     inkscape:pageshadow="2"
     inkscape:pageopacity="0"
     guidetolerance="10"
     gridtolerance="10"
     objecttolerance="10"
     borderopacity="1"
     bordercolor="#666666"
     pagecolor="#ffffff" /><path
     id="path2"
     d="M 49.727272,7.4545453 H 14.272727 c -1.875,0 -3.480128,0.6676281 -4.8153406,2.0028409 C 8.1221733,10.792599 7.4545455,12.397727 7.4545455,14.272727 v 35.454545 c 0,1.875 0.6676278,3.480128 2.0028409,4.81534 1.3352126,1.335216 2.9403406,2.002841 4.8153406,2.002841 h 35.454545 c 1.875,0 3.480128,-0.667625 4.81534,-2.002841 1.335216,-1.335212 2.002841,-2.94034 2.002841,-4.81534 V 14.272727 c 0,-1.875 -0.667625,-3.480128 -2.002841,-4.8153408 C 53.2074,8.1221734 51.602272,7.4545453 49.727272,7.4545453 Z M 62,14.272727 v 35.454545 c 0,3.380669 -1.200297,6.271322 -3.600853,8.671875 C 55.998594,60.799703 53.107941,62 49.727272,62 H 14.272727 C 10.89206,62 8.0014063,60.799703 5.6008522,58.399147 3.2002984,55.998594 2,53.107941 2,49.727272 V 14.272727 C 2,10.89206 3.2002984,8.0014062 5.6008522,5.6008522 8.0014063,3.2002984 10.89206,2 14.272727,2 h 35.454545 c 3.380669,0 6.271322,1.2002984 8.671875,3.6008522 C 60.799703,8.0014063 62,10.89206 62,14.272727 Z"
     style="fill:#000000;stroke-width:0.0426137"
     inkscape:connector-curvature="0" /><path
     style="fill:#d40000;stroke-width:0.0201823"
     id="path2-3"
     d="m 47,18.291667 v 28.416664 c 0,0.349819 -0.127797,0.65256 -0.383472,0.90821 C 46.360894,47.872187 46.058147,48 45.708331,48 H 17.291667 C 16.941852,48 16.639106,47.872188 16.383472,47.616541 16.127796,47.360891 16,47.05815 16,46.708331 V 18.291667 c 0,-0.34982 0.127796,-0.652555 0.383472,-0.908204 C 16.639106,17.127814 16.941852,17 17.291667,17 h 28.416664 c 0.349816,0 0.652563,0.127814 0.908197,0.383463 C 46.872203,17.639112 47,17.941847 47,18.291667 Z"
     inkscape:connector-curvature="0" /></svg>
