<?xml version="1.0" encoding="UTF-8" standalone="no"?>
<svg
   xmlns:dc="http://purl.org/dc/elements/1.1/"
   xmlns:cc="http://creativecommons.org/ns#"
   xmlns:rdf="http://www.w3.org/1999/02/22-rdf-syntax-ns#"
   xmlns:svg="http://www.w3.org/2000/svg"
   xmlns="http://www.w3.org/2000/svg"
   xmlns:sodipodi="http://sodipodi.sourceforge.net/DTD/sodipodi-0.dtd"
   xmlns:inkscape="http://www.inkscape.org/namespaces/inkscape"
   inkscape:version="0.92.5 (2060ec1f9f, 2020-04-08)"
   sodipodi:docname="cell_monitor.svg"
   zoomAndPan="magnify"
   xml:space="preserve"
   width="64"
   version="1.1"
   preserveAspectRatio="xMidYMid meet"
   id="Layer_1"
   height="64"
   contentStyleType="text/css"
   contentScriptType="text/ecmascript"><metadata
     id="metadata9"><rdf:RDF><cc:Work
         rdf:about=""><dc:format>image/svg+xml</dc:format><dc:type
           rdf:resource="http://purl.org/dc/dcmitype/StillImage" /><dc:title /></cc:Work></rdf:RDF></metadata><defs
     id="defs7" /><sodipodi:namedview
     inkscape:current-layer="Layer_1"
     inkscape:window-maximized="1"
     inkscape:window-y="0"
     inkscape:window-x="0"
     inkscape:cy="36.162375"
     inkscape:cx="3.1456336"
     inkscape:zoom="6.5234375"
     showgrid="false"
     id="namedview5"
     inkscape:window-height="1001"
     inkscape:window-width="1920"
     inkscape:pageshadow="2"
     inkscape:pageopacity="0"
     guidetolerance="10"
     gridtolerance="10"
     objecttolerance="10"
     borderopacity="1"
     bordercolor="#666666"
     pagecolor="#ffffff"
     inkscape:document-rotation="0" /><rect
     style="opacity:1;fill:#e6e6e6;stroke:none;stroke-width:1.00213349"
     id="rect3710"
     width="64"
     height="64.00016"
     x="0"
     y="-0.00016021729" /><path
     d="M 58,37.769231 V 7.7692308 C 58,7.4567187 57.90103,7.1862861 57.703125,6.9579327 57.505219,6.7295793 57.270844,6.6153846 57,6.6153846 H 7 c -0.2708438,0 -0.5052188,0.1141947 -0.703125,0.3425481 C 6.0989687,7.1862861 6,7.4567187 6,7.7692308 V 37.769231 c 0,0.312512 0.098969,0.582944 0.296875,0.811298 C 6.4947812,38.808882 6.7291562,38.923077 7,38.923077 h 50 c 0.270844,0 0.505219,-0.114195 0.703125,-0.342548 C 57.901031,38.352175 58,38.081743 58,37.769231 Z M 62,7.7692308 V 47 c 0,1.586538 -0.489594,2.944724 -1.46875,4.074519 C 59.552094,52.204315 58.375,52.769231 57,52.769231 H 40 c 0,0.889435 0.166656,1.820913 0.5,2.794471 0.333344,0.973558 0.666656,1.826935 1,2.560096 0.333344,0.733161 0.5,1.255998 0.5,1.56851 0,0.624988 -0.197906,1.165853 -0.59375,1.622596 C 41.010406,61.771647 40.541656,62 40,62 H 24 C 23.458344,62 22.989594,61.771647 22.59375,61.314904 22.197906,60.858161 22,60.317296 22,59.692308 c 0,-0.336527 0.166656,-0.865385 0.5,-1.586539 0.333344,-0.721154 0.666656,-1.562488 1,-2.524038 0.333344,-0.961551 0.5,-1.899051 0.5,-2.8125 H 7 c -1.375,0 -2.5520938,-0.564916 -3.53125,-1.694712 C 2.4895938,49.944724 2,48.586538 2,47 V 7.7692308 C 2,6.1826923 2.4895938,4.8245072 3.46875,3.6947115 4.4479062,2.5649159 5.625,2 7,2 h 50 c 1.375,0 2.552094,0.5649159 3.53125,1.6947115 C 61.510406,4.8245072 62,6.1826923 62,7.7692308 Z"
     id="path2"
     style="fill:#000000;stroke-width:0.0335679" /><path
     d="m 44,12 v 22 c 0,0.270829 -0.09895,0.505204 -0.296875,0.703125 C 43.505204,34.901046 43.270829,35 43,35 H 21 C 20.729172,35 20.494797,34.901046 20.296875,34.703125 20.098953,34.505204 20,34.270829 20,34 V 12 c 0,-0.270829 0.09895,-0.505204 0.296875,-0.703125 C 20.494797,11.098952 20.729172,11 21,11 h 22 c 0.270829,0 0.505204,0.09895 0.703125,0.296875 C 43.901046,11.494796 44,11.729171 44,12 Z"
     id="path2-36"
     inkscape:connector-curvature="0"
     style="fill:#000000;stroke-width:0.015625" /></svg>