<?xml version="1.0" encoding="UTF-8" standalone="no"?>
<svg
   xmlns:dc="http://purl.org/dc/elements/1.1/"
   xmlns:cc="http://creativecommons.org/ns#"
   xmlns:rdf="http://www.w3.org/1999/02/22-rdf-syntax-ns#"
   xmlns:svg="http://www.w3.org/2000/svg"
   xmlns="http://www.w3.org/2000/svg"
   xmlns:sodipodi="http://sodipodi.sourceforge.net/DTD/sodipodi-0.dtd"
   xmlns:inkscape="http://www.inkscape.org/namespaces/inkscape"
   inkscape:version="0.92.5 (2060ec1f9f, 2020-04-08)"
   sodipodi:docname="cells.svg"
   id="svg4"
   version="1.1"
   width="64"
   height="64">
  <metadata
     id="metadata10">
    <rdf:RDF>
      <cc:Work
         rdf:about="">
        <dc:format>image/svg+xml</dc:format>
        <dc:type
           rdf:resource="http://purl.org/dc/dcmitype/StillImage" />
      </cc:Work>
    </rdf:RDF>
  </metadata>
  <defs
     id="defs8" />
  <sodipodi:namedview
     inkscape:current-layer="svg4"
     inkscape:window-maximized="0"
     inkscape:window-y="15"
     inkscape:window-x="396"
     inkscape:cy="39.460776"
     inkscape:cx="61.191653"
     inkscape:zoom="5.6071428"
     showgrid="false"
     id="namedview6"
     inkscape:window-height="899"
     inkscape:window-width="1258"
     inkscape:pageshadow="2"
     inkscape:pageopacity="0"
     guidetolerance="10"
     gridtolerance="10"
     objecttolerance="10"
     borderopacity="1"
     bordercolor="#666666"
     pagecolor="#ffffff" />
  <rect
     style="opacity:1;fill:#e6e6e6;stroke:none;stroke-width:1.00213349"
     id="rect3710"
     width="64"
     height="64.00016"
     x="0"
     y="-0.00016021729" />
  <path
     style="fill:#000000;stroke-width:0.0390624"
     id="path2"
     d="M 59.5,50.75 V 32 H 32 V 4.5 H 13.25 Q 9.6171875,4.5 7.0585937,7.0585937 4.5,9.6171875 4.5,13.25 V 32 H 32 v 27.5 h 18.75 q 3.632812,0 6.191406,-2.558594 Q 59.5,54.382812 59.5,50.75 Z M 62,13.25 v 37.5 q 0,4.648437 -3.300781,7.949219 Q 55.398437,62 50.75,62 H 13.25 Q 8.6015625,62 5.3007812,58.699219 2,55.398437 2,50.75 V 13.25 Q 2,8.6015625 5.3007812,5.3007812 8.6015625,2 13.25,2 h 37.5 Q 55.398437,2 58.699219,5.3007812 62,8.6015625 62,13.25 Z" />
</svg>
