<?xml version="1.0" encoding="UTF-8" standalone="no"?>
<svg
   xmlns:dc="http://purl.org/dc/elements/1.1/"
   xmlns:cc="http://creativecommons.org/ns#"
   xmlns:rdf="http://www.w3.org/1999/02/22-rdf-syntax-ns#"
   xmlns:svg="http://www.w3.org/2000/svg"
   xmlns="http://www.w3.org/2000/svg"
   xmlns:sodipodi="http://sodipodi.sourceforge.net/DTD/sodipodi-0.dtd"
   xmlns:inkscape="http://www.inkscape.org/namespaces/inkscape"
   contentScriptType="text/ecmascript"
   contentStyleType="text/css"
   height="100%"
   id="Layer_1"
   preserveAspectRatio="xMidYMid meet"
   version="1.1"
   viewBox="0 0 64 64"
   width="100%"
   xml:space="preserve"
   zoomAndPan="magnify"
   sodipodi:docname="check.svg"
   inkscape:version="0.92.4 (unknown)"><metadata
     id="metadata9"><rdf:RDF><cc:Work
         rdf:about=""><dc:format>image/svg+xml</dc:format><dc:type
           rdf:resource="http://purl.org/dc/dcmitype/StillImage" /></cc:Work></rdf:RDF></metadata><defs
     id="defs7" /><sodipodi:namedview
     pagecolor="#ffffff"
     bordercolor="#666666"
     borderopacity="1"
     objecttolerance="10"
     gridtolerance="10"
     guidetolerance="10"
     inkscape:pageopacity="0"
     inkscape:pageshadow="2"
     inkscape:window-width="1920"
     inkscape:window-height="1010"
     id="namedview5"
     showgrid="false"
     inkscape:zoom="7.375"
     inkscape:cx="11.182546"
     inkscape:cy="46.665845"
     inkscape:window-x="0"
     inkscape:window-y="0"
     inkscape:window-maximized="1"
     inkscape:current-layer="Layer_1" /><path
     d="m 52.799759,36.480113 v 11.292614 c 0,2.817223 -1.016247,5.226101 -3.048707,7.226563 C 47.718593,56.999752 45.271185,58 42.4089,58 H 12.39086 C 9.5285749,58 7.0811666,56.999752 5.0487072,54.99929 3.0162477,52.998828 2,50.58995 2,47.772727 V 18.227272 C 2,15.41005 3.0162477,13.001172 5.0487072,11.00071 7.0811666,9.000249 9.5285749,8 12.39086,8 H 42.4089 c 1.515333,0 2.922429,0.295916 4.221286,0.887784 0.360794,0.165732 0.57727,0.437962 0.649429,0.816761 0.07216,0.402451 -0.03608,0.745739 -0.324714,1.02983 l -1.76789,1.740057 c -0.240541,0.236754 -0.517125,0.355113 -0.829825,0.355113 -0.07216,0 -0.180397,-0.02369 -0.324715,-0.07102 -0.553205,-0.142048 -1.094395,-0.21307 -1.623571,-0.21307 H 12.39086 c -1.587493,0 -2.9464944,0.556356 -4.0769694,1.669034 C 7.1834155,15.327166 6.61816,16.664772 6.61816,18.227272 v 29.545455 c 0,1.5625 0.5652555,2.900107 1.6957306,4.012785 1.130475,1.112677 2.4894764,1.669034 4.0769694,1.669034 H 42.4089 c 1.587492,0 2.946494,-0.556357 4.076969,-1.669034 1.130475,-1.112678 1.695731,-2.450285 1.695731,-4.012785 v -9.019886 c 0,-0.307777 0.108238,-0.568182 0.324714,-0.78125 l 2.30908,-2.272728 c 0.240541,-0.236754 0.517126,-0.355113 0.829825,-0.355113 0.144318,0 0.288635,0.03551 0.432953,0.106534 0.481046,0.189382 0.721587,0.53267 0.721587,1.029829 z m 8.334336,-17.365056 -29.368611,28.90625 c -0.57727,0.568181 -1.262778,0.852272 -2.056524,0.852272 -0.793747,0 -1.479255,-0.284091 -2.056525,-0.852272 L 12.138304,32.751421 c -0.57727,-0.568183 -0.865905,-1.242899 -0.865905,-2.024149 0,-0.78125 0.288635,-1.455965 0.865905,-2.024147 l 3.968731,-3.90625 c 0.57727,-0.568182 1.262779,-0.852273 2.056525,-0.852273 0.793746,0 1.479254,0.284091 2.056524,0.852273 l 9.488876,9.339488 23.343355,-22.975852 c 0.57727,-0.568181 1.262778,-0.852272 2.056524,-0.852272 0.793747,0 1.479255,0.284091 2.056525,0.852272 l 3.968731,3.906251 C 61.711365,15.634943 62,16.309659 62,17.090909 c 0,0.78125 -0.288635,1.455966 -0.865905,2.024148 z"
     id="path2"
     inkscape:connector-curvature="0"
     style="stroke-width:0.03579424" /></svg>