<?xml version="1.0" encoding="UTF-8" standalone="no"?>
<svg
   xmlns:dc="http://purl.org/dc/elements/1.1/"
   xmlns:cc="http://creativecommons.org/ns#"
   xmlns:rdf="http://www.w3.org/1999/02/22-rdf-syntax-ns#"
   xmlns:svg="http://www.w3.org/2000/svg"
   xmlns="http://www.w3.org/2000/svg"
   xmlns:sodipodi="http://sodipodi.sourceforge.net/DTD/sodipodi-0.dtd"
   xmlns:inkscape="http://www.inkscape.org/namespaces/inkscape"
   contentScriptType="text/ecmascript"
   contentStyleType="text/css"
   height="64"
   id="Layer_1"
   preserveAspectRatio="xMidYMid meet"
   version="1.1"
   width="64"
   xml:space="preserve"
   zoomAndPan="magnify"
   sodipodi:docname="circle.svg"
   inkscape:version="1.0.1 (1.0.1+r73)"><metadata
     id="metadata9"><rdf:RDF><cc:Work
         rdf:about=""><dc:format>image/svg+xml</dc:format><dc:type
           rdf:resource="http://purl.org/dc/dcmitype/StillImage" /><dc:title></dc:title></cc:Work></rdf:RDF></metadata><defs
     id="defs7" /><sodipodi:namedview
     pagecolor="#ffffff"
     bordercolor="#666666"
     borderopacity="1"
     objecttolerance="10"
     gridtolerance="10"
     guidetolerance="10"
     inkscape:pageopacity="0"
     inkscape:pageshadow="2"
     inkscape:window-width="1920"
     inkscape:window-height="1007"
     id="namedview5"
     showgrid="false"
     inkscape:zoom="9.2255338"
     inkscape:cx="8.6509502"
     inkscape:cy="38.963782"
     inkscape:window-x="0"
     inkscape:window-y="0"
     inkscape:window-maximized="1"
     inkscape:current-layer="Layer_1" /><path
     d="m 32,10.75 c -3.85418,0 -7.408867,0.950508 -10.664063,2.851563 -3.255195,1.901054 -5.83332,4.479179 -7.734374,7.734374 C 11.700508,24.591133 10.75,28.14582 10.75,32 c 0,3.85418 0.950508,7.408867 2.851563,10.664062 1.901054,3.255196 4.479179,5.833321 7.734374,7.734375 C 24.591133,52.299492 28.14582,53.25 32,53.25 c 3.85418,0 7.408867,-0.950508 10.664062,-2.851563 3.255196,-1.901054 5.833321,-4.479179 7.734375,-7.734375 C 52.299492,39.408867 53.25,35.85418 53.25,32 53.25,28.14582 52.299492,24.591133 50.398437,21.335937 48.497383,18.080742 45.919258,15.502617 42.664062,13.601563 39.408867,11.700508 35.85418,10.75 32,10.75 Z M 62,32 c 0,5.442695 -1.341133,10.462227 -4.023438,15.058594 -2.682304,4.596367 -6.321601,8.235664 -10.917968,10.917968 C 42.462227,60.658867 37.442695,62 32,62 26.557305,62 21.537773,60.658867 16.941406,57.976562 12.345039,55.294258 8.7057422,51.654961 6.0234375,47.058594 3.3411328,42.462227 2,37.442695 2,32 2,26.557305 3.3411328,21.537773 6.0234375,16.941406 8.7057422,12.345039 12.345039,8.7057422 16.941406,6.0234375 21.537773,3.3411328 26.557305,2 32,2 37.442695,2 42.462227,3.3411328 47.058594,6.0234375 51.654961,8.7057422 55.294258,12.345039 57.976562,16.941406 60.658867,21.537773 62,26.557305 62,32 Z"
     id="path2"
     style="fill:#000000;stroke-width:0.0390624" /></svg>
