<?xml version="1.0" encoding="UTF-8" standalone="no"?>
<svg
   xmlns:dc="http://purl.org/dc/elements/1.1/"
   xmlns:cc="http://creativecommons.org/ns#"
   xmlns:rdf="http://www.w3.org/1999/02/22-rdf-syntax-ns#"
   xmlns:svg="http://www.w3.org/2000/svg"
   xmlns="http://www.w3.org/2000/svg"
   xmlns:sodipodi="http://sodipodi.sourceforge.net/DTD/sodipodi-0.dtd"
   xmlns:inkscape="http://www.inkscape.org/namespaces/inkscape"
   contentScriptType="text/ecmascript"
   contentStyleType="text/css"
   height="64"
   id="Layer_1"
   preserveAspectRatio="xMidYMid meet"
   version="1.1"
   width="64"
   xml:space="preserve"
   zoomAndPan="magnify"
   sodipodi:docname="circle_dot.svg"
   inkscape:version="0.92.5 (2060ec1f9f, 2020-04-08)"><metadata
     id="metadata9"><rdf:RDF><cc:Work
         rdf:about=""><dc:format>image/svg+xml</dc:format><dc:type
           rdf:resource="http://purl.org/dc/dcmitype/StillImage" /><dc:title /></cc:Work></rdf:RDF></metadata><defs
     id="defs7" /><sodipodi:namedview
     pagecolor="#ffffff"
     bordercolor="#666666"
     borderopacity="1"
     objecttolerance="10"
     gridtolerance="10"
     guidetolerance="10"
     inkscape:pageopacity="0"
     inkscape:pageshadow="2"
     inkscape:window-width="1920"
     inkscape:window-height="1001"
     id="namedview5"
     showgrid="false"
     inkscape:zoom="6.5234375"
     inkscape:cx="34.621378"
     inkscape:cy="39.817931"
     inkscape:window-x="0"
     inkscape:window-y="0"
     inkscape:window-maximized="1"
     inkscape:current-layer="Layer_1" /><rect
     style="opacity:1;fill:#e6e6e6;stroke:none;stroke-width:1.00213349"
     id="rect3710"
     width="64"
     height="64.00016"
     x="0"
     y="-0.00016021729" /><path
     d="m 42,32 c 0,2.760429 -0.976563,5.117187 -2.929687,7.070313 C 37.117187,41.023438 34.760429,42 32,42 29.239571,42 26.882813,41.023438 24.929687,39.070313 22.976562,37.117187 22,34.760429 22,32 22,29.239571 22.976562,26.882813 24.929687,24.929687 26.882813,22.976562 29.239571,22 32,22 c 2.760429,0 5.117187,0.976562 7.070313,2.929687 C 41.023438,26.882813 42,29.239571 42,32 Z M 32,10.75 c -3.85418,0 -7.408868,0.950508 -10.664063,2.851563 -3.255195,1.901054 -5.83332,4.479179 -7.734374,7.734374 C 11.700508,24.591132 10.75,28.14582 10.75,32 c 0,3.85418 0.950508,7.408867 2.851563,10.664062 1.901054,3.255195 4.479179,5.83332 7.734374,7.734375 C 24.591132,52.299492 28.14582,53.25 32,53.25 c 3.85418,0 7.408867,-0.950508 10.664062,-2.851563 3.255195,-1.901055 5.83332,-4.47918 7.734375,-7.734375 C 52.299492,39.408867 53.25,35.85418 53.25,32 c 0,-3.85418 -0.950508,-7.408868 -2.851563,-10.664063 -1.901055,-3.255195 -4.47918,-5.83332 -7.734375,-7.734374 C 39.408867,11.700508 35.85418,10.75 32,10.75 Z M 62,32 c 0,5.442696 -1.341133,10.462226 -4.023438,15.058594 -2.682305,4.596367 -6.321601,8.235663 -10.917968,10.917968 C 42.462226,60.658867 37.442696,62 32,62 26.557304,62 21.537774,60.658867 16.941406,57.976562 12.345039,55.294257 8.7057422,51.654961 6.0234375,47.058594 3.3411328,42.462226 2,37.442696 2,32 2,26.557304 3.3411328,21.537774 6.0234375,16.941406 8.7057422,12.345039 12.345039,8.7057422 16.941406,6.0234375 21.537774,3.3411328 26.557304,2 32,2 37.442696,2 42.462226,3.3411328 47.058594,6.0234375 51.654961,8.7057422 55.294257,12.345039 57.976562,16.941406 60.658867,21.537774 62,26.557304 62,32 Z"
     id="path2"
     style="stroke-width:0.0390624;fill:#000000" /></svg>