<?xml version="1.0" encoding="UTF-8" standalone="no"?>
<svg
   xmlns:dc="http://purl.org/dc/elements/1.1/"
   xmlns:cc="http://creativecommons.org/ns#"
   xmlns:rdf="http://www.w3.org/1999/02/22-rdf-syntax-ns#"
   xmlns:svg="http://www.w3.org/2000/svg"
   xmlns="http://www.w3.org/2000/svg"
   xmlns:sodipodi="http://sodipodi.sourceforge.net/DTD/sodipodi-0.dtd"
   xmlns:inkscape="http://www.inkscape.org/namespaces/inkscape"
   height="64"
   width="64"
   version="1.1"
   id="svg4"
   sodipodi:docname="copy.svg"
   inkscape:version="0.92.3 (2405546, 2018-03-11)">
  <metadata
     id="metadata10">
    <rdf:RDF>
      <cc:Work
         rdf:about="">
        <dc:format>image/svg+xml</dc:format>
        <dc:type
           rdf:resource="http://purl.org/dc/dcmitype/StillImage" />
      </cc:Work>
    </rdf:RDF>
  </metadata>
  <defs
     id="defs8" />
  <sodipodi:namedview
     pagecolor="#ffffff"
     bordercolor="#666666"
     borderopacity="1"
     objecttolerance="10"
     gridtolerance="10"
     guidetolerance="10"
     inkscape:pageopacity="0"
     inkscape:pageshadow="2"
     inkscape:window-width="1920"
     inkscape:window-height="1007"
     id="namedview6"
     showgrid="false"
     inkscape:zoom="8.4285714"
     inkscape:cx="43.233863"
     inkscape:cy="23.60577"
     inkscape:window-x="0"
     inkscape:window-y="0"
     inkscape:window-maximized="1"
     inkscape:current-layer="svg4" />
  <g
     id="g15"
     style="fill:#000000">
    <path
       style="stroke-width:0.03348214;fill:#000000"
       inkscape:connector-curvature="0"
       id="path2"
       d="M 57.714286,56.642857 V 20.214286 q 0,-0.435268 -0.318081,-0.753348 -0.31808,-0.318081 -0.753348,-0.318081 H 20.214286 q -0.435268,0 -0.753349,0.318081 -0.31808,0.31808 -0.31808,0.753348 v 36.428571 q 0,0.435268 0.31808,0.753348 0.318081,0.318081 0.753349,0.318081 h 36.428571 q 0.435268,0 0.753348,-0.318081 0.318081,-0.31808 0.318081,-0.753348 z M 62,20.214286 v 36.428571 q 0,2.209822 -1.573661,3.783482 Q 58.852679,62 56.642857,62 H 20.214286 q -2.209822,0 -3.783482,-1.573661 -1.573661,-1.57366 -1.573661,-3.783482 V 20.214286 q 0,-2.209822 1.573661,-3.783482 1.57366,-1.573661 3.783482,-1.573661 h 36.428571 q 2.209822,0 3.783482,1.573661 Q 62,18.004464 62,20.214286 Z M 49.142857,7.3571429 V 12.714286 H 44.857143 V 7.3571429 q 0,-0.4352679 -0.318081,-0.7533483 -0.31808,-0.3180803 -0.753348,-0.3180803 H 7.3571429 q -0.4352679,0 -0.7533483,0.3180803 Q 6.2857143,6.921875 6.2857143,7.3571429 V 43.785714 q 0,0.435268 0.3180803,0.753348 0.3180804,0.318081 0.7533483,0.318081 h 5.3571431 v 4.285714 H 7.3571429 q -2.2098215,0 -3.7834822,-1.573661 Q 2,45.995536 2,43.785714 V 7.3571429 Q 2,5.1473214 3.5736607,3.5736607 5.1473214,2 7.3571429,2 H 43.785714 q 2.209822,0 3.783482,1.5736607 1.573661,1.5736607 1.573661,3.7834822 z" />
    <path
       style="stroke-width:0.0197739;fill:#000000"
       id="path2-3"
       d="m 53,30.68686 q 0,0.8081 -0.541937,1.37375 L 38.445161,46.68687 35.812906,49.43434 Q 35.270969,50 34.496772,50 33.722581,50 33.180644,49.43434 L 30.548388,46.68687 23.541937,39.37374 Q 23,38.80808 23,38 q 0,-0.80808 0.541937,-1.37374 l 2.632256,-2.74747 q 0.541937,-0.56565 1.316129,-0.56565 0.774196,0 1.316128,0.56565 l 5.690322,5.9596 L 47.19355,26.56566 Q 47.735482,26 48.509678,26 q 0.774192,0 1.316129,0.56566 l 2.632256,2.74747 Q 53,29.87878 53,30.68686 Z"
       inkscape:connector-curvature="0" />
  </g>
</svg>
