<?xml version="1.0" encoding="UTF-8" standalone="no"?>
<svg
   xmlns:dc="http://purl.org/dc/elements/1.1/"
   xmlns:cc="http://creativecommons.org/ns#"
   xmlns:rdf="http://www.w3.org/1999/02/22-rdf-syntax-ns#"
   xmlns:svg="http://www.w3.org/2000/svg"
   xmlns="http://www.w3.org/2000/svg"
   xmlns:sodipodi="http://sodipodi.sourceforge.net/DTD/sodipodi-0.dtd"
   xmlns:inkscape="http://www.inkscape.org/namespaces/inkscape"
   height="64"
   width="64"
   version="1.1"
   id="svg4"
   sodipodi:docname="cut.svg"
   inkscape:version="0.92.5 (2060ec1f9f, 2020-04-08)">
  <metadata
     id="metadata10">
    <rdf:RDF>
      <cc:Work
         rdf:about="">
        <dc:format>image/svg+xml</dc:format>
        <dc:type
           rdf:resource="http://purl.org/dc/dcmitype/StillImage" />
      </cc:Work>
    </rdf:RDF>
  </metadata>
  <defs
     id="defs8" />
  <sodipodi:namedview
     pagecolor="#ffffff"
     bordercolor="#666666"
     borderopacity="1"
     objecttolerance="10"
     gridtolerance="10"
     guidetolerance="10"
     inkscape:pageopacity="0"
     inkscape:pageshadow="2"
     inkscape:window-width="1920"
     inkscape:window-height="1001"
     id="namedview6"
     showgrid="false"
     inkscape:zoom="3.9648487"
     inkscape:cx="67.571556"
     inkscape:cy="69.484553"
     inkscape:window-x="0"
     inkscape:window-y="0"
     inkscape:window-maximized="1"
     inkscape:current-layer="svg4" />
  <path
     d="M 52,33.25 V 14.5 Q 52,13.484375 51.257812,12.742188 50.515625,12 49.5,12 H 30.75 q -1.640625,0 -2.304688,1.523438 -0.664062,1.601562 0.546875,2.734374 l 5.625,5.625 -20.859374,20.859375 Q 13.015625,43.484375 13.015625,44.5 q 0,1.015625 0.742188,1.757812 l 3.984374,3.984375 q 0.742188,0.742188 1.757813,0.742188 1.015625,0 1.757812,-0.742188 l 20.859375,-20.859375 5.625,5.625 Q 48.445312,35.75 49.5,35.75 q 0.46875,0 0.976562,-0.195313 Q 52,34.890625 52,33.25 Z m 10,-20 v 37.5 q 0,4.648437 -3.300781,7.949219 Q 55.398437,62 50.75,62 H 13.25 Q 8.6015625,62 5.3007812,58.699219 2,55.398437 2,50.75 V 13.25 Q 2,8.6015625 5.3007812,5.3007812 8.6015625,2 13.25,2 h 37.5 Q 55.398437,2 58.699219,5.3007812 62,8.6015625 62,13.25 Z"
     id="path2"
     style="stroke-width:0.0390624;fill:#000000" />
</svg>
