<?xml version="1.0" encoding="UTF-8" standalone="no"?>
<svg
   xmlns:dc="http://purl.org/dc/elements/1.1/"
   xmlns:cc="http://creativecommons.org/ns#"
   xmlns:rdf="http://www.w3.org/1999/02/22-rdf-syntax-ns#"
   xmlns:svg="http://www.w3.org/2000/svg"
   xmlns="http://www.w3.org/2000/svg"
   xmlns:sodipodi="http://sodipodi.sourceforge.net/DTD/sodipodi-0.dtd"
   xmlns:inkscape="http://www.inkscape.org/namespaces/inkscape"
   contentScriptType="text/ecmascript"
   contentStyleType="text/css"
   height="64"
   id="Layer_1"
   preserveAspectRatio="xMidYMid meet"
   version="1.1"
   width="64"
   xml:space="preserve"
   zoomAndPan="magnify"
   sodipodi:docname="down_arrow.svg"
   inkscape:version="0.92.3 (2405546, 2018-03-11)"><metadata
     id="metadata9"><rdf:RDF><cc:Work
         rdf:about=""><dc:format>image/svg+xml</dc:format><dc:type
           rdf:resource="http://purl.org/dc/dcmitype/StillImage" /></cc:Work></rdf:RDF></metadata><defs
     id="defs7" /><sodipodi:namedview
     pagecolor="#ffffff"
     bordercolor="#666666"
     borderopacity="1"
     objecttolerance="10"
     gridtolerance="10"
     guidetolerance="10"
     inkscape:pageopacity="0"
     inkscape:pageshadow="2"
     inkscape:window-width="1351"
     inkscape:window-height="904"
     id="namedview5"
     showgrid="false"
     inkscape:zoom="5.2149125"
     inkscape:cx="-22.079294"
     inkscape:cy="33.270859"
     inkscape:window-x="375"
     inkscape:window-y="28"
     inkscape:window-maximized="0"
     inkscape:current-layer="Layer_1" /><path
     d="m 62,30.482805 c 0,1.429521 -0.474955,2.643277 -1.424904,3.641268 L 35.504493,60.503034 C 34.503209,61.501025 33.335058,62 32,62 30.639294,62 29.483967,61.501025 28.534018,60.503034 L 3.4634146,34.124073 C 2.4878177,33.153068 2,31.939312 2,30.482805 2,29.053284 2.4878177,27.826015 3.4634146,26.801079 l 2.8498075,-3.03439 c 1.0012837,-0.99799 2.1694352,-1.496965 3.5044929,-1.496965 1.360706,0 2.516033,0.498975 3.465982,1.496965 L 24.605905,35.661497 V 7.1786918 c 0,-1.4025758 0.487818,-2.6163317 1.463415,-3.6412677 C 27.044917,2.5124882 28.200244,2 29.535302,2 h 4.929396 c 1.335058,0 2.490385,0.5124882 3.465982,1.5374241 0.975597,1.024936 1.463415,2.2386919 1.463415,3.6412677 V 35.661497 L 50.716303,23.766689 c 0.949949,-0.99799 2.105276,-1.496965 3.465982,-1.496965 1.335058,0 2.503209,0.498975 3.504493,1.496965 l 2.888318,3.03439 C 61.525045,27.853001 62,29.080229 62,30.482805 Z"
     id="path2"
     inkscape:connector-curvature="0"
     style="stroke-width:0.03947271;fill:#000000" /></svg>