<?xml version="1.0" encoding="UTF-8" standalone="no"?>
<svg
   xmlns:dc="http://purl.org/dc/elements/1.1/"
   xmlns:cc="http://creativecommons.org/ns#"
   xmlns:rdf="http://www.w3.org/1999/02/22-rdf-syntax-ns#"
   xmlns:svg="http://www.w3.org/2000/svg"
   xmlns="http://www.w3.org/2000/svg"
   xmlns:sodipodi="http://sodipodi.sourceforge.net/DTD/sodipodi-0.dtd"
   xmlns:inkscape="http://www.inkscape.org/namespaces/inkscape"
   inkscape:version="0.92.5 (2060ec1f9f, 2020-04-08)"
   sodipodi:docname="edit.svg"
   zoomAndPan="magnify"
   xml:space="preserve"
   width="64"
   version="1.1"
   preserveAspectRatio="xMidYMid meet"
   id="Layer_1"
   height="64"
   contentStyleType="text/css"
   contentScriptType="text/ecmascript"><metadata
     id="metadata9"><rdf:RDF><cc:Work
         rdf:about=""><dc:format>image/svg+xml</dc:format><dc:type
           rdf:resource="http://purl.org/dc/dcmitype/StillImage" /></cc:Work></rdf:RDF></metadata><defs
     id="defs7" /><sodipodi:namedview
     inkscape:current-layer="Layer_1"
     inkscape:window-maximized="1"
     inkscape:window-y="0"
     inkscape:window-x="0"
     inkscape:cy="61.970269"
     inkscape:cx="28.10668"
     inkscape:zoom="6.9384853"
     showgrid="false"
     id="namedview5"
     inkscape:window-height="1001"
     inkscape:window-width="1920"
     inkscape:pageshadow="2"
     inkscape:pageopacity="0"
     guidetolerance="10"
     gridtolerance="10"
     objecttolerance="10"
     borderopacity="1"
     bordercolor="#666666"
     pagecolor="#ffffff" /><rect
     style="opacity:1;fill:#e6e6e6;stroke:none;stroke-width:1.00213349"
     id="rect3710"
     width="64"
     height="64.00016"
     x="0"
     y="-0.00016021729" /><path
     style="fill:#000000;stroke-width:0.039604"
     id="path2"
     d="m 16.376237,56.930693 3.603961,-3.60396 -9.306931,-9.306931 -3.6039601,3.603961 v 4.237624 h 5.0693061 v 5.069306 z M 37.089109,20.178218 c 0,-0.580871 -0.290416,-0.871287 -0.871287,-0.871287 -0.264039,0 -0.488436,0.0924 -0.673268,0.277228 L 14.079207,41.049505 c -0.18483,0.184832 -0.277227,0.409228 -0.277227,0.673267 0,0.580871 0.290416,0.871287 0.871287,0.871287 0.26404,0 0.488436,-0.0924 0.673268,-0.277228 L 36.811881,20.851485 c 0.184832,-0.184832 0.277228,-0.409228 0.277228,-0.673267 z M 34.950495,12.574258 51.425743,29.049505 18.475247,62 H 2 V 45.524753 Z M 62,16.376237 c 0,1.399328 -0.488436,2.587446 -1.465346,3.564357 L 53.960396,26.514852 37.485148,10.039604 44.059406,3.5049505 C 45.009901,2.5016634 46.198019,2 47.623763,2 c 1.399326,0 2.600673,0.5016634 3.60396,1.5049505 l 9.306931,9.2673265 C 61.511564,13.80198 62,15.003287 62,16.376237 Z" /></svg>