<?xml version="1.0" encoding="UTF-8" standalone="no"?>
<svg
   xmlns:dc="http://purl.org/dc/elements/1.1/"
   xmlns:cc="http://creativecommons.org/ns#"
   xmlns:rdf="http://www.w3.org/1999/02/22-rdf-syntax-ns#"
   xmlns:svg="http://www.w3.org/2000/svg"
   xmlns="http://www.w3.org/2000/svg"
   xmlns:sodipodi="http://sodipodi.sourceforge.net/DTD/sodipodi-0.dtd"
   xmlns:inkscape="http://www.inkscape.org/namespaces/inkscape"
   contentScriptType="text/ecmascript"
   contentStyleType="text/css"
   height="64"
   id="Layer_1"
   preserveAspectRatio="xMidYMid meet"
   version="1.1"
   width="64"
   xml:space="preserve"
   zoomAndPan="magnify"
   sodipodi:docname="edit_cell.svg"
   inkscape:version="0.92.5 (2060ec1f9f, 2020-04-08)"><metadata
     id="metadata9"><rdf:RDF><cc:Work
         rdf:about=""><dc:format>image/svg+xml</dc:format><dc:type
           rdf:resource="http://purl.org/dc/dcmitype/StillImage" /><dc:title /></cc:Work></rdf:RDF></metadata><defs
     id="defs7" /><sodipodi:namedview
     pagecolor="#ffffff"
     bordercolor="#666666"
     borderopacity="1"
     objecttolerance="10"
     gridtolerance="10"
     guidetolerance="10"
     inkscape:pageopacity="0"
     inkscape:pageshadow="2"
     inkscape:window-width="1920"
     inkscape:window-height="1001"
     id="namedview5"
     showgrid="false"
     inkscape:zoom="5.6508719"
     inkscape:cx="-0.30429688"
     inkscape:cy="50.392778"
     inkscape:window-x="0"
     inkscape:window-y="0"
     inkscape:window-maximized="1"
     inkscape:current-layer="Layer_1" /><rect
     style="opacity:1;fill:#e6e6e6;stroke:none;stroke-width:1.00213349"
     id="rect3710"
     width="64"
     height="64.00016"
     x="0"
     y="-0.00016021729" /><path
     d="m 31.865471,44 3.901345,-3.954545 -5.112107,-5.181818 -3.901346,3.954545 v 1.909091 h 3.2287 V 44 Z M 46.663677,19.454545 c -0.358755,-0.363648 -0.72871,-0.352261 -1.109865,0.03409 l -11.771301,11.93182 c -0.381154,0.386352 -0.392387,0.761352 -0.03363,1.125 0.358756,0.363648 0.72871,0.352261 1.109865,-0.03409 l 11.771299,-11.93182 c 0.381154,-0.386352 0.392388,-0.761352 0.03363,-1.125 z m 2.690583,20.25 v 6.477273 c 0,2.704534 -0.94732,5.017057 -2.841928,6.937499 C 44.617724,55.039761 42.336312,56 39.668162,56 H 11.686099 C 9.0179485,56 6.7365359,55.039761 4.8419283,53.119317 2.9473206,51.198875 2,48.886352 2,46.181818 V 17.818182 C 2,15.113648 2.9473206,12.801125 4.8419283,10.880683 6.7365359,8.9602387 9.0179485,8 11.686099,8 h 27.982063 c 1.412555,0 2.724214,0.2840796 3.934977,0.8522727 0.336323,0.1591023 0.538117,0.4204433 0.605381,0.784091 0.06727,0.3863523 -0.03363,0.7159093 -0.30269,0.9886363 l -1.647982,1.670455 c -0.313891,0.318171 -0.672646,0.40909 -1.076234,0.272727 -0.515684,-0.136364 -1.020168,-0.204545 -1.513452,-0.204545 H 11.686099 c -1.479821,0 -2.7466483,0.534103 -3.8004487,1.602271 -1.0538006,1.068171 -1.5807176,2.352274 -1.5807176,3.852274 v 28.363636 c 0,1.5 0.526917,2.784103 1.5807176,3.852274 1.0538004,1.068168 2.3206277,1.602271 3.8004487,1.602271 h 27.982063 c 1.47982,0 2.746647,-0.534103 3.800448,-1.602271 1.053801,-1.068171 1.580717,-2.352274 1.580717,-3.852274 v -4.295455 c 0,-0.295466 0.100893,-0.545455 0.302691,-0.75 l 2.152467,-2.181818 c 0.336323,-0.340908 0.72871,-0.420442 1.177129,-0.238637 0.448419,0.181808 0.672646,0.511365 0.672646,0.988637 z m -3.2287,-25.15909 9.686099,9.818182 -22.600897,22.90909 h -9.686098 v -9.818182 z m 14.932737,4.5 -3.094172,3.136363 -9.686098,-9.818181 3.094171,-3.1363643 c 0.627813,-0.6363749 1.390122,-0.9545454 2.286994,-0.9545454 0.896873,0 1.659183,0.3181705 2.286996,0.9545454 l 5.112109,5.1818193 C 61.68611,15.045466 62,15.818171 62,16.727273 c 0,0.909101 -0.31389,1.681806 -0.941703,2.318182 z"
     id="path2"
     style="stroke-width:0.0338609" /></svg>