<?xml version="1.0" encoding="UTF-8" standalone="no"?>
<svg
   xmlns:dc="http://purl.org/dc/elements/1.1/"
   xmlns:cc="http://creativecommons.org/ns#"
   xmlns:rdf="http://www.w3.org/1999/02/22-rdf-syntax-ns#"
   xmlns:svg="http://www.w3.org/2000/svg"
   xmlns="http://www.w3.org/2000/svg"
   xmlns:sodipodi="http://sodipodi.sourceforge.net/DTD/sodipodi-0.dtd"
   xmlns:inkscape="http://www.inkscape.org/namespaces/inkscape"
   inkscape:version="1.0 (6e3e5246a0, 2020-05-07)"
   sodipodi:docname="eye.svg"
   id="svg4"
   version="1.1"
   width="100%"
   viewBox="0 0 64 64"
   height="100%">
  <metadata
     id="metadata10">
    <rdf:RDF>
      <cc:Work
         rdf:about="">
        <dc:format>image/svg+xml</dc:format>
        <dc:type
           rdf:resource="http://purl.org/dc/dcmitype/StillImage" />
      </cc:Work>
    </rdf:RDF>
  </metadata>
  <defs
     id="defs8" />
  <sodipodi:namedview
     inkscape:document-rotation="0"
     inkscape:current-layer="svg4"
     inkscape:window-maximized="1"
     inkscape:window-y="0"
     inkscape:window-x="0"
     inkscape:cy="40.76326"
     inkscape:cx="21.312472"
     inkscape:zoom="8.4285714"
     showgrid="false"
     id="namedview6"
     inkscape:window-height="1137"
     inkscape:window-width="1920"
     inkscape:pageshadow="2"
     inkscape:pageopacity="0"
     guidetolerance="10"
     gridtolerance="10"
     objecttolerance="10"
     borderopacity="1"
     bordercolor="#666666"
     pagecolor="#ffffff" />
  <path
     style="stroke-width:0.03323321;fill:#000000"
     inkscape:connector-curvature="0"
     id="path2"
     d="M 57.714286,33 Q 52.625,25.215278 44.957589,21.355903 47,24.786458 47,28.777778 47,34.880208 42.597098,39.217882 38.194196,43.555556 32,43.555556 q -6.194196,0 -10.597098,-4.337674 Q 17,34.880208 17,28.777778 17,24.786458 19.042411,21.355903 11.375,25.215278 6.2857143,33 10.738839,39.762153 17.452009,43.769965 24.165179,47.777778 32,47.777778 q 7.834821,0 14.547991,-4.007813 Q 53.261161,39.762153 57.714286,33 Z M 33.607143,20.333334 q 0,-0.659723 -0.46875,-1.121528 Q 32.669643,18.75 32,18.75 q -4.185268,0 -7.18192,2.952257 -2.996651,2.952257 -2.996651,7.075521 0,0.659722 0.46875,1.121528 0.46875,0.461805 1.138392,0.461805 0.669643,0 1.138393,-0.461805 0.46875,-0.461806 0.46875,-1.121527 0,-2.836807 2.042411,-4.84896 Q 29.120536,21.916666 32,21.916666 q 0.669643,0 1.138393,-0.461805 0.46875,-0.461805 0.46875,-1.121527 z M 62,33 q 0,1.121529 -0.669643,2.276042 -4.6875,7.586805 -12.606027,12.155382 Q 40.805804,52 32,52 23.194196,52 15.27567,47.414931 7.3571429,42.829861 2.6696429,35.276042 2,34.121529 2,33 2,31.878471 2.6696429,30.723958 7.3571429,23.170139 15.27567,18.585069 23.194196,14 32,14 q 8.805804,0 16.72433,4.585069 7.918527,4.58507 12.606027,12.138889 Q 62,31.878471 62,33 Z" />
</svg>
