<?xml version="1.0" encoding="UTF-8" standalone="no"?>
<svg
   xmlns:dc="http://purl.org/dc/elements/1.1/"
   xmlns:cc="http://creativecommons.org/ns#"
   xmlns:rdf="http://www.w3.org/1999/02/22-rdf-syntax-ns#"
   xmlns:svg="http://www.w3.org/2000/svg"
   xmlns="http://www.w3.org/2000/svg"
   xmlns:sodipodi="http://sodipodi.sourceforge.net/DTD/sodipodi-0.dtd"
   xmlns:inkscape="http://www.inkscape.org/namespaces/inkscape"
   contentScriptType="text/ecmascript"
   contentStyleType="text/css"
   height="100%"
   id="Layer_1"
   preserveAspectRatio="xMidYMid meet"
   version="1.1"
   viewBox="0 0 64 64"
   width="100%"
   xml:space="preserve"
   zoomAndPan="magnify"
   sodipodi:docname="bsch_black.svg"
   inkscape:version="0.92.4 (unknown)"><metadata
     id="metadata9"><rdf:RDF><cc:Work
         rdf:about=""><dc:format>image/svg+xml</dc:format><dc:type
           rdf:resource="http://purl.org/dc/dcmitype/StillImage" /></cc:Work></rdf:RDF></metadata><defs
     id="defs7" /><sodipodi:namedview
     pagecolor="#ffffff"
     bordercolor="#666666"
     borderopacity="1"
     objecttolerance="10"
     gridtolerance="10"
     guidetolerance="10"
     inkscape:pageopacity="0"
     inkscape:pageshadow="2"
     inkscape:window-width="1920"
     inkscape:window-height="1010"
     id="namedview5"
     showgrid="false"
     inkscape:zoom="3.6875"
     inkscape:cx="-53.453635"
     inkscape:cy="41.210988"
     inkscape:window-x="0"
     inkscape:window-y="0"
     inkscape:window-maximized="1"
     inkscape:current-layer="Layer_1" /><path
     d="M 20.461538,55.181818 V 47 c 0,-0.397713 -0.108173,-0.724432 -0.324519,-0.980114 -0.216346,-0.255681 -0.4928,-0.383522 -0.829327,-0.383522 H 7.7692308 c -0.3365265,0 -0.6129808,0.127841 -0.829327,0.383522 C 6.7235577,46.275568 6.6153846,46.602287 6.6153846,47 v 8.181818 c 0,0.397713 0.1081731,0.724432 0.3245192,0.980114 0.2163462,0.255682 0.4928005,0.383523 0.829327,0.383523 H 19.307692 c 0.336527,0 0.612981,-0.127841 0.829327,-0.383523 0.216346,-0.255682 0.324519,-0.582401 0.324519,-0.980114 z m 0,-16.363636 v -8.181818 c 0,-0.397713 -0.108173,-0.724432 -0.324519,-0.980114 -0.216346,-0.255682 -0.4928,-0.383523 -0.829327,-0.383523 H 7.7692308 c -0.3365265,0 -0.6129808,0.127841 -0.829327,0.383523 -0.2163461,0.255682 -0.3245192,0.582401 -0.3245192,0.980114 v 8.181818 c 0,0.397713 0.1081731,0.724432 0.3245192,0.980113 0.2163462,0.255682 0.4928005,0.383523 0.829327,0.383523 H 19.307692 c 0.336527,0 0.612981,-0.127841 0.829327,-0.383523 0.216346,-0.255681 0.324519,-0.5824 0.324519,-0.980113 z M 38.923077,55.181818 V 47 c 0,-0.397713 -0.108173,-0.724432 -0.324519,-0.980114 -0.216346,-0.255681 -0.492801,-0.383522 -0.829327,-0.383522 H 26.230769 c -0.336526,0 -0.612981,0.127841 -0.829327,0.383522 C 25.185096,46.275568 25.076923,46.602287 25.076923,47 v 8.181818 c 0,0.397713 0.108173,0.724432 0.324519,0.980114 0.216346,0.255682 0.492801,0.383523 0.829327,0.383523 h 11.538462 c 0.336526,0 0.612981,-0.127841 0.829327,-0.383523 0.216346,-0.255682 0.324519,-0.582401 0.324519,-0.980114 z M 20.461538,22.454545 v -8.181818 c 0,-0.397713 -0.108173,-0.724432 -0.324519,-0.980113 -0.216346,-0.255682 -0.4928,-0.383523 -0.829327,-0.383523 H 7.7692308 c -0.3365265,0 -0.6129808,0.127841 -0.829327,0.383523 -0.2163461,0.255681 -0.3245192,0.5824 -0.3245192,0.980113 v 8.181818 c 0,0.397714 0.1081731,0.724432 0.3245192,0.980114 0.2163462,0.255682 0.4928005,0.383523 0.829327,0.383523 H 19.307692 c 0.336527,0 0.612981,-0.127841 0.829327,-0.383523 0.216346,-0.255682 0.324519,-0.5824 0.324519,-0.980114 z m 18.461539,16.363637 v -8.181818 c 0,-0.397713 -0.108173,-0.724432 -0.324519,-0.980114 -0.216346,-0.255682 -0.492801,-0.383523 -0.829327,-0.383523 H 26.230769 c -0.336526,0 -0.612981,0.127841 -0.829327,0.383523 -0.216346,0.255682 -0.324519,0.582401 -0.324519,0.980114 v 8.181818 c 0,0.397713 0.108173,0.724432 0.324519,0.980113 0.216346,0.255682 0.492801,0.383523 0.829327,0.383523 h 11.538462 c 0.336526,0 0.612981,-0.127841 0.829327,-0.383523 0.216346,-0.255681 0.324519,-0.5824 0.324519,-0.980113 z M 57.384615,55.181818 V 47 c 0,-0.397713 -0.108173,-0.724432 -0.324519,-0.980114 -0.216346,-0.255681 -0.4928,-0.383522 -0.829327,-0.383522 H 44.692308 c -0.336527,0 -0.612981,0.127841 -0.829327,0.383522 C 43.646635,46.275568 43.538462,46.602287 43.538462,47 v 8.181818 c 0,0.397713 0.108173,0.724432 0.324519,0.980114 0.216346,0.255682 0.4928,0.383523 0.829327,0.383523 h 11.538461 c 0.336527,0 0.612981,-0.127841 0.829327,-0.383523 0.216346,-0.255682 0.324519,-0.582401 0.324519,-0.980114 z M 38.923077,22.454545 v -8.181818 c 0,-0.397713 -0.108173,-0.724432 -0.324519,-0.980113 -0.216346,-0.255682 -0.492801,-0.383523 -0.829327,-0.383523 H 26.230769 c -0.336526,0 -0.612981,0.127841 -0.829327,0.383523 -0.216346,0.255681 -0.324519,0.5824 -0.324519,0.980113 v 8.181818 c 0,0.397714 0.108173,0.724432 0.324519,0.980114 0.216346,0.255682 0.492801,0.383523 0.829327,0.383523 h 11.538462 c 0.336526,0 0.612981,-0.127841 0.829327,-0.383523 0.216346,-0.255682 0.324519,-0.5824 0.324519,-0.980114 z m 18.461538,16.363637 v -8.181818 c 0,-0.397713 -0.108173,-0.724432 -0.324519,-0.980114 -0.216346,-0.255682 -0.4928,-0.383523 -0.829327,-0.383523 H 44.692308 c -0.336527,0 -0.612981,0.127841 -0.829327,0.383523 -0.216346,0.255682 -0.324519,0.582401 -0.324519,0.980114 v 8.181818 c 0,0.397713 0.108173,0.724432 0.324519,0.980113 0.216346,0.255682 0.4928,0.383523 0.829327,0.383523 h 11.538461 c 0.336527,0 0.612981,-0.127841 0.829327,-0.383523 0.216346,-0.255681 0.324519,-0.5824 0.324519,-0.980113 z m 0,-16.363637 v -8.181818 c 0,-0.397713 -0.108173,-0.724432 -0.324519,-0.980113 -0.216346,-0.255682 -0.4928,-0.383523 -0.829327,-0.383523 H 44.692308 c -0.336527,0 -0.612981,0.127841 -0.829327,0.383523 -0.216346,0.255681 -0.324519,0.5824 -0.324519,0.980113 v 8.181818 c 0,0.397714 0.108173,0.724432 0.324519,0.980114 0.216346,0.255682 0.4928,0.383523 0.829327,0.383523 h 11.538461 c 0.336527,0 0.612981,-0.127841 0.829327,-0.383523 0.216346,-0.255682 0.324519,-0.5824 0.324519,-0.980114 z M 62,8.8181818 V 55.181818 c 0,1.875 -0.564916,3.480128 -1.694712,4.815341 C 59.175493,61.332372 57.817308,62 56.230769,62 H 7.7692308 C 6.1826923,62 4.8245072,61.332372 3.6947115,59.997159 2.5649159,58.661946 2,57.056818 2,55.181818 V 8.8181818 C 2,6.9431818 2.5649159,5.338054 3.6947115,4.0028409 4.8245072,2.6676278 6.1826923,2 7.7692308,2 H 56.230769 c 1.586539,0 2.944724,0.6676278 4.074519,2.0028409 C 61.435084,5.338054 62,6.9431818 62,8.8181818 Z"
     id="path2"
     style="fill:#000000;stroke-width:0.03919884"
     inkscape:connector-curvature="0" /></svg>