<?xml version="1.0" encoding="UTF-8" standalone="no"?>
<svg
   xmlns:dc="http://purl.org/dc/elements/1.1/"
   xmlns:cc="http://creativecommons.org/ns#"
   xmlns:rdf="http://www.w3.org/1999/02/22-rdf-syntax-ns#"
   xmlns:svg="http://www.w3.org/2000/svg"
   xmlns="http://www.w3.org/2000/svg"
   xmlns:sodipodi="http://sodipodi.sourceforge.net/DTD/sodipodi-0.dtd"
   xmlns:inkscape="http://www.inkscape.org/namespaces/inkscape"
   contentScriptType="text/ecmascript"
   contentStyleType="text/css"
   height="64"
   id="Layer_1"
   preserveAspectRatio="xMidYMid meet"
   version="1.1"
   width="64"
   xml:space="preserve"
   zoomAndPan="magnify"
   sodipodi:docname="flip_h.svg"
   inkscape:version="0.92.5 (2060ec1f9f, 2020-04-08)"><metadata
     id="metadata9"><rdf:RDF><cc:Work
         rdf:about=""><dc:format>image/svg+xml</dc:format><dc:type
           rdf:resource="http://purl.org/dc/dcmitype/StillImage" /></cc:Work></rdf:RDF></metadata><defs
     id="defs7" /><sodipodi:namedview
     pagecolor="#ffffff"
     bordercolor="#666666"
     borderopacity="1"
     objecttolerance="10"
     gridtolerance="10"
     guidetolerance="10"
     inkscape:pageopacity="0"
     inkscape:pageshadow="2"
     inkscape:window-width="1920"
     inkscape:window-height="1001"
     id="namedview5"
     showgrid="false"
     inkscape:zoom="4.90625"
     inkscape:cx="-63.520029"
     inkscape:cy="24.740962"
     inkscape:window-x="0"
     inkscape:window-y="0"
     inkscape:window-maximized="1"
     inkscape:current-layer="Layer_1" /><rect
     style="opacity:1;fill:#e6e6e6;stroke:none;stroke-width:1.00213349"
     id="rect3710"
     width="64"
     height="64.00016"
     x="0"
     y="-0.00016021729" /><g
     id="g43"
     transform="rotate(90,32,32)"><path
       d="m 31.99999,16 v 32 c 0,4.44448 -0.02651,8.22216 -0.07954,11.33328 C 31.86742,62.44448 31.803026,64 31.727268,64 H 28.272722 C 28.196962,64 28.132571,62.44448 28.07954,59.33328 28.02651,56.22216 28,52.44448 28,48 V 16 C 28,11.55552 28.02651,7.77784 28.07954,4.66672 28.13257,1.55552 28.196963,0 28.272722,0 h 3.454546 c 0.07576,0 0.14015,1.55552 0.193182,4.66672 0.05303,3.11112 0.07954,6.8888 0.07954,11.33328 z"
       id="path2"
       style="stroke-width:0.0217597" /><path
       d="m 57,25 q 0,0.8125 -0.530134,1.40625 l -14.285711,16 Q 41.654021,43 40.928576,43 40.203128,43 39.672995,42.40625 39.142861,41.8125 39.142861,41 v -8 h -6.249999 q -2.734374,0 -4.896764,0.1875 -2.162387,0.1875 -4.296874,0.671875 -2.134484,0.484375 -3.710935,1.328125 -1.576451,0.84375 -2.943639,2.171875 -1.367187,1.328125 -2.232142,3.15625 -0.864954,1.828125 -1.353237,4.328125 -0.488281,2.5 -0.488281,5.65625 0,1.71875 0.139509,3.84375 0,0.1875 0.06975,0.734375 0.06975,0.546875 0.06975,0.828125 0,0.46875 -0.237166,0.78125 Q 12.775668,57 12.357141,57 11.910713,57 11.575892,56.46875 11.380579,56.1875 11.213168,55.78125 11.045758,55.375 10.836494,54.84375 10.627231,54.3125 10.543526,54.09375 7,45.1875 7,40 7,33.78125 8.478793,29.59375 12.998883,17 32.892852,17 h 6.249999 V 9 q 0,-0.8125 0.530134,-1.40625 Q 40.203118,7 40.928566,7 q 0.725445,0 1.255579,0.59375 l 14.285721,16 Q 57,24.1875 57,25 Z"
       id="path2-6"
       style="stroke-width:0.0295285" /></g></svg>