<?xml version="1.0" encoding="UTF-8" standalone="no"?>
<svg
   xmlns:dc="http://purl.org/dc/elements/1.1/"
   xmlns:cc="http://creativecommons.org/ns#"
   xmlns:rdf="http://www.w3.org/1999/02/22-rdf-syntax-ns#"
   xmlns:svg="http://www.w3.org/2000/svg"
   xmlns="http://www.w3.org/2000/svg"
   xmlns:sodipodi="http://sodipodi.sourceforge.net/DTD/sodipodi-0.dtd"
   xmlns:inkscape="http://www.inkscape.org/namespaces/inkscape"
   contentScriptType="text/ecmascript"
   contentStyleType="text/css"
   height="64"
   id="Layer_1"
   preserveAspectRatio="xMidYMid meet"
   version="1.1"
   width="64"
   xml:space="preserve"
   zoomAndPan="magnify"
   sodipodi:docname="flore.svg"
   inkscape:version="0.92.3 (2405546, 2018-03-11)"><metadata
     id="metadata9"><rdf:RDF><cc:Work
         rdf:about=""><dc:format>image/svg+xml</dc:format><dc:type
           rdf:resource="http://purl.org/dc/dcmitype/StillImage" /><dc:title></dc:title></cc:Work></rdf:RDF></metadata><defs
     id="defs7" /><sodipodi:namedview
     pagecolor="#ffffff"
     bordercolor="#666666"
     borderopacity="1"
     objecttolerance="10"
     gridtolerance="10"
     guidetolerance="10"
     inkscape:pageopacity="0"
     inkscape:pageshadow="2"
     inkscape:window-width="1920"
     inkscape:window-height="1099"
     id="namedview5"
     showgrid="false"
     inkscape:zoom="3.6875"
     inkscape:cx="-4.0753091"
     inkscape:cy="46.490454"
     inkscape:window-x="0"
     inkscape:window-y="36"
     inkscape:window-maximized="1"
     inkscape:current-layer="Layer_1" /><path
     d="m 54,38.930804 c -0.66951,1.785703 -1.464585,3.325881 -2.385163,4.620535 -0.92058,1.294654 -1.872574,2.282378 -2.855922,2.96317 -0.983346,0.680792 -2.019009,1.199766 -3.106989,1.55692 -1.087979,0.357154 -2.149787,0.518973 -3.18545,0.485491 -1.035663,-0.03348 -2.045183,-0.128337 -3.028529,-0.284599 -0.983348,-0.156261 -1.888266,-0.401785 -2.714694,-0.736607 -0.826428,-0.334821 -1.553496,-0.641752 -2.181169,-0.920759 -0.627677,-0.279006 -1.108883,-0.530122 -1.443653,-0.753348 l -0.533524,-0.334821 c -2.364232,5.089285 -5.392761,9.101551 -9.085591,12.03683 C 19.786486,60.498895 15.764157,61.977667 11.412268,62 11.01473,62 10.679991,61.854922 10.407989,61.564732 10.135986,61.274542 10,60.917422 10,60.493304 c 0,-0.424119 0.135986,-0.775681 0.407989,-1.054688 0.272002,-0.279007 0.606741,-0.418527 1.004279,-0.418527 3.61958,-0.02233 6.993332,-1.222098 10.121256,-3.59933 3.127923,-2.377232 5.758915,-5.664074 7.89301,-9.860491 -0.753209,0.312489 -1.50642,0.569196 -2.25963,0.770089 -0.753209,0.200893 -1.621503,0.345971 -2.604851,0.435268 -0.983346,0.0893 -1.93534,0.06137 -2.855919,-0.08371 -0.920579,-0.145078 -1.893475,-0.463159 -2.918687,-0.954241 -1.025214,-0.491083 -1.987627,-1.149543 -2.887304,-1.975447 -0.899678,-0.825904 -1.783632,-1.941964 -2.651926,-3.348214 -0.868294,-1.40625 -1.647646,-3.035726 -2.338089,-4.888393 2.385164,-1.049096 4.62386,-1.685257 6.71612,-1.908482 2.09226,-0.223226 3.844508,-0.13952 5.256776,0.251116 1.412269,0.390636 2.714694,1.021205 3.907276,1.891741 1.192581,0.870536 2.118403,1.729922 2.77746,2.578125 0.659058,0.848203 1.250108,1.763404 1.773181,2.745536 1.108882,-2.924096 1.935341,-6.171864 2.479316,-9.743304 -0.146468,0.02233 -0.33477,0.05022 -0.564907,0.08371 -0.230138,0.03348 -0.716585,0.06137 -1.459345,0.08371 -0.742759,0.02233 -1.469794,0.01674 -2.181168,-0.01674 -0.711375,-0.03348 -1.563947,-0.145078 -2.557776,-0.334822 -0.993829,-0.189743 -1.919648,-0.446417 -2.777461,-0.770089 -0.857811,-0.323672 -1.736555,-0.79798 -2.636234,-1.422991 -0.899677,-0.625011 -1.68427,-1.350435 -2.35378,-2.176339 -0.669509,-0.825904 -1.239658,-1.880592 -1.710414,-3.164063 -0.470756,-1.283471 -0.768902,-2.706462 -0.894436,-4.268973 1.464585,-0.625011 2.861162,-1.032355 4.189729,-1.222098 1.328568,-0.189744 2.505458,-0.17856 3.53067,0.03348 1.025214,0.212042 1.987626,0.546864 2.887304,1.004464 0.899679,0.457601 1.66858,1.015614 2.306706,1.674107 0.638124,0.658494 1.223965,1.339286 1.757489,2.042411 0.533523,0.703125 0.972895,1.40625 1.318117,2.109375 0.345221,0.703125 0.632916,1.328136 0.863053,1.875 0.230136,0.546864 0.397537,0.987723 0.502139,1.322545 l 0.125534,0.535714 c 0.251071,-2.723206 0.376607,-4.899545 0.376607,-6.529021 -0.167371,-0.133928 -0.392299,-0.312489 -0.674752,-0.535714 -0.282453,-0.223226 -0.795043,-0.719866 -1.537803,-1.489955 -0.742759,-0.77009 -1.407028,-1.56807 -1.992867,-2.393974 C 29.750821,16.944185 29.185914,15.906239 28.64194,14.65625 28.097965,13.406261 27.752744,12.150681 27.606277,10.889509 27.459809,9.6283371 27.585342,8.2109375 27.982881,6.6372768 28.380419,5.0636161 29.112696,3.517846 30.179743,2 c 1.527353,0.5580469 2.861161,1.2444308 4.001427,2.0591518 1.140265,0.814721 2.024251,1.6685156 2.651926,2.5613839 0.627674,0.8928683 1.129815,1.8415179 1.506418,2.8459822 0.376607,1.0044641 0.591051,1.9977791 0.643367,2.9799111 0.05231,0.982131 0.04708,1.936372 -0.0157,2.862723 -0.06277,0.92635 -0.198754,1.780145 -0.407989,2.561384 -0.209236,0.781239 -0.407989,1.473214 -0.59629,2.075893 -0.188304,0.602678 -0.366156,1.071428 -0.533524,1.40625 l -0.219686,0.502232 c 0.02094,0.111596 0.03138,0.675234 0.03138,1.690848 0,1.015614 -0.01046,1.813627 -0.03138,2.393973 0.06277,-0.156261 0.167369,-0.362712 0.313836,-0.619419 0.146469,-0.256708 0.465515,-0.736608 0.957204,-1.439733 0.49169,-0.703125 1.019972,-1.350435 1.584879,-1.941964 0.564908,-0.591529 1.307667,-1.210949 2.228245,-1.858259 0.92058,-0.64731 1.877783,-1.143984 2.871612,-1.489955 0.993829,-0.345971 2.165478,-0.507824 3.51498,-0.485491 1.3495,0.02233 2.735626,0.290189 4.158345,0.803571 -0.04184,1.741072 -0.266762,3.320324 -0.674751,4.737723 -0.407989,1.4174 -0.931062,2.583717 -1.569187,3.498884 -0.638124,0.915168 -1.365192,1.713181 -2.18117,2.393974 -0.815977,0.680792 -1.668578,1.188616 -2.557774,1.523437 -0.889195,0.334821 -1.77318,0.602679 -2.651926,0.803571 -0.878744,0.200893 -1.715655,0.306931 -2.5107,0.318081 -0.795042,0.01115 -1.501176,0 -2.118402,-0.03348 C 37.957665,32.117187 37.471217,32.066964 37.115544,32 l -0.533523,-0.100446 c -0.481207,3.28125 -1.244898,6.439721 -2.291013,9.475446 0.125535,-0.156261 0.313838,-0.362712 0.564908,-0.61942 0.251069,-0.256707 0.768902,-0.714274 1.553494,-1.372768 0.784595,-0.658493 1.59533,-1.24443 2.432241,-1.757812 0.83691,-0.513382 1.877782,-0.982132 3.122682,-1.40625 1.244898,-0.424118 2.474074,-0.64731 3.687588,-0.669643 1.213515,-0.02233 2.563016,0.239967 4.048503,0.78683 1.485485,0.546864 2.918688,1.411842 4.299571,2.594867 z"
     id="path2"
     inkscape:connector-curvature="0"
     style="stroke-width:0.03241596" /></svg>