<?xml version="1.0" encoding="UTF-8" standalone="no"?>
<svg
   xmlns:dc="http://purl.org/dc/elements/1.1/"
   xmlns:cc="http://creativecommons.org/ns#"
   xmlns:rdf="http://www.w3.org/1999/02/22-rdf-syntax-ns#"
   xmlns:svg="http://www.w3.org/2000/svg"
   xmlns="http://www.w3.org/2000/svg"
   xmlns:sodipodi="http://sodipodi.sourceforge.net/DTD/sodipodi-0.dtd"
   xmlns:inkscape="http://www.inkscape.org/namespaces/inkscape"
   inkscape:version="1.0 (6e3e5246a0, 2020-05-07)"
   sodipodi:docname="info.svg"
   zoomAndPan="magnify"
   xml:space="preserve"
   width="64"
   viewBox="0 0 64 64"
   version="1.1"
   preserveAspectRatio="xMidYMid meet"
   id="Layer_1"
   height="64"
   contentStyleType="text/css"
   contentScriptType="text/ecmascript"><metadata
     id="metadata9"><rdf:RDF><cc:Work
         rdf:about=""><dc:format>image/svg+xml</dc:format><dc:type
           rdf:resource="http://purl.org/dc/dcmitype/StillImage" /></cc:Work></rdf:RDF></metadata><defs
     id="defs7" /><sodipodi:namedview
     inkscape:document-rotation="0"
     inkscape:current-layer="Layer_1"
     inkscape:window-maximized="1"
     inkscape:window-y="0"
     inkscape:window-x="0"
     inkscape:cy="35.701617"
     inkscape:cx="8.4829784"
     inkscape:zoom="5.2149125"
     showgrid="false"
     id="namedview5"
     inkscape:window-height="1137"
     inkscape:window-width="1920"
     inkscape:pageshadow="2"
     inkscape:pageopacity="0"
     guidetolerance="10"
     gridtolerance="10"
     objecttolerance="10"
     borderopacity="1"
     bordercolor="#666666"
     pagecolor="#ffffff" /><g
     id="g13"><circle
       r="32"
       style="fill:#000000"
       id="path11"
       cx="32"
       cy="32" /><path
       d="m 43,52.363637 v 5.090908 c 0,0.689382 -0.217697,1.285972 -0.653121,1.789773 C 41.911446,59.748119 41.395821,60 40.8,60 H 23.2 C 22.604178,60 22.088553,59.748119 21.653125,59.244318 21.217697,58.740517 21,58.143927 21,57.454545 v -5.090908 c 0,-0.689381 0.217697,-1.285972 0.653125,-1.789774 0.435428,-0.503801 0.951053,-0.755681 1.546875,-0.755681 h 2.2 V 34.545455 h -2.2 c -0.595821,0 -1.111447,-0.251882 -1.546875,-0.755682 C 21.217697,33.285972 21,32.689381 21,32 v -5.09091 c 0,-0.689379 0.217697,-1.285971 0.653125,-1.789772 0.435428,-0.503801 0.951053,-0.755681 1.546875,-0.755681 h 13.2 c 0.595819,0 1.111446,0.25188 1.546875,0.755681 C 38.382304,25.623119 38.6,26.219711 38.6,26.90909 v 22.909092 h 2.2 c 0.595819,0 1.111446,0.25188 1.546875,0.755681 C 42.782304,51.077665 43,51.674256 43,52.363637 Z M 38.6,6.5454545 v 7.6363635 c 0,0.689381 -0.217697,1.285971 -0.653121,1.789772 -0.435433,0.503803 -0.951058,0.755683 -1.546879,0.755683 h -8.8 c -0.595821,0 -1.111447,-0.25188 -1.546875,-0.755683 C 25.617697,15.467789 25.4,14.871199 25.4,14.181818 V 6.5454545 C 25.4,5.8560739 25.617697,5.2594829 26.053125,4.7556818 26.488553,4.2518806 27.004178,4 27.6,4 h 8.8 c 0.595821,0 1.111446,0.2518806 1.546875,0.7556818 C 38.382304,5.2594829 38.6,5.8560739 38.6,6.5454545 Z"
       id="path2"
       inkscape:connector-curvature="0"
       style="fill:#ffffff;stroke-width:0.0369755" /></g></svg>
