<?xml version="1.0" encoding="UTF-8" standalone="no"?>
<svg
   xmlns:dc="http://purl.org/dc/elements/1.1/"
   xmlns:cc="http://creativecommons.org/ns#"
   xmlns:rdf="http://www.w3.org/1999/02/22-rdf-syntax-ns#"
   xmlns:svg="http://www.w3.org/2000/svg"
   xmlns="http://www.w3.org/2000/svg"
   xmlns:sodipodi="http://sodipodi.sourceforge.net/DTD/sodipodi-0.dtd"
   xmlns:inkscape="http://www.inkscape.org/namespaces/inkscape"
   contentScriptType="text/ecmascript"
   contentStyleType="text/css"
   height="64"
   id="Layer_1"
   preserveAspectRatio="xMidYMid meet"
   version="1.1"
   viewBox="0 0 64 64"
   width="64"
   xml:space="preserve"
   zoomAndPan="magnify"
   sodipodi:docname="info.svg"
   inkscape:version="0.92.4 (unknown)"><metadata
     id="metadata9"><rdf:RDF><cc:Work
         rdf:about=""><dc:format>image/svg+xml</dc:format><dc:type
           rdf:resource="http://purl.org/dc/dcmitype/StillImage" /></cc:Work></rdf:RDF></metadata><defs
     id="defs7" /><sodipodi:namedview
     pagecolor="#ffffff"
     bordercolor="#666666"
     borderopacity="1"
     objecttolerance="10"
     gridtolerance="10"
     guidetolerance="10"
     inkscape:pageopacity="0"
     inkscape:pageshadow="2"
     inkscape:window-width="1920"
     inkscape:window-height="1010"
     id="namedview5"
     showgrid="false"
     inkscape:zoom="5.2149125"
     inkscape:cx="8.4829784"
     inkscape:cy="35.701617"
     inkscape:window-x="0"
     inkscape:window-y="0"
     inkscape:window-maximized="1"
     inkscape:current-layer="Layer_1" /><path
     d="m 46,55.272727 v 5.818182 c 0,0.787864 -0.277069,1.469682 -0.831245,2.045455 C 44.614568,63.712136 43.958318,64 43.2,64 H 20.8 C 20.041681,64 19.385431,63.712136 18.83125,63.136364 18.277069,62.560591 18,61.878773 18,61.090909 v -5.818182 c 0,-0.787863 0.277069,-1.469682 0.83125,-2.045454 C 19.385431,52.6515 20.041681,52.363636 20.8,52.363636 h 2.8 V 34.909091 h -2.8 c -0.758318,0 -1.414569,-0.287864 -1.96875,-0.863636 C 18.277069,33.469682 18,32.787864 18,32 v -5.818182 c 0,-0.787863 0.277069,-1.469682 0.83125,-2.045454 0.554181,-0.575773 1.210431,-0.863637 1.96875,-0.863637 h 16.8 c 0.758315,0 1.414568,0.287864 1.96875,0.863637 0.554182,0.575772 0.83125,1.257591 0.83125,2.045454 v 26.181818 h 2.8 c 0.758315,0 1.414568,0.287864 1.96875,0.863637 C 45.722932,53.803045 46,54.484864 46,55.272727 Z M 40.4,2.9090909 v 8.7272731 c 0,0.787863 -0.277069,1.469681 -0.831245,2.045454 C 39.014568,14.257591 38.358318,14.545455 37.6,14.545455 H 26.4 c -0.758318,0 -1.414569,-0.287864 -1.96875,-0.863637 C 23.877069,13.106045 23.6,12.424227 23.6,11.636364 V 2.9090909 C 23.6,2.1212273 23.877069,1.4394091 24.43125,0.86363636 24.985431,0.28786364 25.641681,0 26.4,0 h 11.2 c 0.758318,0 1.414568,0.28786364 1.96875,0.86363636 C 40.122932,1.4394091 40.4,2.1212273 40.4,2.9090909 Z"
     id="path2"
     inkscape:connector-curvature="0"
     style="stroke-width:0.04459414" /></svg>