<?xml version="1.0" encoding="UTF-8" standalone="no"?>
<!-- Svg Vector Icons : http://www.onlinewebfonts.com/icon -->

<svg
   xmlns:dc="http://purl.org/dc/elements/1.1/"
   xmlns:cc="http://creativecommons.org/ns#"
   xmlns:rdf="http://www.w3.org/1999/02/22-rdf-syntax-ns#"
   xmlns:svg="http://www.w3.org/2000/svg"
   xmlns="http://www.w3.org/2000/svg"
   xmlns:sodipodi="http://sodipodi.sourceforge.net/DTD/sodipodi-0.dtd"
   xmlns:inkscape="http://www.inkscape.org/namespaces/inkscape"
   version="1.1"
   x="0px"
   y="0px"
   viewBox="0 0 64 64"
   enable-background="new 0 0 64 64"
   xml:space="preserve"
   id="svg10"
   sodipodi:docname="mushroom.svg"
   width="64"
   height="64"
   inkscape:version="0.92.3 (2405546, 2018-03-11)"><defs
     id="defs14" /><sodipodi:namedview
     pagecolor="#ffffff"
     bordercolor="#666666"
     borderopacity="1"
     objecttolerance="10"
     gridtolerance="10"
     guidetolerance="10"
     inkscape:pageopacity="0"
     inkscape:pageshadow="2"
     inkscape:window-width="1920"
     inkscape:window-height="1007"
     id="namedview12"
     showgrid="false"
     inkscape:zoom="5.3400704"
     inkscape:cx="11.461969"
     inkscape:cy="24.889501"
     inkscape:window-x="0"
     inkscape:window-y="0"
     inkscape:window-maximized="1"
     inkscape:current-layer="svg10" /><metadata
     id="metadata2"><rdf:RDF><cc:Work
         rdf:about=""><dc:format>image/svg+xml</dc:format><dc:type
           rdf:resource="http://purl.org/dc/dcmitype/StillImage" /></cc:Work></rdf:RDF></metadata><g
     id="g8"
     style="fill:#000000"
     transform="matrix(0.06609233,0,0,0.06122393,-1.0460693,1.3876964)"><g
       transform="matrix(0.1,0,0,-0.1,0,511)"
       id="g6"
       style="fill:#000000"><path
         d="M 4556.4,4998.6 C 3795,4935.1 3169.3,4768.9 2567.6,4473.5 1261.5,3832.5 546,2769.2 465.1,1351.4 438.8,905.1 532.9,640.3 819.5,349.3 c 361,-367.6 1052.4,-687 1894.7,-873 l 59.1,-13.1 -48.1,-52.5 c -89.7,-96.3 -201.3,-667.3 -225.4,-1148.7 -24.1,-494.5 63.4,-1080.8 223.2,-1500.9 304.1,-787.6 838,-1288.7 1595,-1492.1 203.5,-54.7 249.4,-59.1 678.2,-59.1 431,0 472.6,2.2 673.9,56.9 1063.3,291 1713.1,1194.6 1833.4,2546.7 26.3,312.9 -4.4,888.3 -50.3,943 -72.2,87.5 -194.7,107.2 -837.9,137.8 -660.8,28.4 -1161.8,76.6 -1406.8,129.1 -170.7,37.2 -538.2,155.3 -614.8,199.1 -15.3,8.8 260.3,21.9 612.6,28.4 354.4,6.6 746.1,24.1 873,37.2 1918.7,192.7 3170.2,761.5 3413,1551.3 105,332.6 26.3,1083 -166.3,1625.6 -479.2,1343.4 -1807.2,2277.6 -3546.6,2498.6 -334.7,43.8 -932,59.1 -1223,35 z M 4051,4355.4 c 89.7,-37.2 168.5,-131.3 168.5,-205.7 0,-133.5 -159.7,-286.6 -420.1,-407 -396,-183.8 -862,-188.2 -1010.8,-10.9 -94.1,109.4 -65.6,207.9 102.8,363.2 146.6,135.6 426.6,253.8 704.5,297.5 109.5,17.6 378.6,-4.3 455.1,-37.1 z m 2544.5,-2.2 c 175,-45.9 420.1,-164.1 520.7,-251.6 159.7,-142.2 192.5,-304.1 78.8,-400.4 -247.2,-207.9 -995.5,-67.8 -1297.4,240.7 -312.8,323.8 96.3,564.5 697.9,411.3 z M 5361.6,3003.3 c 177.2,-80.9 312.9,-225.4 356.6,-376.3 161.9,-557.9 -649.8,-958.3 -1192.4,-586.4 -291,196.9 -343.5,533.9 -124.7,783.3 155.4,175 354.4,251.6 638.9,242.9 157.5,-4.5 221,-17.6 321.6,-63.5 z M 1731.9,2570.1 c 269.1,-212.2 -253.8,-1124.6 -551.3,-964.9 -116,63.4 -109.4,334.8 13.1,584.2 102.8,212.2 323.8,422.3 446.3,424.4 19.7,0 61.3,-19.7 91.9,-43.7 z m 6745.2,8.7 c 238.5,-113.8 474.8,-582 422.3,-835.8 -81,-396 -619.2,41.6 -689.2,560.1 -8.8,65.6 -4.4,140 13.1,188.2 39.4,124.7 118.2,151 253.8,87.5 z M 3270,1449.9 c 522.9,-190.3 573.2,-735.1 85.3,-894.8 -212.2,-67.8 -531.7,-10.9 -730.7,133.5 -201.3,146.6 -275.7,387.3 -175,566.7 129,231.8 490,317.1 820.4,194.6 z m 4056.3,0 c 54.7,-21.9 122.5,-63.4 151,-89.7 59.1,-54.7 131.3,-201.3 133.5,-266.9 0,-157.5 -135.7,-354.4 -319.4,-461.6 -284.4,-166.3 -717.6,-129.1 -890.5,78.8 -137.8,164.1 -122.5,363.2 43.8,547 207.8,231.8 595,317.1 881.6,192.4 z"
         id="path4"
         style="fill:#000000"
         inkscape:connector-curvature="0" /></g></g></svg>