<svg id="Capa_1" enable-background="new 0 0 512 512" height="512" viewBox="0 0 512 512" width="512" xmlns="http://www.w3.org/2000/svg"><g><path d="m512 256c0 60.25-20.82 115.63-55.64 159.36h-.01c-126.59 61.06-274.11 61.06-400.7 0h-.01c-34.82-43.73-55.64-99.11-55.64-159.36 0-46.22 12.25-89.57 33.68-127 44.12-77.07 127.16-129 222.32-129s178.2 51.93 222.32 129c21.43 37.43 33.68 80.78 33.68 127z" fill="#00e1c3"/><path d="m512 256c0 60.25-20.82 115.63-55.64 159.36-126.6 61.06-274.12 61.06-400.72 0-34.82-43.73-55.64-99.11-55.64-159.36 0-46.22 12.25-89.57 33.68-127 44.12 77.07 127.16 129 222.32 129s178.2-51.93 222.32-129c21.43 37.43 33.68 80.78 33.68 127z" fill="#05d3b0"/><g><g><path d="m422.685 448.768-6.766-69.508-4.586-47.155h-38.187l-4.592 47.155-6.766 69.508z" fill="#fff5ef"/><path d="m422.685 448.768-6.766-69.508-4.586-47.155h-19.093v116.663z" fill="#f5ded1"/><path d="m392.24 332.105v47.155h-23.686l4.592-47.155z" fill="#f5ded1"/><path d="m415.919 379.26h-23.679v-47.155h19.093z" fill="#eac5ae"/><g><path d="m482.306 310.764c0 23.567-19.107 42.668-42.668 42.668h-94.955c-23.489-.099-42.49-19.16-42.49-42.668z" fill="#fff"/><path d="m482.306 310.764c0 23.567-19.107 42.668-42.668 42.668h-94.955v-42.668z" fill="#fff5ef"/><path d="m482.305 310.767c0 23.564-19.104 42.668-42.669 42.668h-47.396v-42.668z" fill="#f5ded1"/><g><path d="m482.299 313.525c0 .23-.007.461-.013.698-.079 3.973-2.583 7.498-6.312 8.875-8.216 3.057-16.656 5.679-25.274 7.827-12.887-5.515-27.804-3.064-38.247 6.279l-.033.04c-6.654.553-13.388.837-20.181.837-5.146 0-10.252-.165-15.318-.487-8.065-7.234-19.733-8.796-29.412-3.934l-.382.191c-.817-.152-1.627-.31-2.444-.474-12.433-2.491-24.523-5.943-36.178-10.278-3.709-1.37-6.233-4.862-6.312-8.816-.013-.639-.02-1.272-.02-1.911 0-.534.007-1.074.013-1.608 10.522-8.005 16.695-20.464 16.695-33.681v-16.972c3.644-5.113 7.814-9.83 12.426-14.06l.461-.072c8.947-1.41 16.761-6.819 21.228-14.693 6.602-3.209 13.658-5.627 21.044-7.142 9.633 12.057 27.679 12.861 38.352 1.713l.969-1.008c3.821.936 7.564 2.115 11.187 3.532l1.048 1.858c7.781 13.737 21.288 23.277 36.837 26.012 4.401 5.488 8.183 11.497 11.234 17.908l-1.067 4.335c-2.062 8.407 1.515 17.19 8.875 21.762.594 4.335.877 8.769.824 13.269z" fill="#ff4852"/><path d="m482.299 313.525c0 .23-.007.461-.013.698-.079 3.973-2.583 7.498-6.312 8.875-8.223 3.051-16.656 5.673-25.274 7.827h-.007c-12.887-5.515-27.797-3.064-38.24 6.279l-.033.033v.007c-6.654.553-13.381.837-20.181.837-5.146 0-10.258-.158-15.318-.481v-.007c-8.065-7.234-19.733-8.796-29.412-3.934l-.382.191c-.817-.152-1.634-.31-2.444-.474 0-.58-.007-1.166-.007-1.746 0-48.525 13.757-89.665 32.792-103.949 10.048 8.552 25.412 8.111 34.926-1.825l.969-1.008c3.828.936 7.564 2.122 11.187 3.532l1.048 1.858c7.781 13.731 21.281 23.271 36.824 26.012 4.414 5.488 8.203 11.504 11.247 17.915l-1.067 4.329c-2.062 8.407 1.515 17.183 8.868 21.762.606 4.335.889 8.769.829 13.269z" fill="#f50000"/><path d="m482.299 313.525c0 .23-.007.461-.013.698-.079 3.973-2.583 7.498-6.312 8.875-8.223 3.051-16.656 5.673-25.274 7.827h-.007c-12.887-5.515-27.797-3.064-38.24 6.279l-.033.033v.007c-6.654.553-13.381.837-20.181.837v-104.41c7.241.488 14.673-2.089 20.155-7.814l.969-1.008c3.828.936 7.564 2.122 11.187 3.532l1.048 1.858c7.781 13.731 21.281 23.271 36.824 26.012 4.414 5.488 8.203 11.504 11.247 17.915l-1.067 4.329c-2.062 8.407 1.515 17.183 8.868 21.762.606 4.334.889 8.768.829 13.268z" fill="#c10000"/><path d="m344.927 287.674c0 15.248-12.36 27.608-27.608 27.608-5.586 0-10.783-1.658-15.13-4.516.326-18.872 6.461-36.327 16.69-50.657 14.521.812 26.048 12.842 26.048 27.565z" fill="#e7ea00"/><path d="m353.79 235.859c0 7.485-6.068 13.552-13.552 13.552-3.421 0-6.546-1.268-8.931-3.362 6.436-5.92 13.734-10.91 21.688-14.766.516 1.43.795 2.969.795 4.576z" fill="#e7ea00"/><path d="m451.586 324.792c0 2.131-.309 4.186-.888 6.131-12.406 3.1-25.193 5.235-38.28 6.317-2.495-3.514-3.958-7.814-3.958-12.449 0-11.907 9.654-21.561 21.561-21.561 11.911.001 21.565 9.655 21.565 21.562z" fill="#ffa300"/><path d="m413.492 227.123c0 10.956-8.88 19.836-19.836 19.836-.478 0-.947-.017-1.417-.051-9.155-.647-16.588-7.501-18.127-16.377-.19-1.108-.292-2.245-.292-3.408 0-1.01.076-2.004.22-2.977 5.878-1.205 11.967-1.839 18.199-1.839 7.265 0 14.339.879 21.121 2.541.089.748.132 1.505.132 2.275z" fill="#e7ea00"/><path d="m413.492 227.123c0 10.956-8.88 19.836-19.836 19.836-.478 0-.947-.017-1.417-.051-9.155-.647-16.588-7.501-18.127-16.377 5.586-5.303 11.709-8.224 18.127-8.224 7.265 0 14.339.879 21.121 2.541.089.748.132 1.505.132 2.275z" fill="#ffcd00"/><path d="m376.92 337.596c-10.115-.634-20.06-1.894-29.794-3.742-.275-.829-.486-1.691-.63-2.579-1.463-9.07 4.702-17.607 13.768-19.071 9.07-1.463 17.607 4.702 19.07 13.772.677 4.203-.283 8.296-2.414 11.62z" fill="#ffcd00"/><path d="m481.473 300.254c-2.448 1.869-5.501 2.977-8.812 2.977-8.038 0-14.554-6.516-14.554-14.554s6.516-14.555 14.554-14.555c.338 0 .672.013 1.007.034 3.864 8.127 6.541 16.905 7.805 26.098z" fill="#ffa300"/><path d="m415.771 280.194c0 12.994-10.537 23.527-23.532 23.527-12.998 0-23.531-10.533-23.531-23.527 0-12.998 10.533-23.531 23.531-23.531 12.994 0 23.532 10.533 23.532 23.531z" fill="#ffcd00"/><g fill="#ffa300"><path d="m462.432 256.253c-4.309 5.425-10.965 8.905-18.432 8.905-12.998 0-23.531-10.533-23.531-23.527 0-4.914 1.505-9.476 4.08-13.248 14.931 5.827 27.98 15.544 37.883 27.87z"/><path d="m415.771 280.194c0 12.994-10.537 23.527-23.532 23.527v-47.059c12.994.001 23.532 10.534 23.532 23.532z"/><path d="m393.656 246.958c-.478 0-.947-.017-1.417-.051v-24.601c7.265 0 14.339.879 21.121 2.541.089.748.131 1.505.131 2.275.001 10.957-8.879 19.836-19.835 19.836z"/></g></g></g></g><g><path d="m150.204 448.768-6.765-69.508-4.586-47.155h-38.188l-4.592 47.155-6.766 69.508z" fill="#fff5ef"/><path d="m150.204 448.768-6.765-69.508-4.586-47.155h-19.094v116.663z" fill="#f5ded1"/><path d="m119.759 332.105v47.155h-23.686l4.592-47.155z" fill="#f5ded1"/><path d="m143.439 379.26h-23.68v-47.155h19.094z" fill="#eac5ae"/><g><path d="m209.826 310.764c0 23.567-19.107 42.668-42.668 42.668h-94.955c-23.489-.099-42.49-19.16-42.49-42.668z" fill="#fff"/><path d="m209.826 310.764c0 23.567-19.107 42.668-42.668 42.668h-94.955v-42.668z" fill="#fff5ef"/><path d="m209.825 310.767c0 23.564-19.104 42.668-42.669 42.668h-47.397v-42.668z" fill="#f5ded1"/><g><path d="m209.819 313.525c0 .23-.007.461-.013.698-.079 3.973-2.583 7.498-6.312 8.875-8.216 3.057-16.656 5.679-25.274 7.827-12.887-5.515-27.804-3.064-38.247 6.279l-.033.04c-6.654.553-13.388.837-20.181.837-5.146 0-10.252-.165-15.319-.487-8.064-7.234-19.733-8.796-29.412-3.934l-.382.191c-.817-.152-1.627-.31-2.444-.474-12.433-2.491-24.523-5.943-36.178-10.278-3.709-1.37-6.233-4.862-6.312-8.816-.013-.639-.02-1.272-.02-1.911 0-.534.007-1.074.013-1.608 10.522-8.005 16.695-20.464 16.695-33.681v-16.972c3.644-5.113 7.814-9.83 12.426-14.06l.461-.072c8.947-1.41 16.761-6.819 21.229-14.693 6.602-3.209 13.658-5.627 21.044-7.142 9.632 12.057 27.679 12.861 38.352 1.713l.968-1.008c3.821.936 7.564 2.115 11.187 3.532l1.048 1.858c7.781 13.737 21.288 23.277 36.837 26.012 4.401 5.488 8.183 11.497 11.234 17.908l-1.067 4.335c-2.062 8.407 1.515 17.19 8.875 21.762.594 4.335.878 8.769.825 13.269z" fill="#ff4852"/><path d="m209.819 313.525c0 .23-.007.461-.013.698-.079 3.973-2.583 7.498-6.312 8.875-8.223 3.051-16.656 5.673-25.274 7.827h-.007c-12.887-5.515-27.797-3.064-38.24 6.279l-.033.033v.007c-6.654.553-13.381.837-20.181.837-5.146 0-10.258-.158-15.319-.481v-.007c-8.064-7.234-19.733-8.796-29.412-3.934l-.382.191c-.817-.152-1.634-.31-2.444-.474 0-.58-.007-1.166-.007-1.746 0-48.525 13.757-89.665 32.792-103.949 10.048 8.552 25.412 8.111 34.926-1.825l.968-1.008c3.828.936 7.564 2.122 11.187 3.532l1.048 1.858c7.781 13.731 21.281 23.271 36.824 26.012 4.414 5.488 8.203 11.504 11.247 17.915l-1.067 4.329c-2.062 8.407 1.515 17.183 8.868 21.762.607 4.335.89 8.769.831 13.269z" fill="#f50000"/><path d="m209.819 313.525c0 .23-.007.461-.013.698-.079 3.973-2.583 7.498-6.312 8.875-8.223 3.051-16.656 5.673-25.274 7.827h-.007c-12.887-5.515-27.797-3.064-38.24 6.279l-.033.033v.007c-6.654.553-13.381.837-20.181.837v-104.41c7.241.488 14.673-2.089 20.155-7.814l.968-1.008c3.828.936 7.564 2.122 11.187 3.532l1.048 1.858c7.781 13.731 21.281 23.271 36.824 26.012 4.414 5.488 8.203 11.504 11.247 17.915l-1.067 4.329c-2.062 8.407 1.515 17.183 8.868 21.762.606 4.334.889 8.768.83 13.268z" fill="#c10000"/><path d="m72.446 287.674c0 15.248-12.36 27.608-27.608 27.608-5.586 0-10.783-1.658-15.129-4.516.326-18.872 6.461-36.327 16.69-50.657 14.52.812 26.047 12.842 26.047 27.565z" fill="#e7ea00"/><path d="m81.309 235.859c0 7.485-6.068 13.552-13.552 13.552-3.421 0-6.546-1.268-8.931-3.362 6.436-5.92 13.734-10.91 21.688-14.766.516 1.43.795 2.969.795 4.576z" fill="#e7ea00"/><path d="m179.105 324.792c0 2.131-.309 4.186-.888 6.131-12.406 3.1-25.193 5.235-38.28 6.317-2.495-3.514-3.958-7.814-3.958-12.449 0-11.907 9.654-21.561 21.561-21.561 11.912.001 21.565 9.655 21.565 21.562z" fill="#ffa300"/><path d="m141.011 227.123c0 10.956-8.88 19.836-19.836 19.836-.478 0-.947-.017-1.417-.051-9.155-.647-16.588-7.501-18.127-16.377-.19-1.108-.292-2.245-.292-3.408 0-1.01.076-2.004.22-2.977 5.878-1.205 11.967-1.839 18.199-1.839 7.265 0 14.339.879 21.121 2.541.09.748.132 1.505.132 2.275z" fill="#e7ea00"/><path d="m141.011 227.123c0 10.956-8.88 19.836-19.836 19.836-.478 0-.947-.017-1.417-.051-9.155-.647-16.588-7.501-18.127-16.377 5.586-5.303 11.709-8.224 18.127-8.224 7.265 0 14.339.879 21.121 2.541.09.748.132 1.505.132 2.275z" fill="#ffcd00"/><path d="m104.439 337.596c-10.115-.634-20.06-1.894-29.794-3.742-.275-.829-.486-1.691-.63-2.579-1.463-9.07 4.702-17.607 13.768-19.071 9.07-1.463 17.607 4.702 19.07 13.772.677 4.203-.283 8.296-2.414 11.62z" fill="#ffcd00"/><path d="m208.992 300.254c-2.448 1.869-5.501 2.977-8.812 2.977-8.038 0-14.554-6.516-14.554-14.554s6.516-14.555 14.554-14.555c.338 0 .672.013 1.007.034 3.864 8.127 6.541 16.905 7.805 26.098z" fill="#ffa300"/><path d="m143.29 280.194c0 12.994-10.537 23.527-23.532 23.527-12.998 0-23.531-10.533-23.531-23.527 0-12.998 10.533-23.531 23.531-23.531 12.995 0 23.532 10.533 23.532 23.531z" fill="#ffcd00"/><g fill="#ffa300"><path d="m189.952 256.253c-4.309 5.425-10.965 8.905-18.432 8.905-12.998 0-23.531-10.533-23.531-23.527 0-4.914 1.505-9.476 4.08-13.248 14.93 5.827 27.979 15.544 37.883 27.87z"/><path d="m143.29 280.194c0 12.994-10.537 23.527-23.532 23.527v-47.059c12.995.001 23.532 10.534 23.532 23.532z"/><path d="m121.175 246.958c-.478 0-.947-.017-1.417-.051v-24.601c7.265 0 14.339.879 21.121 2.541.089.748.131 1.505.131 2.275.001 10.957-8.879 19.836-19.835 19.836z"/></g></g></g></g></g><g><path d="m302.209 430.328-10.269-105.498-6.96-71.57h-57.96l-6.97 71.57-10.269 105.498z" fill="#fff5ef"/><path d="m302.209 430.328-10.269-105.498-6.96-71.57h-28.98v177.068z" fill="#f5ded1"/><path d="m256 253.26v71.57h-35.95l6.97-71.57z" fill="#f5ded1"/><path d="m291.94 324.83h-35.94v-71.57h28.98z" fill="#eac5ae"/><g><path d="m392.7 220.87c0 35.77-29 64.76-64.76 64.76h-144.12c-35.65-.15-64.49-29.08-64.49-64.76z" fill="#fff"/><path d="m392.7 220.87c0 35.77-29 64.76-64.76 64.76h-144.12v-64.76z" fill="#fff5ef"/><path d="m392.699 220.874c0 35.765-28.996 64.761-64.761 64.761h-71.938v-64.761z" fill="#f5ded1"/><g><path d="m392.69 225.06c0 .35-.01.7-.02 1.06-.12 6.03-3.92 11.38-9.58 13.47-12.47 4.64-25.28 8.62-38.36 11.88-19.56-8.37-42.2-4.65-58.05 9.53l-.05.06c-10.1.84-20.32 1.27-30.63 1.27-7.81 0-15.56-.25-23.25-.74-12.24-10.98-29.95-13.35-44.64-5.97l-.58.29c-1.24-.23-2.47-.47-3.71-.72-18.87-3.78-37.22-9.02-54.91-15.6-5.63-2.08-9.46-7.38-9.58-13.38-.02-.97-.03-1.93-.03-2.9 0-.81.01-1.63.02-2.44 15.97-12.15 25.34-31.06 25.34-51.12v-25.76c5.53-7.76 11.86-14.92 18.86-21.34l.7-.11c13.58-2.14 25.44-10.35 32.22-22.3 10.02-4.87 20.73-8.54 31.94-10.84 14.62 18.3 42.01 19.52 58.21 2.6l1.47-1.53c5.8 1.42 11.48 3.21 16.98 5.36l1.59 2.82c11.81 20.85 32.31 35.33 55.91 39.48 6.68 8.33 12.42 17.45 17.05 27.18l-1.62 6.58c-3.13 12.76 2.3 26.09 13.47 33.03.9 6.58 1.33 13.31 1.25 20.14z" fill="#ff4852"/><path d="m392.69 225.06c0 .35-.01.7-.02 1.06-.12 6.03-3.92 11.38-9.58 13.47-12.48 4.63-25.28 8.61-38.36 11.88h-.01c-19.56-8.37-42.19-4.65-58.04 9.53l-.05.05v.01c-10.1.84-20.31 1.27-30.63 1.27-7.81 0-15.57-.24-23.25-.73v-.01c-12.24-10.98-29.95-13.35-44.64-5.97l-.58.29c-1.24-.23-2.48-.47-3.71-.72 0-.88-.01-1.77-.01-2.65 0-73.65 20.88-136.09 49.77-157.77 15.25 12.98 38.57 12.31 53.01-2.77l1.47-1.53c5.81 1.42 11.48 3.22 16.98 5.36l1.59 2.82c11.81 20.84 32.3 35.32 55.89 39.48 6.7 8.33 12.45 17.46 17.07 27.19l-1.62 6.57c-3.13 12.76 2.3 26.08 13.46 33.03.92 6.58 1.35 13.31 1.26 20.14z" fill="#f50000"/><path d="m392.69 225.06c0 .35-.01.7-.02 1.06-.12 6.03-3.92 11.38-9.58 13.47-12.48 4.63-25.28 8.61-38.36 11.88h-.01c-19.56-8.37-42.19-4.65-58.04 9.53l-.05.05v.01c-10.1.84-20.31 1.27-30.63 1.27v-158.47c10.99.74 22.27-3.17 30.59-11.86l1.47-1.53c5.81 1.42 11.48 3.22 16.98 5.36l1.59 2.82c11.81 20.84 32.3 35.32 55.89 39.48 6.7 8.33 12.45 17.46 17.07 27.19l-1.62 6.57c-3.13 12.76 2.3 26.08 13.46 33.03.92 6.58 1.35 13.31 1.26 20.14z" fill="#c10000"/><path d="m184.19 185.825c0 23.143-18.759 41.902-41.902 41.902-8.478 0-16.365-2.516-22.963-6.854.494-28.643 9.806-55.136 25.331-76.886 22.039 1.232 39.534 19.491 39.534 41.838z" fill="#e7ea00"/><path d="m197.642 107.181c0 11.36-9.21 20.569-20.569 20.569-5.192 0-9.935-1.925-13.554-5.102 9.768-8.985 20.845-16.558 32.917-22.411.782 2.169 1.206 4.505 1.206 6.944z" fill="#e7ea00"/><path d="m346.074 242.161c0 3.235-.469 6.354-1.348 9.306-18.83 4.704-38.238 7.945-58.101 9.588-3.786-5.333-6.007-11.86-6.007-18.894 0-18.073 14.652-32.725 32.725-32.725 18.079 0 32.731 14.652 32.731 32.725z" fill="#ffa300"/><path d="m288.256 93.921c0 16.629-13.478 30.106-30.106 30.106-.725 0-1.438-.026-2.15-.077-13.895-.982-25.177-11.385-27.513-24.856-.289-1.682-.443-3.408-.443-5.173 0-1.534.116-3.042.334-4.518 8.921-1.829 18.163-2.792 27.622-2.792 11.026 0 21.763 1.335 32.057 3.857.134 1.136.199 2.285.199 3.453z" fill="#e7ea00"/><path d="m288.256 93.921c0 16.629-13.478 30.106-30.106 30.106-.725 0-1.438-.026-2.15-.077-13.895-.982-25.177-11.385-27.513-24.856 8.478-8.048 17.771-12.483 27.513-12.483 11.026 0 21.763 1.335 32.057 3.857.134 1.136.199 2.285.199 3.453z" fill="#ffcd00"/><path d="m232.748 261.594c-15.352-.963-30.446-2.875-45.22-5.68-.417-1.258-.738-2.567-.956-3.915-2.221-13.766 7.137-26.724 20.896-28.945 13.766-2.22 26.724 7.137 28.944 20.903 1.027 6.38-.43 12.593-3.664 17.637z" fill="#ffcd00"/><path d="m391.435 204.918c-3.716 2.837-8.35 4.518-13.375 4.518-12.2 0-22.09-9.89-22.09-22.09s9.89-22.09 22.09-22.09c.514 0 1.021.019 1.528.051 5.866 12.335 9.929 25.659 11.847 39.611z" fill="#ffa300"/><path d="m291.715 174.472c0 19.722-15.993 35.709-35.715 35.709-19.728 0-35.715-15.987-35.715-35.709 0-19.729 15.987-35.715 35.715-35.715 19.721 0 35.715 15.986 35.715 35.715z" fill="#ffcd00"/><g fill="#ffa300"><path d="m362.536 138.134c-6.54 8.234-16.642 13.516-27.975 13.516-19.729 0-35.715-15.987-35.715-35.709 0-7.458 2.285-14.382 6.193-20.107 22.661 8.844 42.466 23.592 57.497 42.3z"/><path d="m291.715 174.472c0 19.722-15.993 35.709-35.715 35.709v-71.424c19.721 0 35.715 15.986 35.715 35.715z"/><path d="m258.149 124.027c-.725 0-1.438-.026-2.15-.077v-37.338c11.026 0 21.763 1.335 32.057 3.857.135 1.136.199 2.285.199 3.453.001 16.628-13.477 30.105-30.106 30.105z"/></g></g></g></g><path d="m456.36 415.36c-46.9 58.89-119.23 96.64-200.36 96.64s-153.46-37.75-200.36-96.64z" fill="#db351d"/><path d="m456.36 415.36c-46.9 58.89-119.23 96.64-200.36 96.64v-96.64z" fill="#a52817"/></g></svg>