<?xml version="1.0" encoding="UTF-8" standalone="no"?>
<svg
   xmlns:dc="http://purl.org/dc/elements/1.1/"
   xmlns:cc="http://creativecommons.org/ns#"
   xmlns:rdf="http://www.w3.org/1999/02/22-rdf-syntax-ns#"
   xmlns:svg="http://www.w3.org/2000/svg"
   xmlns="http://www.w3.org/2000/svg"
   xmlns:sodipodi="http://sodipodi.sourceforge.net/DTD/sodipodi-0.dtd"
   xmlns:inkscape="http://www.inkscape.org/namespaces/inkscape"
   contentScriptType="text/ecmascript"
   contentStyleType="text/css"
   enable-background="new 0 0 64 64"
   height="64"
   id="Layer_1"
   preserveAspectRatio="xMidYMid meet"
   version="1.1"
   viewBox="0 0 64 64"
   width="64"
   xml:space="preserve"
   zoomAndPan="magnify"
   sodipodi:docname="next_snapshot.svg"
   inkscape:version="0.92.5 (2060ec1f9f, 2020-04-08)"><metadata
     id="metadata9"><rdf:RDF><cc:Work
         rdf:about=""><dc:format>image/svg+xml</dc:format><dc:type
           rdf:resource="http://purl.org/dc/dcmitype/StillImage" /><dc:title /></cc:Work></rdf:RDF></metadata><defs
     id="defs7" /><sodipodi:namedview
     pagecolor="#ffffff"
     bordercolor="#666666"
     borderopacity="1"
     objecttolerance="10"
     gridtolerance="10"
     guidetolerance="10"
     inkscape:pageopacity="0"
     inkscape:pageshadow="2"
     inkscape:window-width="1920"
     inkscape:window-height="1001"
     id="namedview5"
     showgrid="false"
     inkscape:zoom="7.375"
     inkscape:cx="-73.229892"
     inkscape:cy="43.316863"
     inkscape:window-x="0"
     inkscape:window-y="0"
     inkscape:window-maximized="1"
     inkscape:current-layer="Layer_1" /><path
     d="M 52.769231,40.057291 V 49.5 c 0,2.89235 -1.015637,5.365462 -3.046875,7.419272 C 47.691119,58.973078 45.245181,60 42.384616,60 H 12.384615 C 9.524051,60 7.078113,58.973078 5.046875,56.919272 3.015637,54.865462 2,52.39235 2,49.5 V 19.166666 C 2,16.274319 3.015637,13.801203 5.046875,11.747397 7.078113,9.693588 9.524051,8.666666 12.384615,8.666666 h 9.194712 v 0 c 0.312512,0 0.582945,0.115465 0.811298,0.346356 0.228353,0.230891 0.342548,0.504328 0.342548,0.820312 0,0.65625 -0.312512,1.04515 -0.9375,1.166666 -1.85095,0.631931 -3.449531,1.3611 -4.795673,2.1875 -0.240397,0.09723 -0.432692,0.145834 -0.576923,0.145834 h -4.038462 c -1.586538,0 -2.944723,0.571191 -4.074519,1.713541 C 7.1803,16.189225 6.615385,17.5625 6.615385,19.166666 V 49.5 c 0,1.604166 0.564915,2.977441 1.694711,4.119791 1.129796,1.14235 2.487981,1.713543 4.074519,1.713543 h 30.000001 c 1.586537,0 2.944721,-0.571193 4.074518,-1.713543 1.129797,-1.14235 1.694713,-2.515625 1.694713,-4.119791 v -7.802084 c 0,-0.461816 0.216347,-0.814225 0.649037,-1.057291 0.673091,-0.315984 1.322128,-0.765625 1.947116,-1.348959 0.384628,-0.3889 0.805275,-0.4861 1.262019,-0.291666 0.504809,0.21875 0.757212,0.571191 0.757212,1.057291 z m 8.545672,-18.083332 -13.846153,14 c -0.432694,0.461816 -0.973556,0.692707 -1.622597,0.692707 -0.288459,0 -0.588928,-0.06077 -0.90144,-0.182291 -0.9375,-0.413184 -1.40625,-1.130209 -1.40625,-2.151041 v -7.000001 h -5.769232 c -7.764411,0 -13.028834,1.592026 -15.793269,4.776042 -2.860565,3.32985 -3.75,9.078125 -2.66827,17.244791 0.07212,0.559018 -0.168281,0.972234 -0.721154,1.239584 -0.192295,0.0486 -0.336526,0.07292 -0.432692,0.07292 -0.384627,0 -0.697103,-0.157975 -0.9375,-0.473957 C 16.975949,49.852441 16.723546,49.475684 16.459135,49.0625 16.194723,48.649316 15.719952,47.816828 15.034856,46.565103 14.34976,45.313378 13.754808,44.104166 13.25,42.9375 c -0.504808,-1.166666 -0.967536,-2.552084 -1.388221,-4.15625 -0.420685,-1.604166 -0.63101,-3.086816 -0.63101,-4.447916 0,-1.190984 0.04208,-2.296875 0.126202,-3.317709 0.08412,-1.020834 0.252404,-2.114583 0.504808,-3.28125 0.252404,-1.166666 0.58893,-2.2361 1.009615,-3.208334 0.420685,-0.972235 0.985565,-1.96266 1.694712,-2.971354 0.709146,-1.008693 1.532452,-1.907975 2.469952,-2.697915 0.9375,-0.789944 2.073317,-1.537341 3.407452,-2.242188 1.334134,-0.70485 2.830528,-1.294272 4.489182,-1.768231 1.658654,-0.473956 3.575734,-0.844628 5.751202,-1.111978 2.175469,-0.26735 4.537247,-0.401041 7.085337,-0.401041 h 5.769232 V 6.3333344 c 0,-1.0208344 0.46875,-1.7378594 1.40625,-2.1510438 C 45.257225,4.060775 45.557694,4 45.846153,4 46.471141,4 47.012006,4.2308906 47.46875,4.6927094 L 61.314903,18.692709 C 61.771647,19.154525 62,19.7014 62,20.333334 c 0,0.631932 -0.228353,1.178807 -0.685097,1.640625 z"
     id="path2"
     style="fill:#000000;stroke-width:0.03625746"
     inkscape:connector-curvature="0" /></svg>