<?xml version="1.0" encoding="UTF-8" standalone="no"?>
<svg
   xmlns:dc="http://purl.org/dc/elements/1.1/"
   xmlns:cc="http://creativecommons.org/ns#"
   xmlns:rdf="http://www.w3.org/1999/02/22-rdf-syntax-ns#"
   xmlns:svg="http://www.w3.org/2000/svg"
   xmlns="http://www.w3.org/2000/svg"
   xmlns:sodipodi="http://sodipodi.sourceforge.net/DTD/sodipodi-0.dtd"
   xmlns:inkscape="http://www.inkscape.org/namespaces/inkscape"
   inkscape:version="0.92.5 (2060ec1f9f, 2020-04-08)"
   sodipodi:docname="nothing.svg"
   zoomAndPan="magnify"
   xml:space="preserve"
   width="64"
   version="1.1"
   preserveAspectRatio="xMidYMid meet"
   id="Layer_1"
   height="64"
   contentStyleType="text/css"
   contentScriptType="text/ecmascript"><metadata
     id="metadata9"><rdf:RDF><cc:Work
         rdf:about=""><dc:format>image/svg+xml</dc:format><dc:type
           rdf:resource="http://purl.org/dc/dcmitype/StillImage" /><dc:title /></cc:Work></rdf:RDF></metadata><defs
     id="defs7" /><sodipodi:namedview
     inkscape:current-layer="Layer_1"
     inkscape:window-maximized="1"
     inkscape:window-y="0"
     inkscape:window-x="0"
     inkscape:cy="42.472028"
     inkscape:cx="17.076707"
     inkscape:zoom="9.2255338"
     showgrid="false"
     id="namedview5"
     inkscape:window-height="1001"
     inkscape:window-width="1920"
     inkscape:pageshadow="2"
     inkscape:pageopacity="0"
     guidetolerance="10"
     gridtolerance="10"
     objecttolerance="10"
     borderopacity="1"
     bordercolor="#666666"
     pagecolor="#ffffff" /><rect
     style="opacity:1;fill:#e6e6e6;stroke:none;stroke-width:1.00213349"
     id="rect3710"
     width="64"
     height="64.00016"
     x="0"
     y="-0.00016021729" /><path
     style="fill:#000000;stroke-width:0.038999"
     id="path2"
     d="m 53.25,31.980532 c 0,-4.179091 -1.132813,-8.0078 -3.398438,-11.486048 L 20.398437,49.813108 C 23.966133,52.123284 27.83332,53.278391 32,53.278391 c 2.890625,0 5.644531,-0.564569 8.261719,-1.693706 2.617187,-1.129137 4.876289,-2.641129 6.777343,-4.536015 1.901055,-1.894887 3.411446,-4.159624 4.53125,-6.79429 C 52.690117,37.619714 53.25,34.861778 53.25,31.980532 Z M 14.226563,43.622323 43.71875,14.264763 C 40.203125,11.902648 36.296875,10.721609 32,10.721609 c -3.85418,0 -7.408867,0.947424 -10.664063,2.842311 -3.255195,1.894886 -5.83332,4.477611 -7.734374,7.748215 C 11.700508,24.582738 10.75,28.138858 10.75,31.980532 c 0,4.205062 1.158867,8.085672 3.476563,11.641791 z M 62,31.980532 c 0,4.075289 -0.794258,7.968864 -2.382813,11.680727 -1.588554,3.711862 -3.71746,6.904594 -6.386718,9.578196 -2.669258,2.673601 -5.859375,4.802063 -9.570313,6.385464 C 39.949219,61.208319 36.0625,62 32,62 27.9375,62 24.050781,61.208319 20.339844,59.624919 16.628906,58.041518 13.438789,55.913056 10.769531,53.239455 8.1002734,50.565853 5.9713672,47.373121 4.3828125,43.661259 2.7942578,39.949396 2,36.055821 2,31.980532 2,27.905243 2.7942578,24.01817 4.3828125,20.319273 5.9713672,16.620376 8.1002734,13.434147 10.769531,10.760545 13.438789,8.0869435 16.628906,5.9584815 20.339844,4.3750811 24.050781,2.7916807 27.9375,2 32,2 c 4.0625,0 7.949219,0.7916807 11.660156,2.3750811 3.710938,1.5834004 6.901055,3.7118624 9.570313,6.3854639 2.669258,2.673602 4.798164,5.859831 6.386718,9.558728 C 61.205742,24.01817 62,27.905243 62,31.980532 Z" /></svg>