<?xml version="1.0" encoding="UTF-8" standalone="no"?>
<svg
   xmlns:dc="http://purl.org/dc/elements/1.1/"
   xmlns:cc="http://creativecommons.org/ns#"
   xmlns:rdf="http://www.w3.org/1999/02/22-rdf-syntax-ns#"
   xmlns:svg="http://www.w3.org/2000/svg"
   xmlns="http://www.w3.org/2000/svg"
   xmlns:sodipodi="http://sodipodi.sourceforge.net/DTD/sodipodi-0.dtd"
   xmlns:inkscape="http://www.inkscape.org/namespaces/inkscape"
   contentScriptType="text/ecmascript"
   contentStyleType="text/css"
   height="64"
   id="Layer_1"
   preserveAspectRatio="xMidYMid meet"
   version="1.1"
   width="64"
   xml:space="preserve"
   zoomAndPan="magnify"
   sodipodi:docname="open_folder.svg"
   inkscape:version="0.92.5 (2060ec1f9f, 2020-04-08)"><metadata
     id="metadata9"><rdf:RDF><cc:Work
         rdf:about=""><dc:format>image/svg+xml</dc:format><dc:type
           rdf:resource="http://purl.org/dc/dcmitype/StillImage" /></cc:Work></rdf:RDF></metadata><defs
     id="defs7" /><sodipodi:namedview
     pagecolor="#ffffff"
     bordercolor="#666666"
     borderopacity="1"
     objecttolerance="10"
     gridtolerance="10"
     guidetolerance="10"
     inkscape:pageopacity="0"
     inkscape:pageshadow="2"
     inkscape:window-width="1920"
     inkscape:window-height="1001"
     id="namedview5"
     showgrid="false"
     inkscape:zoom="10.24"
     inkscape:cx="41.334073"
     inkscape:cy="29.202555"
     inkscape:window-x="0"
     inkscape:window-y="0"
     inkscape:window-maximized="1"
     inkscape:current-layer="Layer_1" /><path
     d="m 62,35.920454 c 0,0.675201 -0.329952,1.393951 -0.989888,2.15625 l -10.729111,12.9375 C 49.365609,52.125 48.083034,53.066987 46.433209,53.840199 44.783385,54.61341 43.255987,55 41.850985,55 H 7.1091006 C 6.3853007,55 5.7413624,54.858439 5.1772219,54.575284 4.6130814,54.292129 4.3310271,53.823863 4.3310271,53.170454 c 0,-0.6752 0.3299521,-1.39395 0.9898883,-2.15625 l 10.7291116,-12.9375 c 0.915391,-1.110795 2.197967,-2.052782 3.847791,-2.825993 1.649824,-0.773212 3.177222,-1.159802 4.582225,-1.159802 h 34.741884 c 0.723799,0 1.367738,0.141561 1.931878,0.424716 C 61.717946,34.79878 62,35.267046 62,35.920454 Z M 51.047366,24.681819 v 5.227272 H 24.480043 c -2.001075,0 -4.097914,0.517271 -6.290581,1.551846 -2.192666,1.034576 -3.938254,2.335938 -5.236828,3.904119 l -10.7610427,12.9375 -0.1596594,0.196023 c 0,-0.08713 -0.00533,-0.223238 -0.015966,-0.40838 C 2.0053326,47.905056 2,47.768949 2,47.681819 V 16.318181 C 2,14.314405 2.7025013,12.59375 4.107504,11.15625 5.5125067,9.71875 7.1942629,9 9.1527408,9 H 19.370942 c 1.958478,0 3.640234,0.71875 5.045237,2.15625 1.405002,1.4375 2.107504,3.158155 2.107504,5.161931 v 1.045456 h 17.370942 c 1.958478,0 3.640234,0.71875 5.045237,2.15625 1.405002,1.4375 2.107504,3.158155 2.107504,5.161932 z"
     id="path2"
     inkscape:connector-curvature="0"
     style="stroke-width:0.03229906;fill:#000000" /></svg>