<?xml version="1.0" encoding="UTF-8" standalone="no"?>
<svg
   xmlns:dc="http://purl.org/dc/elements/1.1/"
   xmlns:cc="http://creativecommons.org/ns#"
   xmlns:rdf="http://www.w3.org/1999/02/22-rdf-syntax-ns#"
   xmlns:svg="http://www.w3.org/2000/svg"
   xmlns="http://www.w3.org/2000/svg"
   xmlns:sodipodi="http://sodipodi.sourceforge.net/DTD/sodipodi-0.dtd"
   xmlns:inkscape="http://www.inkscape.org/namespaces/inkscape"
   height="64"
   width="64"
   version="1.1"
   id="svg4"
   sodipodi:docname="paste.svg"
   inkscape:version="0.92.5 (2060ec1f9f, 2020-04-08)">
  <metadata
     id="metadata10">
    <rdf:RDF>
      <cc:Work
         rdf:about="">
        <dc:format>image/svg+xml</dc:format>
        <dc:type
           rdf:resource="http://purl.org/dc/dcmitype/StillImage" />
      </cc:Work>
    </rdf:RDF>
  </metadata>
  <defs
     id="defs8" />
  <sodipodi:namedview
     pagecolor="#ffffff"
     bordercolor="#666666"
     borderopacity="1"
     objecttolerance="10"
     gridtolerance="10"
     guidetolerance="10"
     inkscape:pageopacity="0"
     inkscape:pageshadow="2"
     inkscape:window-width="1920"
     inkscape:window-height="1001"
     id="namedview6"
     showgrid="false"
     inkscape:zoom="5.9599"
     inkscape:cx="34.943093"
     inkscape:cy="26.964332"
     inkscape:window-x="0"
     inkscape:window-y="0"
     inkscape:window-maximized="1"
     inkscape:current-layer="svg4" />
  <g
     id="g13">
    <path
       style="fill:#000000;stroke-width:0.03348214"
       inkscape:connector-curvature="0"
       id="path2"
       d="M 57.714286,56.642857 V 20.214286 q 0,-0.435268 -0.318081,-0.753348 -0.31808,-0.318081 -0.753348,-0.318081 H 20.214286 q -0.435268,0 -0.753349,0.318081 -0.31808,0.31808 -0.31808,0.753348 v 36.428571 q 0,0.435268 0.31808,0.753348 0.318081,0.318081 0.753349,0.318081 h 36.428571 q 0.435268,0 0.753348,-0.318081 0.318081,-0.31808 0.318081,-0.753348 z M 62,20.214286 v 36.428571 q 0,2.209822 -1.573661,3.783482 Q 58.852679,62 56.642857,62 H 20.214286 q -2.209822,0 -3.783482,-1.573661 -1.573661,-1.57366 -1.573661,-3.783482 V 20.214286 q 0,-2.209822 1.573661,-3.783482 1.57366,-1.573661 3.783482,-1.573661 h 36.428571 q 2.209822,0 3.783482,1.573661 Q 62,18.004464 62,20.214286 Z M 49.142857,7.3571429 V 12.714286 H 44.857143 V 7.3571429 q 0,-0.4352679 -0.318081,-0.7533483 -0.31808,-0.3180803 -0.753348,-0.3180803 H 7.3571429 q -0.4352679,0 -0.7533483,0.3180803 Q 6.2857143,6.921875 6.2857143,7.3571429 V 43.785714 q 0,0.435268 0.3180803,0.753348 0.3180804,0.318081 0.7533483,0.318081 h 5.3571431 v 4.285714 H 7.3571429 q -2.2098215,0 -3.7834822,-1.573661 Q 2,45.995536 2,43.785714 V 7.3571429 Q 2,5.1473214 3.5736607,3.5736607 5.1473214,2 7.3571429,2 H 43.785714 q 2.209822,0 3.783482,1.5736607 1.573661,1.5736607 1.573661,3.7834822 z" />
    <path
       style="fill:#000000;stroke-width:0.03025767"
       id="path2-3"
       d="m 53,34.000002 q 0,0.812498 -0.55664,1.40625 l -13.125,13.999996 Q 38.76172,50 38,50 37.23828,50 36.68164,49.406247 L 23.55664,35.406252 Q 23,34.8125 23,34.000002 23,33.187498 23.55664,32.593752 24.11328,32 24.875,32 h 26.25 q 0.76172,0 1.31836,0.593752 Q 53,33.187498 53,34.000002 Z"
       inkscape:connector-curvature="0" />
  </g>
</svg>
