<?xml version="1.0" encoding="UTF-8" standalone="no"?>
<svg
   xmlns:dc="http://purl.org/dc/elements/1.1/"
   xmlns:cc="http://creativecommons.org/ns#"
   xmlns:rdf="http://www.w3.org/1999/02/22-rdf-syntax-ns#"
   xmlns:svg="http://www.w3.org/2000/svg"
   xmlns="http://www.w3.org/2000/svg"
   xmlns:sodipodi="http://sodipodi.sourceforge.net/DTD/sodipodi-0.dtd"
   xmlns:inkscape="http://www.inkscape.org/namespaces/inkscape"
   inkscape:version="0.92.5 (2060ec1f9f, 2020-04-08)"
   sodipodi:docname="paused.svg"
   zoomAndPan="magnify"
   xml:space="preserve"
   width="64"
   version="1.1"
   preserveAspectRatio="xMidYMid meet"
   id="Layer_1"
   height="64"
   contentStyleType="text/css"
   contentScriptType="text/ecmascript"><metadata
     id="metadata9"><rdf:RDF><cc:Work
         rdf:about=""><dc:format>image/svg+xml</dc:format><dc:type
           rdf:resource="http://purl.org/dc/dcmitype/StillImage" /></cc:Work></rdf:RDF></metadata><defs
     id="defs7" /><sodipodi:namedview
     inkscape:current-layer="Layer_1"
     inkscape:window-maximized="1"
     inkscape:window-y="0"
     inkscape:window-x="0"
     inkscape:cy="31.593853"
     inkscape:cx="24.415738"
     inkscape:zoom="6.9384853"
     showgrid="false"
     id="namedview5"
     inkscape:window-height="1001"
     inkscape:window-width="1920"
     inkscape:pageshadow="2"
     inkscape:pageopacity="0"
     guidetolerance="10"
     gridtolerance="10"
     objecttolerance="10"
     borderopacity="1"
     bordercolor="#666666"
     pagecolor="#ffffff" /><path
     style="fill:#000000;stroke-width:0.0390624"
     id="path2"
     d="m 62,4.5 v 55 c 0,0.67707 -0.247383,1.263008 -0.742188,1.757812 C 60.763008,61.752617 60.17707,62 59.5,62 h -20 C 38.82293,62 38.236992,61.752617 37.742187,61.257812 37.247383,60.763008 37,60.17707 37,59.5 V 4.5 C 37,3.8229297 37.247383,3.2369922 37.742187,2.7421875 38.236992,2.2473828 38.82293,2 39.5,2 h 20 c 0.67707,0 1.263008,0.2473828 1.757812,0.7421875 C 61.752617,3.2369922 62,3.8229297 62,4.5 Z m -35,0 v 55 c 0,0.67707 -0.247383,1.263008 -0.742188,1.757812 C 25.763008,61.752617 25.17707,62 24.5,62 H 4.5 C 3.8229297,62 3.2369922,61.752617 2.7421875,61.257812 2.2473828,60.763008 2,60.17707 2,59.5 V 4.5 C 2,3.8229297 2.2473828,3.2369922 2.7421875,2.7421875 3.2369922,2.2473828 3.8229297,2 4.5,2 h 20 c 0.67707,0 1.263008,0.2473828 1.757812,0.7421875 C 26.752617,3.2369922 27,3.8229297 27,4.5 Z" /></svg>