<?xml version="1.0" encoding="UTF-8" standalone="no"?>
<svg
   xmlns:dc="http://purl.org/dc/elements/1.1/"
   xmlns:cc="http://creativecommons.org/ns#"
   xmlns:rdf="http://www.w3.org/1999/02/22-rdf-syntax-ns#"
   xmlns:svg="http://www.w3.org/2000/svg"
   xmlns="http://www.w3.org/2000/svg"
   xmlns:sodipodi="http://sodipodi.sourceforge.net/DTD/sodipodi-0.dtd"
   xmlns:inkscape="http://www.inkscape.org/namespaces/inkscape"
   inkscape:version="1.0 (6e3e5246a0, 2020-05-07)"
   sodipodi:docname="point.svg"
   zoomAndPan="magnify"
   xml:space="preserve"
   width="64"
   version="1.1"
   preserveAspectRatio="xMidYMid meet"
   id="Layer_1"
   height="64"
   contentStyleType="text/css"
   contentScriptType="text/ecmascript"><metadata
     id="metadata9"><rdf:RDF><cc:Work
         rdf:about=""><dc:format>image/svg+xml</dc:format><dc:type
           rdf:resource="http://purl.org/dc/dcmitype/StillImage" /></cc:Work></rdf:RDF></metadata><defs
     id="defs7" /><sodipodi:namedview
     inkscape:current-layer="Layer_1"
     inkscape:window-maximized="1"
     inkscape:window-y="0"
     inkscape:window-x="0"
     inkscape:cy="29.864902"
     inkscape:cx="46.622839"
     inkscape:zoom="9.2807765"
     showgrid="false"
     id="namedview5"
     inkscape:window-height="1010"
     inkscape:window-width="1920"
     inkscape:pageshadow="2"
     inkscape:pageopacity="0"
     guidetolerance="10"
     gridtolerance="10"
     objecttolerance="10"
     borderopacity="1"
     bordercolor="#666666"
     pagecolor="#ffffff" /><path
     style="stroke-width:0.0390624"
     id="path2"
     d="m 42,32 c 0,2.76043 -0.976563,5.117187 -2.929688,7.070312 C 37.117187,41.023437 34.76043,42 32,42 29.23957,42 26.882812,41.023437 24.929687,39.070312 22.976562,37.117187 22,34.76043 22,32 22,29.23957 22.976562,26.882812 24.929687,24.929687 26.882812,22.976562 29.23957,22 32,22 c 2.76043,0 5.117187,0.976562 7.070312,2.929687 C 41.023437,26.882812 42,29.23957 42,32 Z m 5,0 C 47,27.859375 45.535156,24.324219 42.605469,21.394531 39.675781,18.464844 36.140625,17 32,17 27.859375,17 24.324219,18.464844 21.394531,21.394531 18.464844,24.324219 17,27.859375 17,32 c 0,4.140625 1.464844,7.675781 4.394531,10.605469 C 24.324219,45.535156 27.859375,47 32,47 36.140625,47 39.675781,45.535156 42.605469,42.605469 45.535156,39.675781 47,36.140625 47,32 Z m 5,0 C 52,37.52082 50.046875,42.234375 46.140625,46.140625 42.234375,50.046875 37.52082,52 32,52 26.47918,52 21.765625,50.046875 17.859375,46.140625 13.953125,42.234375 12,37.52082 12,32 12,26.47918 13.953125,21.765625 17.859375,17.859375 21.765625,13.953125 26.47918,12 32,12 37.52082,12 42.234375,13.953125 46.140625,17.859375 50.046875,21.765625 52,26.47918 52,32 Z m 5,0 C 57,28.61457 56.335937,25.378906 55.007812,22.292969 53.679687,19.207031 51.902344,16.550781 49.675781,14.324219 47.449219,12.097656 44.792969,10.320313 41.707031,8.9921875 38.621094,7.6640625 35.38543,7 32,7 28.61457,7 25.378906,7.6640625 22.292969,8.9921875 19.207031,10.320313 16.550781,12.097656 14.324219,14.324219 12.097656,16.550781 10.320313,19.207031 8.9921875,22.292969 7.6640625,25.378906 7,28.61457 7,32 c 0,3.38543 0.6640625,6.621094 1.9921875,9.707031 1.3281255,3.085938 3.1054685,5.742188 5.3320315,7.96875 2.226562,2.226563 4.882812,4.003906 7.96875,5.332031 C 25.378906,56.335937 28.61457,57 32,57 c 3.38543,0 6.621094,-0.664063 9.707031,-1.992188 3.085938,-1.328125 5.742188,-3.105468 7.96875,-5.332031 2.226563,-2.226562 4.003906,-4.882812 5.332031,-7.96875 C 56.335937,38.621094 57,35.38543 57,32 Z m 5,0 c 0,5.442695 -1.341133,10.462227 -4.023438,15.058594 -2.682304,4.596367 -6.321601,8.235664 -10.917968,10.917968 C 42.462227,60.658867 37.442695,62 32,62 26.557305,62 21.537773,60.658867 16.941406,57.976562 12.345039,55.294258 8.7057422,51.654961 6.0234375,47.058594 3.3411328,42.462227 2,37.442695 2,32 2,26.557305 3.3411328,21.537773 6.0234375,16.941406 8.7057422,12.345039 12.345039,8.7057422 16.941406,6.0234375 21.537773,3.3411328 26.557305,2 32,2 37.442695,2 42.462227,3.3411328 47.058594,6.0234375 51.654961,8.7057422 55.294258,12.345039 57.976562,16.941406 60.658867,21.537773 62,26.557305 62,32 Z" /></svg>
