<?xml version="1.0" encoding="UTF-8" standalone="no"?>
<svg
   xmlns:dc="http://purl.org/dc/elements/1.1/"
   xmlns:cc="http://creativecommons.org/ns#"
   xmlns:rdf="http://www.w3.org/1999/02/22-rdf-syntax-ns#"
   xmlns:svg="http://www.w3.org/2000/svg"
   xmlns="http://www.w3.org/2000/svg"
   xmlns:sodipodi="http://sodipodi.sourceforge.net/DTD/sodipodi-0.dtd"
   xmlns:inkscape="http://www.inkscape.org/namespaces/inkscape"
   height="64"
   width="64"
   version="1.1"
   id="svg4"
   sodipodi:docname="preset_save.svg"
   inkscape:version="0.92.3 (2405546, 2018-03-11)">
  <metadata
     id="metadata10">
    <rdf:RDF>
      <cc:Work
         rdf:about="">
        <dc:format>image/svg+xml</dc:format>
        <dc:type
           rdf:resource="http://purl.org/dc/dcmitype/StillImage" />
        <dc:title></dc:title>
      </cc:Work>
    </rdf:RDF>
  </metadata>
  <defs
     id="defs8" />
  <sodipodi:namedview
     pagecolor="#ffffff"
     bordercolor="#666666"
     borderopacity="1"
     objecttolerance="10"
     gridtolerance="10"
     guidetolerance="10"
     inkscape:pageopacity="0"
     inkscape:pageshadow="2"
     inkscape:window-width="1920"
     inkscape:window-height="1007"
     id="namedview6"
     showgrid="false"
     inkscape:zoom="6.5833339"
     inkscape:cx="0.043745471"
     inkscape:cy="24.152773"
     inkscape:window-x="0"
     inkscape:window-y="0"
     inkscape:window-maximized="1"
     inkscape:current-layer="svg4" />
  <g
     id="g25"
     style="fill:#000000">
    <path
       id="path2"
       d="M 6.6153842,57.714281 H 57.384612 V 23.42857 H 6.6153842 Z M 20.461537,16.999999 V 7.3571424 q 0,-0.46875 -0.324519,-0.7700892 -0.324519,-0.3013393 -0.829327,-0.3013393 h -2.307692 q -0.504808,0 -0.829327,0.3013393 -0.324519,0.3013392 -0.324519,0.7700892 v 9.6428566 q 0,0.46875 0.324519,0.770089 0.324519,0.301339 0.829327,0.301339 h 2.307692 q 0.504808,0 0.829327,-0.301339 0.324519,-0.301339 0.324519,-0.770089 z m 27.692306,0 V 7.3571424 q 0,-0.46875 -0.324519,-0.7700892 -0.324519,-0.3013393 -0.829327,-0.3013393 h -2.307692 q -0.504808,0 -0.829327,0.3013393 -0.324519,0.3013392 -0.324519,0.7700892 v 9.6428566 q 0,0.46875 0.324519,0.770089 0.324519,0.301339 0.829327,0.301339 h 2.307692 q 0.504808,0 0.829327,-0.301339 0.324519,-0.301339 0.324519,-0.770089 z m 13.846153,-2.142857 v 42.857139 q 0,1.741071 -1.370192,3.013393 -1.370192,1.272321 -3.245192,1.272321 H 6.6153842 q -1.8749999,0 -3.2451921,-1.272321 Q 1.9999999,59.455352 1.9999999,57.714281 V 14.857142 q 0,-1.741072 1.3701922,-3.013393 1.3701922,-1.272321 3.2451921,-1.272321 H 11.230768 V 7.3571424 q 0,-2.2098212 1.694712,-3.7834818 Q 14.620191,2 16.999999,2 h 2.307692 q 2.379808,0 4.074519,1.5736606 1.694711,1.5736606 1.694711,3.7834818 V 10.571428 H 38.923074 V 7.3571424 q 0,-2.2098212 1.694712,-3.7834818 Q 42.312497,2 44.692305,2 h 2.307692 q 2.379808,0 4.074519,1.5736606 1.694711,1.5736606 1.694711,3.7834818 v 3.2142856 h 4.615385 q 1.875,0 3.245192,1.272321 1.370192,1.272321 1.370192,3.013393 z"
       style="fill:#000000;stroke-width:0.03474606"
       inkscape:connector-curvature="0" />
    <path
       style="fill:#000000;stroke-width:0.0197739"
       id="path2-3"
       d="m 47,32.68686 q 0,0.8081 -0.541937,1.37375 L 32.445161,48.68687 29.812906,51.43434 Q 29.270969,52 28.496772,52 27.722581,52 27.180644,51.43434 L 24.548388,48.68687 17.541937,41.37374 Q 17,40.80808 17,40 q 0,-0.80808 0.541937,-1.37374 l 2.632256,-2.74747 q 0.541937,-0.56565 1.316129,-0.56565 0.774196,0 1.316128,0.56565 l 5.690322,5.9596 L 41.19355,28.56566 Q 41.735482,28 42.509678,28 q 0.774192,0 1.316129,0.56566 l 2.632256,2.74747 Q 47,31.87878 47,32.68686 Z"
       inkscape:connector-curvature="0" />
  </g>
</svg>
