<?xml version="1.0" encoding="UTF-8" standalone="no"?>
<svg
   xmlns:dc="http://purl.org/dc/elements/1.1/"
   xmlns:cc="http://creativecommons.org/ns#"
   xmlns:rdf="http://www.w3.org/1999/02/22-rdf-syntax-ns#"
   xmlns:svg="http://www.w3.org/2000/svg"
   xmlns="http://www.w3.org/2000/svg"
   xmlns:sodipodi="http://sodipodi.sourceforge.net/DTD/sodipodi-0.dtd"
   xmlns:inkscape="http://www.inkscape.org/namespaces/inkscape"
   height="64"
   width="64"
   version="1.1"
   id="svg4"
   sodipodi:docname="preset_load.svg"
   inkscape:version="0.92.3 (2405546, 2018-03-11)">
  <metadata
     id="metadata10">
    <rdf:RDF>
      <cc:Work
         rdf:about="">
        <dc:format>image/svg+xml</dc:format>
        <dc:type
           rdf:resource="http://purl.org/dc/dcmitype/StillImage" />
      </cc:Work>
    </rdf:RDF>
  </metadata>
  <defs
     id="defs8" />
  <sodipodi:namedview
     pagecolor="#ffffff"
     bordercolor="#666666"
     borderopacity="1"
     objecttolerance="10"
     gridtolerance="10"
     guidetolerance="10"
     inkscape:pageopacity="0"
     inkscape:pageshadow="2"
     inkscape:window-width="1920"
     inkscape:window-height="1007"
     id="namedview6"
     showgrid="false"
     inkscape:zoom="6.5833339"
     inkscape:cx="0.043745471"
     inkscape:cy="24.152773"
     inkscape:window-x="0"
     inkscape:window-y="0"
     inkscape:window-maximized="1"
     inkscape:current-layer="svg4" />
  <g
     id="g13"
     style="fill:#000000">
    <path
       id="path2"
       d="M 6.6153842,57.714281 H 57.384612 V 23.42857 H 6.6153842 Z M 20.461537,16.999999 V 7.3571424 q 0,-0.46875 -0.324519,-0.7700892 -0.324519,-0.3013393 -0.829327,-0.3013393 h -2.307692 q -0.504808,0 -0.829327,0.3013393 -0.324519,0.3013392 -0.324519,0.7700892 v 9.6428566 q 0,0.46875 0.324519,0.770089 0.324519,0.301339 0.829327,0.301339 h 2.307692 q 0.504808,0 0.829327,-0.301339 0.324519,-0.301339 0.324519,-0.770089 z m 27.692306,0 V 7.3571424 q 0,-0.46875 -0.324519,-0.7700892 -0.324519,-0.3013393 -0.829327,-0.3013393 h -2.307692 q -0.504808,0 -0.829327,0.3013393 -0.324519,0.3013392 -0.324519,0.7700892 v 9.6428566 q 0,0.46875 0.324519,0.770089 0.324519,0.301339 0.829327,0.301339 h 2.307692 q 0.504808,0 0.829327,-0.301339 0.324519,-0.301339 0.324519,-0.770089 z m 13.846153,-2.142857 v 42.857139 q 0,1.741071 -1.370192,3.013393 -1.370192,1.272321 -3.245192,1.272321 H 6.6153842 q -1.8749999,0 -3.2451921,-1.272321 Q 1.9999999,59.455352 1.9999999,57.714281 V 14.857142 q 0,-1.741072 1.3701922,-3.013393 1.3701922,-1.272321 3.2451921,-1.272321 H 11.230768 V 7.3571424 q 0,-2.2098212 1.694712,-3.7834818 Q 14.620191,2 16.999999,2 h 2.307692 q 2.379808,0 4.074519,1.5736606 1.694711,1.5736606 1.694711,3.7834818 V 10.571428 H 38.923074 V 7.3571424 q 0,-2.2098212 1.694712,-3.7834818 Q 42.312497,2 44.692305,2 h 2.307692 q 2.379808,0 4.074519,1.5736606 1.694711,1.5736606 1.694711,3.7834818 v 3.2142856 h 4.615385 q 1.875,0 3.245192,1.272321 1.370192,1.272321 1.370192,3.013393 z"
       style="fill:#000000;stroke-width:0.03474606"
       inkscape:connector-curvature="0" />
    <path
       id="path2-3"
       d="m 47,34 q 0,0.812501 -0.556641,1.40625 l -13.125,14 Q 32.761718,50 31.999999,50 31.23828,50 30.68164,49.40625 l -13.124999,-14 Q 17,34.812501 17,34 17,33.1875 17.556641,32.59375 18.113281,32 18.875,32 h 26.25 q 0.761719,0 1.318359,0.59375 Q 47,33.1875 47,34 Z"
       inkscape:connector-curvature="0"
       style="fill:#000000;stroke-width:0.03025768" />
  </g>
</svg>
