<?xml version="1.0" encoding="UTF-8" standalone="no"?>
<svg
   xmlns:dc="http://purl.org/dc/elements/1.1/"
   xmlns:cc="http://creativecommons.org/ns#"
   xmlns:rdf="http://www.w3.org/1999/02/22-rdf-syntax-ns#"
   xmlns:svg="http://www.w3.org/2000/svg"
   xmlns="http://www.w3.org/2000/svg"
   xmlns:sodipodi="http://sodipodi.sourceforge.net/DTD/sodipodi-0.dtd"
   xmlns:inkscape="http://www.inkscape.org/namespaces/inkscape"
   height="64"
   width="64"
   version="1.1"
   id="svg4"
   sodipodi:docname="question.svg"
   inkscape:version="0.92.4 (unknown)">
  <metadata
     id="metadata10">
    <rdf:RDF>
      <cc:Work
         rdf:about="">
        <dc:format>image/svg+xml</dc:format>
        <dc:type
           rdf:resource="http://purl.org/dc/dcmitype/StillImage" />
      </cc:Work>
    </rdf:RDF>
  </metadata>
  <defs
     id="defs8" />
  <sodipodi:namedview
     pagecolor="#ffffff"
     bordercolor="#666666"
     borderopacity="1"
     objecttolerance="10"
     gridtolerance="10"
     guidetolerance="10"
     inkscape:pageopacity="0"
     inkscape:pageshadow="2"
     inkscape:window-width="1920"
     inkscape:window-height="1010"
     id="namedview6"
     showgrid="false"
     inkscape:zoom="11.313708"
     inkscape:cx="26.137692"
     inkscape:cy="31.878864"
     inkscape:window-x="0"
     inkscape:window-y="0"
     inkscape:window-maximized="1"
     inkscape:current-layer="svg4" />
  <path
     d="m 38.321757,48.875 v 11.25 q 0,0.75 -0.519427,1.312501 Q 37.282902,62 36.590334,62 H 26.201794 Q 25.509225,62 24.989797,61.437501 24.470371,60.875 24.470371,60.125 v -11.25 q 0,-0.75 0.519426,-1.312499 Q 25.509225,47 26.201794,47 h 10.38854 q 0.692568,0 1.211996,0.562501 Q 38.321757,48.125 38.321757,48.875 Z M 52,20.75 q 0,2.531249 -0.670925,4.734376 -0.670928,2.203125 -1.514997,3.585937 -0.844067,1.382813 -2.380706,2.789063 -1.536638,1.406248 -2.488921,2.039063 -0.952283,0.63281 -2.640421,1.664062 -1.774708,1.078123 -2.965062,3.046875 -1.190354,1.96875 -1.190354,3.140624 0,0.796874 -0.519426,1.523439 Q 37.109761,44 36.417191,44 H 26.028652 q -0.649284,0 -1.103781,-0.867187 -0.4545,-0.867189 -0.4545,-1.757813 v -2.109376 q 0,-3.890624 2.813563,-7.335937 2.813563,-3.445311 6.189837,-5.085939 2.55385,-1.265622 3.63599,-2.625 1.082139,-1.359372 1.082139,-3.562499 0,-1.96875 -2.012779,-3.46875 -2.01278,-1.5 -4.6532,-1.5 -2.813564,0 -4.674844,1.359375 -1.514994,1.171874 -4.631556,5.390625 -0.562713,0.75 -1.341854,0.75 -0.519426,0 -1.082138,-0.375 L 12.696693,16.953126 Q 12.133981,16.484376 12.025767,15.781249 11.917548,15.078126 12.263838,14.468748 19.18953,2 32.348347,2 q 3.462846,0 6.968978,1.453125 3.506133,1.453127 6.319695,3.890626 2.813563,2.437501 4.588272,5.976562 Q 52,16.859376 52,20.75 Z"
     id="path2"
     inkscape:connector-curvature="0"
     style="stroke-width:0.04504457" />
</svg>
