<?xml version="1.0" encoding="UTF-8" standalone="no"?>
<svg
   xmlns:dc="http://purl.org/dc/elements/1.1/"
   xmlns:cc="http://creativecommons.org/ns#"
   xmlns:rdf="http://www.w3.org/1999/02/22-rdf-syntax-ns#"
   xmlns:svg="http://www.w3.org/2000/svg"
   xmlns="http://www.w3.org/2000/svg"
   xmlns:sodipodi="http://sodipodi.sourceforge.net/DTD/sodipodi-0.dtd"
   xmlns:inkscape="http://www.inkscape.org/namespaces/inkscape"
   height="64"
   width="64"
   version="1.1"
   id="svg4"
   sodipodi:docname="question.svg"
   inkscape:version="0.92.5 (2060ec1f9f, 2020-04-08)">
  <metadata
     id="metadata10">
    <rdf:RDF>
      <cc:Work
         rdf:about="">
        <dc:format>image/svg+xml</dc:format>
        <dc:type
           rdf:resource="http://purl.org/dc/dcmitype/StillImage" />
      </cc:Work>
    </rdf:RDF>
  </metadata>
  <defs
     id="defs8" />
  <sodipodi:namedview
     pagecolor="#ffffff"
     bordercolor="#666666"
     borderopacity="1"
     objecttolerance="10"
     gridtolerance="10"
     guidetolerance="10"
     inkscape:pageopacity="0"
     inkscape:pageshadow="2"
     inkscape:window-width="1920"
     inkscape:window-height="1001"
     id="namedview6"
     showgrid="false"
     inkscape:zoom="11.313708"
     inkscape:cx="26.137692"
     inkscape:cy="31.878864"
     inkscape:window-x="0"
     inkscape:window-y="0"
     inkscape:window-maximized="1"
     inkscape:current-layer="svg4"
     inkscape:document-rotation="0" />
  <rect
     style="opacity:1;fill:#e6e6e6;stroke:none;stroke-width:1.00213349"
     id="rect3710"
     width="64"
     height="64.00016"
     x="0"
     y="-0.00016021729" />
  <g
     id="g13">
    <circle
       r="32"
       cy="32"
       cx="32"
       id="path11"
       style="fill:#000000" />
    <path
       style="fill:#ffffff;stroke-width:0.0431661"
       inkscape:connector-curvature="0"
       id="path2"
       d="m 38.505669,48.3125 v 10.875 q 0,0.725 -0.493456,1.268751 Q 37.518757,61 36.860817,61 H 26.991704 Q 26.333764,61 25.840307,60.456251 25.346852,59.9125 25.346852,59.1875 v -10.875 q 0,-0.725 0.493455,-1.268749 Q 26.333764,46.5 26.991704,46.5 h 9.869113 q 0.65794,0 1.151396,0.543751 0.493456,0.543749 0.493456,1.268749 z M 51.5,21.125 q 0,2.446874 -0.637379,4.576563 -0.637381,2.129688 -1.439247,3.466406 -0.801864,1.336719 -2.261671,2.696094 -1.459806,1.359374 -2.364475,1.971095 -0.904668,0.611716 -2.5084,1.608593 -1.685972,1.042186 -2.816808,2.945312 -1.130837,1.903125 -1.130837,3.035937 0,0.770312 -0.493454,1.472658 Q 37.354273,43.6 36.696331,43.6 H 26.827219 Q 26.2104,43.6 25.778627,42.761719 25.346852,41.923437 25.346852,41.0625 v -2.039063 q 0,-3.760937 2.672885,-7.091406 2.672885,-3.330468 5.880345,-4.916408 2.426158,-1.223435 3.454191,-2.5375 1.028032,-1.31406 1.028032,-3.443749 0,-1.903125 -1.91214,-3.353125 -1.912141,-1.45 -4.42054,-1.45 -2.672886,0 -4.441102,1.314063 -1.439244,1.132811 -4.399978,5.210937 -0.534577,0.725 -1.274761,0.725 -0.493455,0 -1.028031,-0.3625 L 14.161858,17.454688 Q 13.627282,17.001563 13.524479,16.321874 13.421671,15.642188 13.750646,15.053123 20.330053,3 32.83093,3 q 3.289703,0 6.620529,1.4046875 3.330826,1.4046894 6.00371,3.7609385 2.672885,2.356251 4.358858,5.777343 Q 51.5,17.364063 51.5,21.125 Z" />
  </g>
</svg>
