<?xml version="1.0" encoding="UTF-8" standalone="no"?>
<svg
   xmlns:dc="http://purl.org/dc/elements/1.1/"
   xmlns:cc="http://creativecommons.org/ns#"
   xmlns:rdf="http://www.w3.org/1999/02/22-rdf-syntax-ns#"
   xmlns:svg="http://www.w3.org/2000/svg"
   xmlns="http://www.w3.org/2000/svg"
   xmlns:sodipodi="http://sodipodi.sourceforge.net/DTD/sodipodi-0.dtd"
   xmlns:inkscape="http://www.inkscape.org/namespaces/inkscape"
   contentScriptType="text/ecmascript"
   contentStyleType="text/css"
   height="64"
   id="Layer_1"
   preserveAspectRatio="xMidYMid meet"
   version="1.1"
   width="64"
   xml:space="preserve"
   zoomAndPan="magnify"
   sodipodi:docname="right_arrow.svg"
   inkscape:version="0.92.5 (2060ec1f9f, 2020-04-08)"><metadata
     id="metadata9"><rdf:RDF><cc:Work
         rdf:about=""><dc:format>image/svg+xml</dc:format><dc:type
           rdf:resource="http://purl.org/dc/dcmitype/StillImage" /><dc:title /></cc:Work></rdf:RDF></metadata><defs
     id="defs7" /><sodipodi:namedview
     pagecolor="#ffffff"
     bordercolor="#666666"
     borderopacity="1"
     objecttolerance="10"
     gridtolerance="10"
     guidetolerance="10"
     inkscape:pageopacity="0"
     inkscape:pageshadow="2"
     inkscape:window-width="1091"
     inkscape:window-height="806"
     id="namedview5"
     showgrid="false"
     inkscape:zoom="5.2149125"
     inkscape:cx="-39.529334"
     inkscape:cy="35.177147"
     inkscape:window-x="682"
     inkscape:window-y="71"
     inkscape:window-maximized="0"
     inkscape:current-layer="Layer_1"
     inkscape:document-rotation="0" /><path
     d="m 30.247283,62 c -1.38587,0 -2.608696,-0.474955 -3.668479,-1.424904 l -3.057065,-2.888318 c -1.032595,-0.975597 -1.548913,-2.143787 -1.548913,-3.504493 0,-1.386393 0.516318,-2.54172 1.548913,-3.465982 L 35.464674,39.394095 H 6.769022 c -1.413057,0 -2.561128,-0.481386 -3.444294,-1.444159 C 2.441562,36.987163 2,35.825404 2,34.464698 V 29.535302 C 2,28.174596 2.441562,27.012837 3.324728,26.050064 4.207894,25.087291 5.355965,24.605905 6.769022,24.605905 H 35.464674 L 23.521739,13.283697 c -1.032595,-0.924262 -1.548913,-2.079589 -1.548913,-3.465982 0,-1.386393 0.516318,-2.54172 1.548913,-3.465982 L 26.578804,3.463415 C 27.611399,2.487818 28.834226,2 30.247283,2 c 1.440203,0 2.676644,0.487818 3.709239,1.463415 L 60.491848,28.534018 C 61.497296,29.432593 62,30.58792 62,32 c 0,1.386393 -0.502704,2.554544 -1.508152,3.504493 L 33.956522,60.575096 C 32.896739,61.525045 31.66034,62 30.247283,62 Z"
     id="path2"
     inkscape:connector-curvature="0"
     style="fill:#000000;stroke-width:0.0396199" /></svg>