<?xml version="1.0" encoding="UTF-8" standalone="no"?>
<svg
   xmlns:dc="http://purl.org/dc/elements/1.1/"
   xmlns:cc="http://creativecommons.org/ns#"
   xmlns:rdf="http://www.w3.org/1999/02/22-rdf-syntax-ns#"
   xmlns:svg="http://www.w3.org/2000/svg"
   xmlns="http://www.w3.org/2000/svg"
   xmlns:sodipodi="http://sodipodi.sourceforge.net/DTD/sodipodi-0.dtd"
   xmlns:inkscape="http://www.inkscape.org/namespaces/inkscape"
   inkscape:version="1.0 (6e3e5246a0, 2020-05-07)"
   sodipodi:docname="rule.svg"
   id="svg4"
   version="1.1"
   width="64"
   height="64">
  <metadata
     id="metadata10">
    <rdf:RDF>
      <cc:Work
         rdf:about="">
        <dc:format>image/svg+xml</dc:format>
        <dc:type
           rdf:resource="http://purl.org/dc/dcmitype/StillImage" />
      </cc:Work>
    </rdf:RDF>
  </metadata>
  <defs
     id="defs8" />
  <sodipodi:namedview
     inkscape:current-layer="svg4"
     inkscape:window-maximized="1"
     inkscape:window-y="0"
     inkscape:window-x="0"
     inkscape:cy="81.264389"
     inkscape:cx="76.462678"
     inkscape:zoom="5.6071428"
     showgrid="false"
     id="namedview6"
     inkscape:window-height="1137"
     inkscape:window-width="1920"
     inkscape:pageshadow="2"
     inkscape:pageopacity="0"
     guidetolerance="10"
     gridtolerance="10"
     objecttolerance="10"
     borderopacity="1"
     bordercolor="#666666"
     pagecolor="#ffffff" />
  <path
     style="fill:#000000;stroke-width:0.0337851"
     id="path2"
     d="m 13.785714,32 q 0,0.477273 -0.301339,0.784091 l -9.6428571,9.818182 q -0.3013393,0.306818 -0.7700893,0.306818 -0.4352678,0 -0.7533482,-0.323864 Q 2,42.261364 2,41.818182 V 22.181818 q 0,-0.443182 0.3180804,-0.767045 0.3180804,-0.323864 0.7533482,-0.323864 0.46875,0 0.7700893,0.306818 l 9.6428571,9.818182 Q 13.785714,31.522727 13.785714,32 Z M 62,48.363636 v 6.545455 q 0,0.443182 -0.31808,0.767045 Q 61.363839,56 60.928571,56 H 3.0714286 Q 2.6361608,56 2.3180804,55.676136 2,55.352273 2,54.909091 V 48.363636 Q 2,47.920455 2.3180804,47.596591 2.6361608,47.272727 3.0714286,47.272727 H 60.928571 q 0.435268,0 0.753349,0.323864 Q 62,47.920455 62,48.363636 Z m 0,-13.090909 v 6.545455 q 0,0.443182 -0.31808,0.767045 -0.318081,0.323864 -0.753349,0.323864 H 24.5 q -0.435267,0 -0.753348,-0.323864 -0.318081,-0.323863 -0.318081,-0.767045 v -6.545455 q 0,-0.443182 0.318081,-0.767045 Q 24.064733,34.181818 24.5,34.181818 h 36.428571 q 0.435268,0 0.753349,0.323864 Q 62,34.829545 62,35.272727 Z m 0,-13.090909 v 6.545455 q 0,0.443182 -0.31808,0.767045 -0.318081,0.323864 -0.753349,0.323864 H 24.5 q -0.435267,0 -0.753348,-0.323864 -0.318081,-0.323863 -0.318081,-0.767045 v -6.545455 q 0,-0.443182 0.318081,-0.767045 Q 24.064733,21.090909 24.5,21.090909 h 36.428571 q 0.435268,0 0.753349,0.323864 Q 62,21.738636 62,22.181818 Z M 62,9.0909091 v 6.5454549 q 0,0.443181 -0.31808,0.767045 -0.318081,0.323864 -0.753349,0.323864 H 3.0714286 q -0.4352678,0 -0.7533482,-0.323864 Q 2,16.079545 2,15.636364 V 9.0909091 Q 2,8.6477273 2.3180804,8.3238636 2.6361608,8 3.0714286,8 H 60.928571 Q 61.363839,8 61.68192,8.3238636 62,8.6477273 62,9.0909091 Z" />
</svg>
