<?xml version="1.0" encoding="UTF-8" standalone="no"?>
<svg
   xmlns:dc="http://purl.org/dc/elements/1.1/"
   xmlns:cc="http://creativecommons.org/ns#"
   xmlns:rdf="http://www.w3.org/1999/02/22-rdf-syntax-ns#"
   xmlns:svg="http://www.w3.org/2000/svg"
   xmlns="http://www.w3.org/2000/svg"
   xmlns:sodipodi="http://sodipodi.sourceforge.net/DTD/sodipodi-0.dtd"
   xmlns:inkscape="http://www.inkscape.org/namespaces/inkscape"
   height="64"
   width="64"
   version="1.1"
   id="svg4"
   sodipodi:docname="run.svg"
   inkscape:version="0.92.3 (2405546, 2018-03-11)">
  <metadata
     id="metadata10">
    <rdf:RDF>
      <cc:Work
         rdf:about="">
        <dc:format>image/svg+xml</dc:format>
        <dc:type
           rdf:resource="http://purl.org/dc/dcmitype/StillImage" />
        <dc:title></dc:title>
      </cc:Work>
    </rdf:RDF>
  </metadata>
  <defs
     id="defs8" />
  <sodipodi:namedview
     pagecolor="#ffffff"
     bordercolor="#666666"
     borderopacity="1"
     objecttolerance="10"
     gridtolerance="10"
     guidetolerance="10"
     inkscape:pageopacity="0"
     inkscape:pageshadow="2"
     inkscape:window-width="1920"
     inkscape:window-height="1099"
     id="namedview6"
     showgrid="false"
     inkscape:zoom="8.4285714"
     inkscape:cx="17.466418"
     inkscape:cy="44.813277"
     inkscape:window-x="0"
     inkscape:window-y="36"
     inkscape:window-maximized="1"
     inkscape:current-layer="svg4" />
  <path
     d="M 3.7509728,61.436993 Q 3.0116732,62.177792 2.5058366,61.943855 2,61.709919 2,60.696195 V 3.3038054 Q 2,2.2900811 2.5058366,2.0561447 3.0116732,1.8222084 3.7509728,2.5630069 L 31.377432,30.245477 q 0.311284,0.311915 0.505836,0.740799 V 3.3038054 q 0,-1.0137243 0.505837,-1.2476607 0.505837,-0.2339363 1.245136,0.5068622 L 61.2607,30.245477 Q 62,30.986276 62,32 q 0,1.013724 -0.7393,1.754523 l -27.626459,27.68247 q -0.739299,0.740799 -1.245136,0.506862 -0.505837,-0.233936 -0.505837,-1.24766 V 33.013724 q -0.194552,0.389894 -0.505836,0.740799 z"
     id="path2"
     inkscape:connector-curvature="0"
     style="stroke-width:0.03894993" />
</svg>
