<?xml version="1.0" encoding="UTF-8" standalone="no"?>
<svg
   xmlns:dc="http://purl.org/dc/elements/1.1/"
   xmlns:cc="http://creativecommons.org/ns#"
   xmlns:rdf="http://www.w3.org/1999/02/22-rdf-syntax-ns#"
   xmlns:svg="http://www.w3.org/2000/svg"
   xmlns="http://www.w3.org/2000/svg"
   xmlns:sodipodi="http://sodipodi.sourceforge.net/DTD/sodipodi-0.dtd"
   xmlns:inkscape="http://www.inkscape.org/namespaces/inkscape"
   inkscape:version="0.92.5 (2060ec1f9f, 2020-04-08)"
   sodipodi:docname="save.svg"
   zoomAndPan="magnify"
   xml:space="preserve"
   width="64"
   version="1.1"
   preserveAspectRatio="xMidYMid meet"
   id="Layer_1"
   height="64"
   contentStyleType="text/css"
   contentScriptType="text/ecmascript"><metadata
     id="metadata9"><rdf:RDF><cc:Work
         rdf:about=""><dc:format>image/svg+xml</dc:format><dc:type
           rdf:resource="http://purl.org/dc/dcmitype/StillImage" /></cc:Work></rdf:RDF></metadata><defs
     id="defs7" /><sodipodi:namedview
     inkscape:current-layer="Layer_1"
     inkscape:window-maximized="1"
     inkscape:window-y="0"
     inkscape:window-x="0"
     inkscape:cy="12.218961"
     inkscape:cx="37.444132"
     inkscape:zoom="4.9062499"
     showgrid="false"
     id="namedview5"
     inkscape:window-height="1001"
     inkscape:window-width="1920"
     inkscape:pageshadow="2"
     inkscape:pageopacity="0"
     guidetolerance="10"
     gridtolerance="10"
     objecttolerance="10"
     borderopacity="1"
     bordercolor="#666666"
     pagecolor="#ffffff" /><rect
     style="opacity:1;fill:#e6e6e6;stroke:none;stroke-width:1.00213349"
     id="rect3710-3"
     width="64"
     height="64.00016"
     x="0"
     y="-0.00016021729" /><path
     style="fill:#000000;stroke-width:0.0390625"
     id="path2"
     d="M 17,57 H 47 V 42 H 17 Z m 35,0 h 5 V 22 c 0,-0.36457 -0.130195,-0.865898 -0.390625,-1.503906 -0.26043,-0.638008 -0.52082,-1.087227 -0.78125,-1.347657 L 44.851562,8.171875 C 44.591133,7.9114453 44.148437,7.6510547 43.523437,7.390625 42.898437,7.1301953 42.390625,7 42,7 v 16.25 c 0,1.04168 -0.36457,1.92707 -1.09375,2.65625 C 40.17707,26.63543 39.29168,27 38.25,27 H 15.75 C 14.70832,27 13.82293,26.63543 13.09375,25.90625 12.36457,25.17707 12,24.29168 12,23.25 V 7 H 7 v 50 h 5 V 40.75 c 0,-1.04168 0.36457,-1.92707 1.09375,-2.65625 C 13.82293,37.36457 14.70832,37 15.75,37 h 32.5 c 1.04168,0 1.92707,0.36457 2.65625,1.09375 C 51.63543,38.82293 52,39.70832 52,40.75 Z M 37,20.75 V 8.25 C 37,7.9114453 36.876289,7.6184766 36.628906,7.3710937 36.381523,7.1237109 36.088555,7 35.75,7 h -7.5 C 27.911445,7 27.618477,7.1237109 27.371094,7.3710937 27.123711,7.6184766 27,7.9114453 27,8.25 v 12.5 c 0,0.338555 0.123711,0.631523 0.371094,0.878906 C 27.618477,21.876289 27.911445,22 28.25,22 h 7.5 c 0.338555,0 0.631523,-0.123711 0.878906,-0.371094 C 36.876289,21.381523 37,21.088555 37,20.75 Z M 62,22 v 36.25 c 0,1.04168 -0.36457,1.92707 -1.09375,2.65625 C 60.17707,61.63543 59.29168,62 58.25,62 H 5.75 C 4.7083203,62 3.8229297,61.63543 3.09375,60.90625 2.3645703,60.17707 2,59.29168 2,58.25 V 5.75 C 2,4.7083203 2.3645703,3.8229297 3.09375,3.09375 3.8229297,2.3645703 4.7083203,2 5.75,2 H 42 c 1.04168,0 2.1875,0.2604297 3.4375,0.78125 1.25,0.5208203 2.23957,1.1458203 2.96875,1.875 l 10.9375,10.9375 c 0.72918,0.72918 1.35418,1.71875 1.875,2.96875 C 61.73957,19.8125 62,20.95832 62,22 Z"
     inkscape:connector-curvature="0" /></svg>