<?xml version="1.0" encoding="UTF-8" standalone="no"?>
<svg
   xmlns:dc="http://purl.org/dc/elements/1.1/"
   xmlns:cc="http://creativecommons.org/ns#"
   xmlns:rdf="http://www.w3.org/1999/02/22-rdf-syntax-ns#"
   xmlns:svg="http://www.w3.org/2000/svg"
   xmlns="http://www.w3.org/2000/svg"
   xmlns:sodipodi="http://sodipodi.sourceforge.net/DTD/sodipodi-0.dtd"
   xmlns:inkscape="http://www.inkscape.org/namespaces/inkscape"
   contentScriptType="text/ecmascript"
   contentStyleType="text/css"
   height="100%"
   id="Layer_1"
   preserveAspectRatio="xMidYMid meet"
   version="1.1"
   viewBox="0 0 64 64"
   width="100%"
   xml:space="preserve"
   zoomAndPan="magnify"
   sodipodi:docname="select_all.svg"
   inkscape:version="0.92.5 (2060ec1f9f, 2020-04-08)"><metadata
     id="metadata9"><rdf:RDF><cc:Work
         rdf:about=""><dc:format>image/svg+xml</dc:format><dc:type
           rdf:resource="http://purl.org/dc/dcmitype/StillImage" /><dc:title /></cc:Work></rdf:RDF></metadata><defs
     id="defs7" /><sodipodi:namedview
     pagecolor="#ffffff"
     bordercolor="#666666"
     borderopacity="1"
     objecttolerance="10"
     gridtolerance="10"
     guidetolerance="10"
     inkscape:pageopacity="0"
     inkscape:pageshadow="2"
     inkscape:window-width="1920"
     inkscape:window-height="1001"
     id="namedview5"
     showgrid="false"
     inkscape:zoom="3.6875"
     inkscape:cx="-108.51099"
     inkscape:cy="5.2379081"
     inkscape:window-x="0"
     inkscape:window-y="0"
     inkscape:window-maximized="1"
     inkscape:current-layer="Layer_1" /><g
     id="g4523"><path
       style="fill:#000000;stroke-width:0.02613256"
       inkscape:connector-curvature="0"
       id="path2"
       d="m 30.461538,37.454546 v 10.90909 c 0,0.984858 -0.304495,1.837131 -0.913461,2.556818 C 28.93911,51.640142 28.217957,52 27.384615,52 H 15.076923 C 14.243582,52 13.522428,51.640142 12.913462,50.920454 12.304495,50.200767 12,49.348494 12,48.363636 v -10.90909 c 0,-0.984859 0.304495,-1.837132 0.913462,-2.556819 0.608966,-0.719687 1.33012,-1.079545 2.163461,-1.079545 h 12.307692 c 0.833342,0 1.554495,0.359858 2.163462,1.079545 0.608966,0.719687 0.913461,1.57196 0.913461,2.556819 z m 0,-21.818182 v 10.90909 c 0,0.984859 -0.304495,1.837132 -0.913461,2.556819 -0.608967,0.719687 -1.33012,1.079545 -2.163462,1.079545 H 15.076923 c -0.833341,0 -1.554495,-0.359858 -2.163461,-1.079545 C 12.304495,28.382586 12,27.530313 12,26.545454 v -10.90909 c 0,-0.984858 0.304495,-1.837131 0.913462,-2.556818 C 13.522428,12.359858 14.243582,12 15.076923,12 h 12.307692 c 0.833342,0 1.554495,0.359858 2.163462,1.079546 0.608966,0.719687 0.913461,1.57196 0.913461,2.556818 z M 52,37.454546 v 10.90909 c 0,0.984858 -0.304495,1.837131 -0.913462,2.556818 C 50.477572,51.640142 49.756418,52 48.923077,52 H 36.615385 c -0.833342,0 -1.554495,-0.359858 -2.163462,-1.079546 -0.608966,-0.719687 -0.913461,-1.57196 -0.913461,-2.556818 v -10.90909 c 0,-0.984859 0.304495,-1.837132 0.913461,-2.556819 0.608967,-0.719687 1.33012,-1.079545 2.163462,-1.079545 h 12.307692 c 0.833341,0 1.554495,0.359858 2.163461,1.079545 C 51.695505,35.617414 52,36.469687 52,37.454546 Z m 0,-21.818182 v 10.90909 c 0,0.984859 -0.304495,1.837132 -0.913462,2.556819 -0.608966,0.719687 -1.33012,1.079545 -2.163461,1.079545 H 36.615385 c -0.833342,0 -1.554495,-0.359858 -2.163462,-1.079545 -0.608966,-0.719687 -0.913461,-1.57196 -0.913461,-2.556819 v -10.90909 c 0,-0.984858 0.304495,-1.837131 0.913461,-2.556818 C 35.06089,12.359858 35.782043,12 36.615385,12 h 12.307692 c 0.833341,0 1.554495,0.359858 2.163461,1.079546 C 51.695505,13.799233 52,14.651506 52,15.636364 Z" /><path
       style="stroke-width:0.04261364;fill:#000000"
       id="path2-3"
       d="M 49.727273,7.454546 H 14.272727 c -1.875,0 -3.480128,0.6676272 -4.8153406,2.0028408 C 8.1221733,10.792599 7.4545455,12.397728 7.4545455,14.272728 v 35.454544 c 0,1.875 0.6676278,3.480129 2.0028409,4.815341 1.3352126,1.335214 2.9403406,2.002841 4.8153406,2.002841 h 35.454546 c 1.875,0 3.480128,-0.667627 4.815341,-2.002841 1.335213,-1.335212 2.002841,-2.940341 2.002841,-4.815341 V 14.272728 c 0,-1.875 -0.667628,-3.480129 -2.002841,-4.8153412 C 53.207401,8.1221732 51.602273,7.454546 49.727273,7.454546 Z M 62,14.272728 v 35.454544 c 0,3.380668 -1.200298,6.271322 -3.600852,8.671876 C 55.998594,60.799701 53.10794,62 49.727273,62 H 14.272727 C 10.89206,62 8.0014062,60.799701 5.6008523,58.399148 3.2002983,55.998594 2,53.10794 2,49.727272 V 14.272728 C 2,10.89206 3.2002983,8.0014064 5.6008523,5.600852 8.0014062,3.2002988 10.89206,2 14.272727,2 H 49.727273 C 53.10794,2 55.998594,3.2002988 58.399148,5.600852 60.799702,8.0014064 62,10.89206 62,14.272728 Z"
       inkscape:connector-curvature="0" /></g></svg>