<?xml version="1.0" encoding="UTF-8" standalone="no"?>
<svg
   xmlns:dc="http://purl.org/dc/elements/1.1/"
   xmlns:cc="http://creativecommons.org/ns#"
   xmlns:rdf="http://www.w3.org/1999/02/22-rdf-syntax-ns#"
   xmlns:svg="http://www.w3.org/2000/svg"
   xmlns="http://www.w3.org/2000/svg"
   xmlns:sodipodi="http://sodipodi.sourceforge.net/DTD/sodipodi-0.dtd"
   xmlns:inkscape="http://www.inkscape.org/namespaces/inkscape"
   contentScriptType="text/ecmascript"
   contentStyleType="text/css"
   height="64"
   id="Layer_1"
   preserveAspectRatio="xMidYMid meet"
   version="1.1"
   width="64"
   xml:space="preserve"
   zoomAndPan="magnify"
   sodipodi:docname="step_stop.svg"
   inkscape:version="0.92.3 (2405546, 2018-03-11)"><metadata
     id="metadata9"><rdf:RDF><cc:Work
         rdf:about=""><dc:format>image/svg+xml</dc:format><dc:type
           rdf:resource="http://purl.org/dc/dcmitype/StillImage" /><dc:title></dc:title></cc:Work></rdf:RDF></metadata><defs
     id="defs7" /><sodipodi:namedview
     pagecolor="#ffffff"
     bordercolor="#666666"
     borderopacity="1"
     objecttolerance="10"
     gridtolerance="10"
     guidetolerance="10"
     inkscape:pageopacity="0"
     inkscape:pageshadow="2"
     inkscape:window-width="1920"
     inkscape:window-height="1099"
     id="namedview5"
     showgrid="false"
     inkscape:zoom="5.2149125"
     inkscape:cx="-4.4180937"
     inkscape:cy="35.500506"
     inkscape:window-x="0"
     inkscape:window-y="36"
     inkscape:window-maximized="1"
     inkscape:current-layer="Layer_1" /><path
     d="M 4.6367187,61.436991 C 3.8945117,61.93087 3.2695508,62.099811 2.7617188,61.943853 2.2538867,61.787896 2,61.371996 2,60.696193 V 3.3038068 C 2,2.6280036 2.2538867,2.2121038 2.7617188,2.0561462 3.2695508,1.9001886 3.8945117,2.0691297 4.6367187,2.5630083 L 46.238281,30.245476 C 46.550762,30.453407 46.804707,30.700366 47,30.986275 V 4.5514674 C 47,3.8756643 47.371074,3.2908233 48.113281,2.7969447 48.855488,2.303066 49.734395,2.0561462 50.75,2.0561462 h 7.5 c 1.015605,0 1.894512,0.2469198 2.636719,0.7407985 C 61.628926,3.2908233 62,3.8756643 62,4.5514674 V 59.448532 c 0,0.675803 -0.371074,1.260644 -1.113281,1.754523 -0.742207,0.493879 -1.621114,0.740798 -2.636719,0.740798 h -7.5 c -1.015605,0 -1.894512,-0.246919 -2.636719,-0.740798 C 47.371074,60.709176 47,60.124335 47,59.448532 V 33.013723 c -0.195293,0.259943 -0.449238,0.506862 -0.761719,0.740799 z"
     id="path2"
     inkscape:connector-curvature="0"
     style="stroke-width:0.04779681" /></svg>