<?xml version="1.0" encoding="UTF-8" standalone="no"?>
<svg
   xmlns:dc="http://purl.org/dc/elements/1.1/"
   xmlns:cc="http://creativecommons.org/ns#"
   xmlns:rdf="http://www.w3.org/1999/02/22-rdf-syntax-ns#"
   xmlns:svg="http://www.w3.org/2000/svg"
   xmlns="http://www.w3.org/2000/svg"
   xmlns:sodipodi="http://sodipodi.sourceforge.net/DTD/sodipodi-0.dtd"
   xmlns:inkscape="http://www.inkscape.org/namespaces/inkscape"
   inkscape:version="0.92.5 (2060ec1f9f, 2020-04-08)"
   sodipodi:docname="step_stop.svg"
   zoomAndPan="magnify"
   xml:space="preserve"
   width="64"
   version="1.1"
   preserveAspectRatio="xMidYMid meet"
   id="Layer_1"
   height="64"
   contentStyleType="text/css"
   contentScriptType="text/ecmascript"><metadata
     id="metadata9"><rdf:RDF><cc:Work
         rdf:about=""><dc:format>image/svg+xml</dc:format><dc:type
           rdf:resource="http://purl.org/dc/dcmitype/StillImage" /><dc:title /></cc:Work></rdf:RDF></metadata><defs
     id="defs7" /><sodipodi:namedview
     inkscape:document-rotation="0"
     inkscape:current-layer="Layer_1"
     inkscape:window-maximized="1"
     inkscape:window-y="0"
     inkscape:window-x="0"
     inkscape:cy="37.836955"
     inkscape:cx="12.950944"
     inkscape:zoom="5.2149125"
     showgrid="false"
     id="namedview5"
     inkscape:window-height="1001"
     inkscape:window-width="1920"
     inkscape:pageshadow="2"
     inkscape:pageopacity="0"
     guidetolerance="10"
     gridtolerance="10"
     objecttolerance="10"
     borderopacity="1"
     bordercolor="#666666"
     pagecolor="#ffffff" /><path
     style="stroke-width:0.03803777;fill:#000000"
     inkscape:connector-curvature="0"
     id="path2"
     d="m 15.669922,61.436991 c -0.470064,0.493879 -0.865872,0.66282 -1.1875,0.506862 C 14.160795,61.787896 14,61.371996 14,60.696193 V 3.3038068 c 0,-0.6758032 0.160795,-1.091703 0.482422,-1.2476606 0.321628,-0.1559576 0.717436,0.012983 1.1875,0.5068621 L 42.017578,30.245476 c 0.197904,0.207931 0.358737,0.45489 0.482422,0.740799 V 4.5514674 C 42.5,3.8756643 42.735013,3.2908233 43.205078,2.7969447 43.675142,2.303066 44.231783,2.0561462 44.875,2.0561462 h 4.75 c 0.643216,0 1.199857,0.2469198 1.669921,0.7407985 C 51.764986,3.2908233 52,3.8756643 52,4.5514674 V 59.448532 c 0,0.675803 -0.235014,1.260644 -0.705079,1.754523 -0.470064,0.493879 -1.026705,0.740798 -1.669921,0.740798 h -4.75 c -0.643217,0 -1.199858,-0.246919 -1.669922,-0.740798 C 42.735013,60.709176 42.5,60.124335 42.5,59.448532 V 33.013723 c -0.123685,0.259943 -0.284518,0.506862 -0.482422,0.740799 z" /></svg>