<?xml version="1.0" encoding="UTF-8" standalone="no"?>
<svg
   xmlns:dc="http://purl.org/dc/elements/1.1/"
   xmlns:cc="http://creativecommons.org/ns#"
   xmlns:rdf="http://www.w3.org/1999/02/22-rdf-syntax-ns#"
   xmlns:svg="http://www.w3.org/2000/svg"
   xmlns="http://www.w3.org/2000/svg"
   xmlns:sodipodi="http://sodipodi.sourceforge.net/DTD/sodipodi-0.dtd"
   xmlns:inkscape="http://www.inkscape.org/namespaces/inkscape"
   contentScriptType="text/ecmascript"
   contentStyleType="text/css"
   height="64"
   id="Layer_1"
   preserveAspectRatio="xMidYMid meet"
   version="1.1"
   width="64"
   xml:space="preserve"
   zoomAndPan="magnify"
   sodipodi:docname="tasks.svg"
   inkscape:version="0.92.5 (2060ec1f9f, 2020-04-08)"><metadata
     id="metadata9"><rdf:RDF><cc:Work
         rdf:about=""><dc:format>image/svg+xml</dc:format><dc:type
           rdf:resource="http://purl.org/dc/dcmitype/StillImage" /></cc:Work></rdf:RDF></metadata><defs
     id="defs7" /><sodipodi:namedview
     pagecolor="#ffffff"
     bordercolor="#666666"
     borderopacity="1"
     objecttolerance="10"
     gridtolerance="10"
     guidetolerance="10"
     inkscape:pageopacity="0"
     inkscape:pageshadow="2"
     inkscape:window-width="1920"
     inkscape:window-height="1001"
     id="namedview5"
     showgrid="false"
     inkscape:zoom="7.375"
     inkscape:cx="6.6919792"
     inkscape:cy="28.131543"
     inkscape:window-x="0"
     inkscape:window-y="0"
     inkscape:window-maximized="1"
     inkscape:current-layer="Layer_1" /><path
     d="m 14.357907,56.212002 c 0,1.794717 -0.613405,3.208065 -1.84018,4.240045 C 11.290951,61.484027 9.7658976,62 7.9425999,62 5.5565447,62 3.6207091,61.259675 2.1350591,59.779024 l 1.924592,-2.961301 c 1.1029938,1.009534 2.2960045,1.514302 3.5790658,1.514302 0.6527744,0 1.2211706,-0.162636 1.705121,-0.487942 0.4839505,-0.325306 0.7259431,-0.802008 0.7259431,-1.430174 0,-1.435793 -1.1817675,-2.063926 -3.5453015,-1.884464 L 5.6465954,52.64498 c 0.1800675,-0.224352 0.5458751,-0.712294 1.0973551,-1.463825 0.55148,-0.751531 1.0298255,-1.357251 1.4350028,-1.817162 0.4051773,-0.45991 0.8215982,-0.891755 1.2492966,-1.295569 v -0.03365 c -0.3601689,0 -0.9060102,0.01121 -1.6375915,0.03365 -0.7315813,0.02244 -1.2774226,0.03365 -1.6375914,0.03365 v 1.783511 H 2.5740011 V 44.770611 H 13.81767 v 2.961302 l -3.207653,3.869882 c 1.148002,0.269209 2.059651,0.818833 2.734946,1.648906 0.675296,0.830073 1.012944,1.817162 1.012944,2.961301 z m 0.06753,-21.099271 v 5.350533 H 2.2025886 C 2.0675295,39.655637 2,39.049916 2,38.646102 c 0,-1.144139 0.2644795,-2.187325 0.7934721,-3.129557 0.5289927,-0.942232 1.1648847,-1.705003 1.9077097,-2.288278 0.742825,-0.583275 1.4856499,-1.116108 2.2284749,-1.59843 0.742825,-0.482322 1.378717,-0.970263 1.9077096,-1.463825 0.5289927,-0.493561 0.7934722,-0.998328 0.7934722,-1.514301 0,-0.560864 -0.1631852,-0.992709 -0.4895892,-1.29557 -0.3264041,-0.30286 -0.770951,-0.45429 -1.3337085,-0.45429 -1.0354643,0 -1.9471131,0.650577 -2.7349465,1.951766 L 2.2025886,26.8682 c 0.5402364,-1.144139 1.3449522,-2.035895 2.4141812,-2.675267 1.0692291,-0.639372 2.256601,-0.959058 3.5621835,-0.959058 1.6432302,0 3.0275857,0.465497 4.1530667,1.396523 1.125481,0.931027 1.688239,2.192945 1.688239,3.785755 0,1.121693 -0.382656,2.148053 -1.148002,3.07908 -0.765346,0.931026 -1.609466,1.654526 -2.532358,2.170499 C 9.4170062,34.181705 8.5672482,34.748188 7.7906584,35.365115 7.0140687,35.982042 6.6145301,36.570937 6.592009,37.1318 h 4.288126 V 35.112731 Z M 62,45.847448 v 6.461021 c 0,0.291654 -0.106933,0.544038 -0.320765,0.757151 -0.213833,0.213112 -0.467068,0.319686 -0.759708,0.319686 H 19.861564 c -0.292639,0 -0.545875,-0.106574 -0.759707,-0.319686 -0.213832,-0.213113 -0.320765,-0.465497 -0.320765,-0.757151 v -6.461021 c 0,-0.314066 0.101294,-0.572069 0.303883,-0.773976 0.202588,-0.201907 0.461463,-0.302861 0.776589,-0.302861 h 41.057963 c 0.29264,0 0.545875,0.106574 0.759708,0.319686 C 61.893067,45.30341 62,45.555794 62,45.847448 Z M 14.459201,15.595064 v 3.331464 H 3.1480023 v -3.331464 h 3.6128306 c 0,-0.919786 0.00564,-2.288278 0.016882,-4.10544 0.011244,-1.8171619 0.016882,-3.1744137 0.016882,-4.0717889 V 7.0140213 h -0.06753 C 6.5469994,7.3953898 5.9842419,8.0011105 5.0388283,8.8311834 L 2.6415295,6.273696 7.2335385,2 H 10.812605 V 15.595064 Z M 62,28.618059 v 6.461021 c 0,0.291655 -0.106933,0.544038 -0.320765,0.757151 -0.213833,0.213113 -0.467068,0.319686 -0.759708,0.319686 H 19.861564 c -0.292639,0 -0.545875,-0.106573 -0.759707,-0.319686 -0.213832,-0.213113 -0.320765,-0.465496 -0.320765,-0.757151 v -6.461021 c 0,-0.314066 0.101294,-0.572069 0.303883,-0.773976 0.202588,-0.201907 0.461463,-0.30286 0.776589,-0.30286 h 41.057963 c 0.29264,0 0.545875,0.106573 0.759708,0.319686 C 61.893067,28.074021 62,28.326405 62,28.618059 Z m 0,-17.229388 v 6.461021 c 0,0.291654 -0.106933,0.544038 -0.320765,0.75715 -0.213833,0.213113 -0.467068,0.319686 -0.759708,0.319686 H 19.861564 c -0.292639,0 -0.545875,-0.106573 -0.759707,-0.319686 -0.213832,-0.213112 -0.320765,-0.465496 -0.320765,-0.75715 v -6.461021 c 0,-0.291655 0.106933,-0.544038 0.320765,-0.757151 0.213832,-0.213113 0.467068,-0.319686 0.759707,-0.319686 h 41.057963 c 0.29264,0 0.545875,0.106573 0.759708,0.319686 C 61.893067,10.844633 62,11.097016 62,11.388671 Z"
     id="path2"
     style="fill:#000000;stroke-width:0.03370791"
     inkscape:connector-curvature="0" /></svg>