<?xml version="1.0" encoding="UTF-8" standalone="no"?>
<svg
   xmlns:dc="http://purl.org/dc/elements/1.1/"
   xmlns:cc="http://creativecommons.org/ns#"
   xmlns:rdf="http://www.w3.org/1999/02/22-rdf-syntax-ns#"
   xmlns:svg="http://www.w3.org/2000/svg"
   xmlns="http://www.w3.org/2000/svg"
   xmlns:sodipodi="http://sodipodi.sourceforge.net/DTD/sodipodi-0.dtd"
   xmlns:inkscape="http://www.inkscape.org/namespaces/inkscape"
   inkscape:version="0.92.5 (2060ec1f9f, 2020-04-08)"
   sodipodi:docname="text.svg"
   id="svg4"
   version="1.1"
   width="100%"
   viewBox="0 0 64 64"
   height="100%">
  <metadata
     id="metadata10">
    <rdf:RDF>
      <cc:Work
         rdf:about="">
        <dc:format>image/svg+xml</dc:format>
        <dc:type
           rdf:resource="http://purl.org/dc/dcmitype/StillImage" />
      </cc:Work>
    </rdf:RDF>
  </metadata>
  <defs
     id="defs8" />
  <sodipodi:namedview
     inkscape:document-rotation="0"
     inkscape:current-layer="svg4"
     inkscape:window-maximized="1"
     inkscape:window-y="0"
     inkscape:window-x="0"
     inkscape:cy="24.795805"
     inkscape:cx="14.325698"
     inkscape:zoom="5.9599"
     showgrid="false"
     id="namedview6"
     inkscape:window-height="1001"
     inkscape:window-width="1920"
     inkscape:pageshadow="2"
     inkscape:pageopacity="0"
     guidetolerance="10"
     gridtolerance="10"
     objecttolerance="10"
     borderopacity="1"
     bordercolor="#666666"
     pagecolor="#ffffff" />
  <path
     style="stroke-width:0.03301384;fill:#000000"
     inkscape:connector-curvature="0"
     id="path2"
     d="m 54.786458,14.723214 q 0.911459,0.9375 1.5625,2.544643 Q 57,18.875 57,20.214286 V 58.785714 Q 57,60.125 56.088542,61.0625 55.177083,62 53.875,62 H 10.125 Q 8.8229167,62 7.9114583,61.0625 7,60.125 7,58.785714 V 5.2142857 Q 7,3.875 7.9114583,2.9375 8.8229167,2 10.125,2 h 29.166667 q 1.302083,0 2.864583,0.6696429 1.5625,0.6696428 2.473958,1.6071428 z M 40.333333,6.5535714 V 19.142857 H 52.572917 Q 52.247396,18.171875 51.856771,17.770089 L 41.667968,7.2901786 Q 41.277343,6.8883929 40.333333,6.5535714 Z m 12.5,51.1607146 V 23.428571 H 39.291667 q -1.302084,0 -2.213542,-0.9375 -0.911458,-0.9375 -0.911458,-2.276785 V 6.2857143 h -25 V 57.714286 Z M 19.5,28.785714 q 0,-0.46875 0.292968,-0.770089 0.29297,-0.301339 0.748699,-0.301339 h 22.916666 q 0.45573,0 0.748698,0.301339 Q 44.5,28.316964 44.5,28.785714 v 2.142857 q 0,0.46875 -0.292969,0.77009 Q 43.914063,32 43.458333,32 H 20.541667 Q 20.085938,32 19.792968,31.698661 19.5,31.397321 19.5,30.928571 Z m 23.958333,7.5 q 0.45573,0 0.748698,0.30134 Q 44.5,36.888393 44.5,37.357143 V 39.5 q 0,0.46875 -0.292969,0.770089 -0.292968,0.30134 -0.748698,0.30134 H 20.541667 q -0.455729,0 -0.748699,-0.30134 Q 19.5,39.96875 19.5,39.5 v -2.142857 q 0,-0.46875 0.292968,-0.770089 0.29297,-0.30134 0.748699,-0.30134 z m 0,8.571429 q 0.45573,0 0.748698,0.301339 Q 44.5,45.459821 44.5,45.928571 v 2.142858 q 0,0.46875 -0.292969,0.770089 -0.292968,0.301339 -0.748698,0.301339 H 20.541667 q -0.455729,0 -0.748699,-0.301339 Q 19.5,48.540179 19.5,48.071429 v -2.142858 q 0,-0.46875 0.292968,-0.770089 0.29297,-0.301339 0.748699,-0.301339 z" />
</svg>
