<?xml version="1.0" encoding="UTF-8" standalone="no"?>
<svg
   xmlns:dc="http://purl.org/dc/elements/1.1/"
   xmlns:cc="http://creativecommons.org/ns#"
   xmlns:rdf="http://www.w3.org/1999/02/22-rdf-syntax-ns#"
   xmlns:svg="http://www.w3.org/2000/svg"
   xmlns="http://www.w3.org/2000/svg"
   xmlns:sodipodi="http://sodipodi.sourceforge.net/DTD/sodipodi-0.dtd"
   xmlns:inkscape="http://www.inkscape.org/namespaces/inkscape"
   contentScriptType="text/ecmascript"
   contentStyleType="text/css"
   height="64"
   id="Layer_1"
   preserveAspectRatio="xMidYMid meet"
   version="1.1"
   width="64"
   xml:space="preserve"
   zoomAndPan="magnify"
   sodipodi:docname="up_arrow.svg"
   inkscape:version="0.92.3 (2405546, 2018-03-11)"><metadata
     id="metadata9"><rdf:RDF><cc:Work
         rdf:about=""><dc:format>image/svg+xml</dc:format><dc:type
           rdf:resource="http://purl.org/dc/dcmitype/StillImage" /></cc:Work></rdf:RDF></metadata><defs
     id="defs7" /><sodipodi:namedview
     pagecolor="#ffffff"
     bordercolor="#666666"
     borderopacity="1"
     objecttolerance="10"
     gridtolerance="10"
     guidetolerance="10"
     inkscape:pageopacity="0"
     inkscape:pageshadow="2"
     inkscape:window-width="1091"
     inkscape:window-height="806"
     id="namedview5"
     showgrid="false"
     inkscape:zoom="5.2149125"
     inkscape:cx="-5.8758449"
     inkscape:cy="35.177147"
     inkscape:window-x="682"
     inkscape:window-y="71"
     inkscape:window-maximized="0"
     inkscape:current-layer="Layer_1" /><path
     d="m 62,33.752717 c 0,1.38587 -0.474955,2.608696 -1.424904,3.668479 l -2.888318,3.057065 c -0.975597,1.032595 -2.143787,1.548913 -3.504493,1.548913 -1.386393,0 -2.54172,-0.516318 -3.465982,-1.548913 L 39.394095,28.535326 v 28.695652 c 0,1.413057 -0.481386,2.561128 -1.444159,3.444294 C 36.987163,61.558438 35.825404,62 34.464698,62 h -4.929396 c -1.360706,0 -2.522465,-0.441562 -3.485238,-1.324728 -0.962773,-0.883166 -1.444159,-2.031237 -1.444159,-3.444294 V 28.535326 L 13.283697,40.478261 c -0.924262,1.032595 -2.079589,1.548913 -3.465982,1.548913 -1.3863928,0 -2.5417201,-0.516318 -3.465982,-1.548913 L 3.4634146,37.421196 C 2.4878177,36.388601 2,35.165774 2,33.752717 2,32.312514 2.4878177,31.076073 3.4634146,30.043478 L 28.534018,3.5081522 C 29.432593,2.5027038 30.58792,2 32,2 c 1.386393,0 2.554544,0.5027038 3.504493,1.5081522 L 60.575096,30.043478 C 61.525045,31.103261 62,32.33966 62,33.752717 Z"
     id="path2"
     inkscape:connector-curvature="0"
     style="stroke-width:0.03961992;fill:#000000" /></svg>