<?xml version="1.0" encoding="UTF-8" standalone="no"?>
<svg
   xmlns:dc="http://purl.org/dc/elements/1.1/"
   xmlns:cc="http://creativecommons.org/ns#"
   xmlns:rdf="http://www.w3.org/1999/02/22-rdf-syntax-ns#"
   xmlns:svg="http://www.w3.org/2000/svg"
   xmlns="http://www.w3.org/2000/svg"
   xmlns:sodipodi="http://sodipodi.sourceforge.net/DTD/sodipodi-0.dtd"
   xmlns:inkscape="http://www.inkscape.org/namespaces/inkscape"
   height="64"
   width="64"
   version="1.1"
   id="svg4"
   sodipodi:docname="zoom_undo.svg"
   inkscape:version="1.0 (6e3e5246a0, 2020-05-07)">
  <metadata
     id="metadata10">
    <rdf:RDF>
      <cc:Work
         rdf:about="">
        <dc:format>image/svg+xml</dc:format>
        <dc:type
           rdf:resource="http://purl.org/dc/dcmitype/StillImage" />
        <dc:title />
      </cc:Work>
    </rdf:RDF>
  </metadata>
  <defs
     id="defs8" />
  <sodipodi:namedview
     pagecolor="#ffffff"
     bordercolor="#666666"
     borderopacity="1"
     objecttolerance="10"
     gridtolerance="10"
     guidetolerance="10"
     inkscape:pageopacity="0"
     inkscape:pageshadow="2"
     inkscape:window-width="1920"
     inkscape:window-height="1137"
     id="namedview6"
     showgrid="false"
     inkscape:zoom="5.12"
     inkscape:cx="-24.286287"
     inkscape:cy="33.163884"
     inkscape:window-x="0"
     inkscape:window-y="0"
     inkscape:window-maximized="1"
     inkscape:current-layer="svg4"
     inkscape:document-rotation="0" />
  <g
     style="fill:#000000"
     id="g21">
    <path
       style="stroke-width:0.03605769;fill:#000000"
       inkscape:connector-curvature="0"
       id="path2"
       d="m 43.538462,27.384615 q 0,-6.670673 -4.741587,-11.412259 -4.741587,-4.741587 -11.41226,-4.741587 -6.670673,0 -11.412259,4.741587 -4.741587,4.741586 -4.741587,11.412259 0,6.670673 4.741587,11.41226 4.741586,4.741587 11.412259,4.741587 6.670673,0 11.41226,-4.741587 4.741587,-4.741587 4.741587,-11.41226 z m 18.461538,30 q 0,1.875 -1.370192,3.245193 Q 59.259615,62 57.384615,62 55.4375,62 54.139423,60.629808 L 41.771635,48.298077 q -6.454327,4.471154 -14.38702,4.471154 -5.15625,0 -9.861778,-2.001202 Q 12.817308,48.766827 9.4098558,45.359375 6.0024038,41.951923 4.0012019,37.246394 2,32.540865 2,27.384615 2,22.228365 4.0012019,17.522837 6.0024038,12.817308 9.4098558,9.4098558 12.817308,6.0024038 17.522837,4.0012019 22.228365,2 27.384615,2 q 5.15625,0 9.861779,2.0012019 4.705529,2.0012019 8.112981,5.4086539 3.407452,3.4074522 5.408654,8.1129812 2.001202,4.705528 2.001202,9.861778 0,7.932693 -4.471154,14.38702 L 60.665865,54.139423 Q 62,55.473558 62,57.384615 Z" />
    <path
       style="stroke-width:0.014323;fill:#000000"
       d="m 38.5,27.5 c 0,1.995655 -0.491749,3.83615 -1.47526,5.521484 -0.983512,1.685335 -2.317921,3.019744 -4.003256,4.003256 C 31.33615,38.008251 29.495655,38.5 27.5,38.5 25.504345,38.5 23.66385,38.008251 21.978515,37.02474 20.29318,36.041228 18.958772,34.706819 17.97526,33.021484 16.991749,31.33615 16.5,29.495655 16.5,27.5 c 0,-1.995655 0.491749,-3.83615 1.47526,-5.521485 0.983512,-1.685335 2.31792,-3.019743 4.003255,-4.003255 C 23.66385,16.991749 25.504345,16.5 27.5,16.5 c 1.995655,0 3.83615,0.491749 5.521484,1.47526 1.685335,0.983512 3.019744,2.31792 4.003256,4.003255 C 38.008251,23.66385 38.5,25.504345 38.5,27.5 Z"
       id="path2-6" />
  </g>
</svg>
