<?xml version="1.0" encoding="UTF-8" standalone="no"?>
<svg
   xmlns:dc="http://purl.org/dc/elements/1.1/"
   xmlns:cc="http://creativecommons.org/ns#"
   xmlns:rdf="http://www.w3.org/1999/02/22-rdf-syntax-ns#"
   xmlns:svg="http://www.w3.org/2000/svg"
   xmlns="http://www.w3.org/2000/svg"
   xmlns:sodipodi="http://sodipodi.sourceforge.net/DTD/sodipodi-0.dtd"
   xmlns:inkscape="http://www.inkscape.org/namespaces/inkscape"
   height="64"
   width="64"
   version="1.1"
   id="svg4"
   sodipodi:docname="zoom_fit.svg"
   inkscape:version="0.92.5 (2060ec1f9f, 2020-04-08)">
  <metadata
     id="metadata10">
    <rdf:RDF>
      <cc:Work
         rdf:about="">
        <dc:format>image/svg+xml</dc:format>
        <dc:type
           rdf:resource="http://purl.org/dc/dcmitype/StillImage" />
        <dc:title />
      </cc:Work>
    </rdf:RDF>
  </metadata>
  <defs
     id="defs8" />
  <sodipodi:namedview
     pagecolor="#ffffff"
     bordercolor="#666666"
     borderopacity="1"
     objecttolerance="10"
     gridtolerance="10"
     guidetolerance="10"
     inkscape:pageopacity="0"
     inkscape:pageshadow="2"
     inkscape:window-width="1920"
     inkscape:window-height="1001"
     id="namedview6"
     showgrid="false"
     inkscape:zoom="3.6203867"
     inkscape:cx="-45.654522"
     inkscape:cy="31.902762"
     inkscape:window-x="0"
     inkscape:window-y="0"
     inkscape:window-maximized="1"
     inkscape:current-layer="svg4"
     inkscape:document-rotation="0" />
  <rect
     style="opacity:1;fill:#e6e6e6;stroke:none;stroke-width:1.00213349"
     id="rect3710"
     width="64"
     height="64.00016"
     x="0"
     y="-0.00016021729" />
  <g
     id="g10">
    <path
       style="fill:#000000;stroke-width:0.0360577"
       inkscape:connector-curvature="0"
       id="path2"
       d="m 43.538462,27.384615 q 0,-6.670673 -4.741587,-11.412259 -4.741587,-4.741587 -11.41226,-4.741587 -6.670673,0 -11.412259,4.741587 -4.741587,4.741586 -4.741587,11.412259 0,6.670673 4.741587,11.41226 4.741586,4.741587 11.412259,4.741587 6.670673,0 11.41226,-4.741587 4.741587,-4.741587 4.741587,-11.41226 z m 18.461538,30 q 0,1.875 -1.370192,3.245193 Q 59.259615,62 57.384615,62 55.4375,62 54.139423,60.629808 L 41.771635,48.298077 q -6.454327,4.471154 -14.38702,4.471154 -5.15625,0 -9.861778,-2.001202 Q 12.817308,48.766827 9.4098558,45.359375 6.0024038,41.951923 4.0012019,37.246394 2,32.540865 2,27.384615 2,22.228365 4.0012019,17.522837 6.0024038,12.817308 9.4098558,9.4098558 12.817308,6.0024038 17.522837,4.0012019 22.228365,2 27.384615,2 q 5.15625,0 9.861779,2.0012019 4.705529,2.0012019 8.112981,5.4086539 3.407452,3.4074522 5.408654,8.1129812 2.001202,4.705528 2.001202,9.861778 0,7.932693 -4.471154,14.38702 L 60.665865,54.139423 Q 62,55.473558 62,57.384615 Z" />
    <path
       d="m 35.211587,22.184248 -5.315753,5.315755 5.315753,5.315754 2.156251,-2.156248 q 0.434244,-0.464194 1.048176,-0.209637 0.583984,0.254557 0.583984,0.883464 v 6.708333 q 0,0.389323 -0.284505,0.673826 -0.284503,0.284506 -0.673827,0.284506 h -6.708333 q -0.628906,0 -0.883463,-0.598958 -0.254559,-0.583984 0.209635,-1.033202 L 32.815754,35.21159 27.5,29.895836 l -5.315755,5.315754 2.15625,2.156251 q 0.464192,0.449218 0.209635,1.033202 -0.254557,0.598958 -0.883464,0.598958 h -6.708334 q -0.389322,0 -0.673827,-0.284506 Q 16,38.430992 16,38.041669 v -6.708333 q 0,-0.628907 0.598958,-0.883464 0.583985,-0.254557 1.033203,0.209637 l 2.156251,2.156248 5.315755,-5.315754 -5.315755,-5.315755 -2.156251,2.15625 q -0.284505,0.284505 -0.673829,0.284505 -0.179687,0 -0.359374,-0.07487 Q 16,24.295572 16,23.666666 V 16.958333 Q 16,16.56901 16.284505,16.284505 16.56901,16 16.958332,16 h 6.708334 q 0.628907,0 0.883464,0.598959 0.254557,0.583983 -0.209635,1.033203 L 22.184245,19.78841 27.5,25.104165 32.815755,19.78841 30.659505,17.632162 Q 30.195311,17.182942 30.44987,16.598959 30.704427,16 31.333333,16 h 6.708333 q 0.389324,0 0.673829,0.284505 Q 39,16.56901 39,16.958333 v 6.708333 q 0,0.628906 -0.583985,0.883464 -0.194661,0.07487 -0.374349,0.07487 -0.389323,0 -0.673828,-0.284506 z"
       id="path2-6"
       style="stroke-width:0.0149739;fill:#000000" />
  </g>
</svg>
