<?xml version="1.0" encoding="UTF-8" standalone="no"?>
<svg
   xmlns:dc="http://purl.org/dc/elements/1.1/"
   xmlns:cc="http://creativecommons.org/ns#"
   xmlns:rdf="http://www.w3.org/1999/02/22-rdf-syntax-ns#"
   xmlns:svg="http://www.w3.org/2000/svg"
   xmlns="http://www.w3.org/2000/svg"
   xmlns:sodipodi="http://sodipodi.sourceforge.net/DTD/sodipodi-0.dtd"
   xmlns:inkscape="http://www.inkscape.org/namespaces/inkscape"
   height="64"
   width="64"
   version="1.1"
   id="svg4"
   sodipodi:docname="zoom_in.svg"
   inkscape:version="0.92.5 (2060ec1f9f, 2020-04-08)">
  <metadata
     id="metadata10">
    <rdf:RDF>
      <cc:Work
         rdf:about="">
        <dc:format>image/svg+xml</dc:format>
        <dc:type
           rdf:resource="http://purl.org/dc/dcmitype/StillImage" />
      </cc:Work>
    </rdf:RDF>
  </metadata>
  <defs
     id="defs8" />
  <sodipodi:namedview
     inkscape:document-rotation="0"
     pagecolor="#ffffff"
     bordercolor="#666666"
     borderopacity="1"
     objecttolerance="10"
     gridtolerance="10"
     guidetolerance="10"
     inkscape:pageopacity="0"
     inkscape:pageshadow="2"
     inkscape:window-width="1920"
     inkscape:window-height="1001"
     id="namedview6"
     showgrid="false"
     inkscape:zoom="10.606602"
     inkscape:cx="23.844529"
     inkscape:cy="28.515868"
     inkscape:window-x="0"
     inkscape:window-y="0"
     inkscape:window-maximized="1"
     inkscape:current-layer="svg4" />
  <rect
     style="opacity:1;fill:#e6e6e6;stroke:none;stroke-width:1.00213349"
     id="rect3710"
     width="64"
     height="64.00016"
     x="0"
     y="-0.00016021729" />
  <path
     d="m 38.923077,26.230769 v 2.307693 q 0,0.46875 -0.342548,0.811298 -0.342548,0.342548 -0.811298,0.342548 h -8.076923 v 8.076923 q 0,0.46875 -0.342548,0.811298 -0.342548,0.342548 -0.811298,0.342548 h -2.307693 q -0.46875,0 -0.811298,-0.342548 -0.342548,-0.342548 -0.342548,-0.811298 V 29.692308 H 17 q -0.46875,0 -0.811298,-0.342548 -0.342548,-0.342548 -0.342548,-0.811298 v -2.307693 q 0,-0.46875 0.342548,-0.811298 Q 16.53125,25.076923 17,25.076923 h 8.076923 V 17 q 0,-0.46875 0.342548,-0.811298 0.342548,-0.342548 0.811298,-0.342548 h 2.307693 q 0.46875,0 0.811298,0.342548 Q 29.692308,16.53125 29.692308,17 v 8.076923 h 8.076923 q 0.46875,0 0.811298,0.342548 0.342548,0.342548 0.342548,0.811298 z m 4.615385,1.153846 q 0,-6.670673 -4.741587,-11.412259 -4.741587,-4.741587 -11.41226,-4.741587 -6.670673,0 -11.412259,4.741587 -4.741587,4.741586 -4.741587,11.412259 0,6.670673 4.741587,11.41226 4.741586,4.741587 11.412259,4.741587 6.670673,0 11.41226,-4.741587 4.741587,-4.741587 4.741587,-11.41226 z m 18.461538,30 q 0,1.911058 -1.352163,3.263222 Q 59.295673,62 57.384615,62 55.4375,62 54.139423,60.629808 L 41.771635,48.298077 q -6.454327,4.471154 -14.38702,4.471154 -5.15625,0 -9.861778,-2.001202 Q 12.817308,48.766827 9.4098558,45.359375 6.0024038,41.951923 4.0012019,37.246394 2,32.540865 2,27.384615 2,22.228365 4.0012019,17.522837 6.0024038,12.817308 9.4098558,9.4098558 12.817308,6.0024038 17.522837,4.0012019 22.228365,2 27.384615,2 q 5.15625,0 9.861779,2.0012019 4.705529,2.0012019 8.112981,5.4086539 3.407452,3.4074522 5.408654,8.1129812 2.001202,4.705528 2.001202,9.861778 0,7.932693 -4.471154,14.38702 L 60.665865,54.139423 Q 62,55.473558 62,57.384615 Z"
     id="path2"
     style="stroke-width:0.0360578;fill:#000000" />
</svg>
